<?xml version="1.0" encoding="utf-8"?>
<svg width="160" height="160" viewBox="0 0 256 256" fill="none" xmlns="http://www.w3.org/2000/svg">
  <g transform="matrix(1.44, 0, 0, 1.44, -8.501925, -57.07457)" style="">
    <title>White</title>
    <circle cx="94.793" cy="128.524" r="80" fill="#FBFDFF"/>
    <path fill-rule="evenodd" clip-rule="evenodd" d="M 94.799 78.524 C 97.098 78.524 99.195 79.837 100.198 81.906 L 124.204 131.406 L 124.746 132.524 L 111.409 132.524 L 107.53 124.524 L 82.069 124.524 L 78.189 132.524 L 64.853 132.524 L 65.395 131.406 L 89.401 81.906 C 90.404 79.837 92.501 78.524 94.799 78.524 Z M 86.919 114.524 L 102.68 114.524 L 94.799 98.274 L 86.919 114.524 Z M 112.793 149.524 L 124.798 149.524 C 124.437 165.676 111.067 178.524 94.799 178.524 C 78.532 178.524 65.162 165.676 64.801 149.524 L 76.806 149.524 C 77.087 156.878 81.974 163.155 88.793 165.52 L 88.793 141.524 C 88.793 138.21 91.48 135.524 94.793 135.524 C 98.107 135.524 100.793 138.21 100.793 141.524 L 100.793 165.524 C 107.62 163.162 112.511 156.883 112.793 149.524 Z" fill="#3650A2"/>
  </g>
</svg>