<?xml version="1.0" encoding="utf-8"?>
<!-- Generator: Adobe Illustrator 25.2.1, SVG Export Plug-In . SVG Version: 6.00 Build 0)  -->
<svg version="1.1" id="Layer_1" xmlns="http://www.w3.org/2000/svg" xmlns:xlink="http://www.w3.org/1999/xlink" x="0px" y="0px"
	 viewBox="0 0 699.81 197.39" style="enable-background:new 0 0 699.81 197.39;" xml:space="preserve">
<style type="text/css">
	.st0{fill:#00FFFF;}
	.st1{fill:#FFFFFF;}
	.st2{fill:#333333;stroke:#FFFFFF;stroke-width:3.0493;stroke-miterlimit:10;}
	.st3{fill:#FFFFFF;}
</style>
<g>
	<g>
		<path class="st0" d="M211.86,142.42V54.67h18.08l8.07,41.98V54.67h16.96v87.75H237.8l-8.78-43.93v43.93H211.86z"/>
		<path class="st0" d="M266.81,136.91c-3.34-4.22-5-10.52-5-18.9V87.97c0-6.88,1.97-12.12,5.92-15.73
			c3.95-3.61,9.46-5.41,16.55-5.41c14.37,0,21.56,7.05,21.56,21.15v5.41c0,5.45-0.07,9.88-0.21,13.28h-25.95v14.51
			c0,2.59,0.27,4.61,0.82,6.08c0.54,1.47,1.7,2.2,3.47,2.2c1.36,0,2.33-0.41,2.91-1.23c0.58-0.82,0.92-1.75,1.02-2.81
			c0.1-1.06,0.15-2.6,0.15-4.65v-7.25h17.77v4.29c0,8.72-1.69,15.14-5.06,19.26c-3.37,4.12-9.18,6.18-17.42,6.18
			C275.67,143.24,270.15,141.13,266.81,136.91z M288.06,97.78v-9.6c0-5.38-1.33-8.07-3.98-8.07c-3,0-4.49,2.69-4.49,8.07v9.6H288.06
			z"/>
		<path class="st0" d="M313.91,84.5h-3.17l0.1-13.59h3.06v-5.11c0-8.03,4.02-12.05,12.05-12.05c3.81,0,6.88,0.48,9.19,1.43v11.03
			c-0.68-0.2-1.23-0.31-1.63-0.31c-0.95,0-1.57,0.34-1.84,1.02c-0.27,0.68-0.41,1.7-0.41,3.06v0.92h3.88v13.79h-3.47v57.72h-17.77
			V84.5z"/>
		<path class="st0" d="M346.59,140.28c-1.77-1.97-2.65-5.14-2.65-9.5V84.09h-5.01V70.51h5.01V54.67h17.37v15.83h5.11v13.59h-5.11
			v41.98c0,1.29,0.1,2.25,0.31,2.86c0.2,0.61,0.75,0.92,1.63,0.92c0.68,0,1.33-0.03,1.94-0.1c0.61-0.07,1.02-0.1,1.23-0.1v12.26
			c-1.02,0.27-2.5,0.56-4.44,0.87c-1.94,0.31-3.83,0.46-5.67,0.46C351.6,143.24,348.36,142.25,346.59,140.28z"/>
		<path class="st0" d="M370.6,143.55h8.58c1.23,0,1.84-0.51,1.84-1.53c0-0.47-0.04-0.85-0.1-1.12l-11.64-73.24h17.06l3.37,36.47
			l1.63,18.59l1.94-18.59l3.98-36.47h17.16l-13.89,78.66c-0.48,2.93-1.45,5.09-2.91,6.49c-1.46,1.4-3.76,2.09-6.9,2.09H370.6V143.55
			z"/>
		<path class="st1" d="M419.43,54.67h23.8c6.4,0,11.05,1.57,13.94,4.7c2.89,3.13,4.34,8.24,4.34,15.32v3.88
			c0,8.38-3,13.38-8.99,15.02c3.68,0.95,6.27,3.17,7.76,6.64c1.5,3.47,2.25,8.07,2.25,13.79c0,9.33-1.4,16.4-4.19,21.2
			c-2.79,4.8-7.83,7.2-15.12,7.2h-23.8V54.67z M440.17,87.67c1.5,0,2.52-0.56,3.06-1.69c0.54-1.12,0.82-2.71,0.82-4.75v-8.78
			c0-2.86-1.26-4.29-3.78-4.29h-3.68v19.51H440.17z M445.17,120.46v-10.93c0-2.66-0.39-4.66-1.18-6.03
			c-0.78-1.36-2.16-2.04-4.14-2.04h-3.27v25.44l1.74,0.1C442.89,127,445.17,124.82,445.17,120.46z"/>
		<path class="st1" d="M468.05,142.42V54.16h18.18v88.26H468.05z"/>
		<path class="st1" d="M492.77,120.05V90.02c0-7.08,1.99-12.72,5.98-16.91c3.98-4.19,9.45-6.28,16.4-6.28s12.41,2.09,16.4,6.28
			c3.98,4.19,5.98,9.82,5.98,16.91v30.03c0,15.46-7.46,23.19-22.37,23.19C500.23,143.24,492.77,135.51,492.77,120.05z
			 M518.31,127.92c0.68-1.02,1.02-2.42,1.02-4.19V87.16c0-4.36-1.4-6.54-4.19-6.54c-2.79,0-4.19,2.18-4.19,6.54v36.57
			c0,1.77,0.34,3.17,1.02,4.19c0.68,1.02,1.74,1.53,3.17,1.53S517.63,128.94,518.31,127.92z"/>
		<path class="st1" d="M548.96,137.01c-3.61-4.15-5.41-10.52-5.41-19.1V94.82c0-6.47,0.7-11.73,2.09-15.78
			c1.39-4.05,3.74-7.1,7.05-9.14c3.3-2.04,7.88-3.06,13.74-3.06c6.4,0,11.61,1.67,15.63,5.01c4.02,3.34,6.03,8,6.03,13.99v11.44
			H569.9V86.75c0-1.97-0.27-3.49-0.82-4.55c-0.55-1.05-1.6-1.58-3.17-1.58c-2.93,0-4.39,2.08-4.39,6.23v36.26
			c0,1.7,0.36,3.15,1.07,4.34c0.72,1.19,1.79,1.79,3.22,1.79c1.43,0,2.5-0.58,3.22-1.74c0.72-1.16,1.04-2.66,0.97-4.49l-0.1-12.57
			h18.18v13.08c0,6.13-1.99,10.95-5.98,14.45c-3.98,3.51-9.14,5.26-15.48,5.26C558.46,143.24,552.57,141.16,548.96,137.01z"/>
		<path class="st1" d="M594.31,142.42V54.16h17.67v39.23l8.58-25.74h18.49l-11.24,32.48l14.3,42.29h-19l-11.13-35.24v35.24H594.31z"
			/>
		<path class="st1" d="M642.83,120.77l0.1-5.92h17.88l0.1,8.78c0,1.77,0.34,3.12,1.02,4.04c0.68,0.92,1.8,1.38,3.37,1.38
			c2.38,0,3.58-1.94,3.58-5.82c0-2.86-0.56-5.11-1.69-6.74c-1.12-1.63-2.91-3.37-5.36-5.21l-9.5-7.36
			c-3.27-2.52-5.62-5.12-7.05-7.81c-1.43-2.69-2.15-6.49-2.15-11.39c0-3.81,1-7.07,3.01-9.76c2.01-2.69,4.68-4.71,8.02-6.08
			c3.33-1.36,7.05-2.04,11.13-2.04c14.51,0,21.76,7.22,21.76,21.66v1.43h-18.49v-2.86c0-1.77-0.29-3.29-0.87-4.55
			c-0.58-1.26-1.55-1.89-2.91-1.89c-1.23,0-2.16,0.36-2.81,1.07c-0.65,0.72-0.97,1.69-0.97,2.91c0,2.72,1.05,4.84,3.17,6.33
			l11.03,8.07c3.95,2.93,6.98,6.11,9.09,9.55c2.11,3.44,3.17,7.78,3.17,13.02c0,6.95-1.98,12.29-5.92,16.04
			c-3.95,3.75-9.47,5.62-16.55,5.62C650.22,143.24,642.83,135.75,642.83,120.77z"/>
	</g>
	<g>
		<polygon class="st2" points="12.16,46.19 97.11,7.28 181.08,46.19 181.08,149.09 96.02,187.16 12.16,150.88 		"/>
		<polygon class="st0" points="40.34,48.85 96.71,23.72 152.4,48.51 96.03,73.98 		"/>
		<path class="st3" d="M25.42,59l20.17,8.99l23.96,53.44l0.6,0.27V78.94l20.17,8.99v82.25l-20.17-8.99l-23.87-52l-0.69-0.31v41.36
			l-20.17-8.99V59z"/>
		<path class="st3" d="M169.43,84.88c0-16.45-7.86-22.51-20.68-16.88L103.6,87.84v21.5l0.02-0.01v8.93l-0.02,0.01v21.27l0.02-0.01
			v9.05l-0.02,0.01v21.5l45.15-19.84c12.82-5.63,20.68-18.72,20.68-35.17c0-5.76-1.44-10.53-3.79-13.73
			C167.99,96.21,169.43,90.41,169.43,84.88z M145.68,130.1l-17.13,7.53v-9.05l17.13-7.53c1.99-0.87,3.43,0.14,3.43,2.96
			C149.11,126.83,147.67,129.23,145.68,130.1z M145.68,99.78l-17.13,7.53v-8.93l17.13-7.53c1.99-0.87,3.43,0.02,3.43,2.84
			C149.11,96.51,147.67,98.91,145.68,99.78z"/>
	</g>
</g>
</svg>
