<?xml version="1.0" encoding="utf-8"?>
<!-- Generator: Adobe Illustrator 25.1.0, SVG Export Plug-In . SVG Version: 6.00 Build 0)  -->
<svg version="1.1" id="Layer_1" xmlns="http://www.w3.org/2000/svg" xmlns:xlink="http://www.w3.org/1999/xlink" x="0px" y="0px"
	 viewBox="0 0 428.67 186" style="enable-background:new 0 0 428.67 186;" xml:space="preserve">
<style type="text/css">
	.st0{fill:#F36E5C;}
	.st1{fill:#FCCCAC;}
</style>
<g>
	<path class="st0" d="M94.68,36.36v-5.25h15.75v5.25h5.25v31.5h5.25V52.1h5.25V41.6h5.25v-5.25h10.5v5.25h5.25v21h-5.25v10.5h-5.25
		v10.5h-5.25v5.25h-5.25v5.25h-21v-5.25h-5.25v-10.5h-5.25v-21h-5.25v-21H94.68z"/>
	<path class="st0" d="M152.07,36.36v-5.25h10.5v5.25h5.25v31.5h5.25v21h-5.25v5.25h-15.75v-5.25h-5.25v-52.5H152.07z"/>
	<path class="st0" d="M188.47,36.36v-5.25h31.5v5.25h5.25v5.25h5.25v21h-5.25v5.25h-5.25v5.25h5.25v5.25h5.25v10.5h-5.25v5.25
		h-15.75v-5.25h-5.25V83.6h-5.25v-5.25h-5.25v10.5h-5.25v5.25h-10.5v-5.25h-5.25V62.6h5.25V46.85h5.25v-10.5H188.47z M209.47,46.85
		h-10.5v5.25h-5.25v10.5h10.5v-5.25h5.25V46.85z"/>
	<path class="st0" d="M235.37,41.6v-10.5h15.75v5.25h5.25V52.1h-5.25v15.75h5.25v5.25h5.25v-5.25h5.25v-10.5h-5.25V41.6h5.25v-5.25
		h10.5v5.25h5.25v10.5h5.25v26.25h-5.25v10.5h-5.25v5.25h-36.75v-5.25h-5.25v-10.5h-5.25V41.6H235.37z"/>
	<path class="st0" d="M303.26,36.36v-5.25h26.25v5.25h5.25v10.5h-5.25v5.25h-10.5v-5.25h-5.25v5.25h5.25v5.25h10.5v5.25h5.25v5.25
		h5.25V83.6h-5.25v5.25h-10.5v5.25h-31.5v-5.25h-5.25V73.1h5.25v-5.25h10.5v5.25h10.5v-5.25h-10.5V62.6h-5.25v-5.25h-5.25V41.6h5.25
		v-5.25H303.26z"/>
	<path class="st0" d="M45.15,103.55V98.3h21v5.25h10.5v5.25h5.25v15.75h-5.25v5.25h5.25v5.25h5.25v21h-10.5v5.25h-42v-5.25H29.4
		V129.8h5.25v-15.75h5.25v-10.5H45.15z M60.9,114.05h-5.25v5.25H50.4v5.25h10.5V114.05z M60.9,135.05H50.4v10.5h10.5V135.05z"/>
	<path class="st0" d="M92.05,108.8V98.3h15.75v5.25h5.25v15.75h-5.25v15.75h5.25v5.25h5.25v-5.25h5.25v-10.5h-5.25V108.8h5.25v-5.25
		h10.5v5.25h5.25v10.5h5.25v26.25h-5.25v10.5h-5.25v5.25H97.3v-5.25h-5.25v-10.5H86.8V108.8H92.05z"/>
	<path class="st0" d="M159.95,103.55V98.3h26.25v5.25h5.25v10.5h-5.25v5.25h-10.5v-5.25h-5.25v5.25h5.25v5.25h10.5v5.25h5.25v5.25
		h5.25v15.75h-5.25v5.25h-10.5v5.25h-31.5v-5.25h-5.25V140.3h5.25v-5.25h10.5v5.25h10.5v-5.25h-10.5v-5.25h-5.25v-5.25h-5.25V108.8
		h5.25v-5.25H159.95z"/>
	<path class="st0" d="M206.85,103.55V98.3h36.75v5.25h5.25v10.5h-5.25v5.25h-10.5v21h5.25v15.75h-5.25v5.25h-15.75v-10.5h-5.25
		v-26.25h-5.25v5.25h-10.5v-5.25h-5.25V108.8h5.25v-5.25H206.85z"/>
	<path class="st0" d="M258.99,103.55V98.3h31.5v5.25h5.25v10.5h-5.25v5.25h-21v5.25h15.75v10.5h-5.25v5.25h-15.75v5.25h26.25v10.5
		h-5.25v5.25h-36.75v-5.25h-5.25V129.8h5.25v-15.75h5.25v-10.5H258.99z"/>
	<path class="st0" d="M305.89,103.55V98.3h31.5v5.25h5.25v5.25h5.25v21h-5.25v5.25h-5.25v5.25h5.25v5.25h5.25v10.5h-5.25v5.25
		h-15.75v-5.25h-5.25v-5.25h-5.25v-5.25h-5.25v10.5h-5.25v5.25h-10.5v-5.25h-5.25V129.8h5.25v-15.75h5.25v-10.5H305.89z
		 M326.89,114.05h-10.5v5.25h-5.25v10.5h10.5v-5.25h5.25V114.05z"/>
	<path class="st0" d="M363.29,103.55V98.3h26.25v5.25h5.25v10.5h-5.25v5.25h-10.5v-5.25h-5.25v5.25h5.25v5.25h10.5v5.25h5.25v5.25
		h5.25v15.75h-5.25v5.25h-10.5v5.25h-31.5v-5.25h-5.25V140.3h5.25v-5.25h10.5v5.25h10.5v-5.25h-10.5v-5.25h-5.25v-5.25h-5.25V108.8
		h5.25v-5.25H363.29z"/>
</g>
<g>
	<path class="st1" d="M81.97,30.76v-5.25h15.75v5.25h5.25v31.5h5.25V46.51h5.25v-10.5h5.25v-5.25h10.5v5.25h5.25v21h-5.25v10.5
		h-5.25v10.5h-5.25v5.25h-5.25v5.25h-21v-5.25h-5.25v-10.5h-5.25v-21h-5.25v-21H81.97z"/>
	<path class="st1" d="M144.97,30.76v-5.25h10.5v5.25h5.25v31.5h5.25v21h-5.25v5.25h-15.75v-5.25h-5.25v-52.5H144.97z"/>
	<path class="st1" d="M186.97,30.76v-5.25h31.5v5.25h5.25v5.25h5.25v21h-5.25v5.25h-5.25v5.25h5.25v5.25h5.25v10.5h-5.25v5.25
		h-15.75v-5.25h-5.25v-5.25h-5.25v-5.25h-5.25v10.5h-5.25v5.25h-10.5v-5.25h-5.25V57.01h5.25V41.26h5.25v-10.5H186.97z
		 M207.97,41.26h-10.5v5.25h-5.25v10.5h10.5v-5.25h5.25V41.26z"/>
	<path class="st1" d="M239.47,36.01v-10.5h15.75v5.25h5.25v15.75h-5.25v15.75h5.25v5.25h5.25v-5.25h5.25v-10.5h-5.25V36.01h5.25
		v-5.25h10.5v5.25h5.25v10.5h5.25v26.25h-5.25v10.5h-5.25v5.25h-36.75v-5.25h-5.25v-10.5h-5.25V36.01H239.47z"/>
	<path class="st1" d="M312.91,30.76v-5.25h26.25v5.25h5.25v10.5h-5.25v5.25h-10.5v-5.25h-5.25v5.25h5.25v5.25h10.5v5.25h5.25v5.25
		h5.25v15.75h-5.25v5.25h-10.5v5.25h-31.5v-5.25h-5.25V67.51h5.25v-5.25h10.5v5.25h10.5v-5.25h-10.5v-5.25h-5.25v-5.25h-5.25V36.01
		h5.25v-5.25H312.91z"/>
	<path class="st1" d="M26.82,97.96v-5.25h21v5.25h10.5v5.25h5.25v15.75h-5.25v5.25h5.25v5.25h5.25v21h-10.5v5.25h-42v-5.25h-5.25
		v-26.25h5.25v-15.75h5.25v-10.5H26.82z M42.57,108.46h-5.25v5.25h-5.25v5.25h10.5V108.46z M42.57,129.46h-10.5v10.5h10.5V129.46z"
		/>
	<path class="st1" d="M79.32,103.21v-10.5h15.75v5.25h5.25v15.75h-5.25v15.75h5.25v5.25h5.25v-5.25h5.25v-10.5h-5.25v-15.75h5.25
		v-5.25h10.5v5.25h5.25v10.5h5.25v26.25h-5.25v10.5h-5.25v5.25H84.57v-5.25h-5.25v-10.5h-5.25v-36.75H79.32z"/>
	<path class="st1" d="M152.82,97.96v-5.25h26.25v5.25h5.25v10.5h-5.25v5.25h-10.5v-5.25h-5.25v5.25h5.25v5.25h10.5v5.25h5.25v5.25
		h5.25v15.75h-5.25v5.25h-10.5v5.25h-31.5v-5.25h-5.25v-15.75h5.25v-5.25h10.5v5.25h10.5v-5.25h-10.5v-5.25h-5.25v-5.25h-5.25
		v-15.75h5.25v-5.25H152.82z"/>
	<path class="st1" d="M205.31,97.96v-5.25h36.75v5.25h5.25v10.5h-5.25v5.25h-10.5v21h5.25v15.75h-5.25v5.25h-15.75v-10.5h-5.25
		v-26.25h-5.25v5.25h-10.5v-5.25h-5.25v-15.75h5.25v-5.25H205.31z"/>
	<path class="st1" d="M263.06,97.96v-5.25h31.5v5.25h5.25v10.5h-5.25v5.25h-21v5.25h15.75v10.5h-5.25v5.25h-15.75v5.25h26.25v10.5
		h-5.25v5.25h-36.75v-5.25h-5.25v-26.25h5.25v-15.75h5.25v-10.5H263.06z"/>
	<path class="st1" d="M315.56,97.96v-5.25h31.5v5.25h5.25v5.25h5.25v21h-5.25v5.25h-5.25v5.25h5.25v5.25h5.25v10.5h-5.25v5.25
		h-15.75v-5.25h-5.25v-5.25h-5.25v-5.25h-5.25v10.5h-5.25v5.25h-10.5v-5.25h-5.25v-26.25h5.25v-15.75h5.25v-10.5H315.56z
		 M336.56,108.46h-10.5v5.25h-5.25v10.5h10.5v-5.25h5.25V108.46z"/>
	<path class="st1" d="M378.56,97.96v-5.25h26.25v5.25h5.25v10.5h-5.25v5.25h-10.5v-5.25h-5.25v5.25h5.25v5.25h10.5v5.25h5.25v5.25
		h5.25v15.75h-5.25v5.25h-10.5v5.25h-31.5v-5.25h-5.25v-15.75h5.25v-5.25h10.5v5.25h10.5v-5.25h-10.5v-5.25h-5.25v-5.25h-5.25
		v-15.75h5.25v-5.25H378.56z"/>
</g>
</svg>
