<svg xmlns="http://www.w3.org/2000/svg" xmlns:xlink="http://www.w3.org/1999/xlink" viewBox="0 0 269.45 112.42"><defs><style>.cls-1{fill:#fff;}.cls-2{fill:none;}.cls-3{fill:#422136;}.cls-4{fill:#ff004d;}.cls-5{fill:#fff1e8;}.cls-6{mask:url(#mask);}.cls-7{fill:#7e2553;}.cls-8{fill:#be1250;}</style><mask id="mask" x="51.03" y="13.41" width="163.08" height="39.31" maskUnits="userSpaceOnUse"><path class="cls-1" d="M57.18,16.49V13.41h9.23v3.08h3.08V35h3.08V25.72h3.07V19.57h3.08V16.49h6.16v3.08H88V31.88H84.88V38H81.8v6.15H78.72v3.08H75.64v3.08H63.34V47.26H60.26V41.11H57.18V28.8H54.11V16.49Z"/><path class="cls-1" d="M94.11,16.49V13.41h6.15v3.08h3.08V35h3.07V47.26h-3.07v3.08H94.11V47.26H91V16.49Z"/><path class="cls-1" d="M118.72,16.49V13.41h18.46v3.08h3.08v3.08h3.08V31.88h-3.08V35h-3.08V38h3.08v3.08h3.08v6.15h-3.08v3.08H131V47.26H128V44.18h-3.07V41.11H121.8v6.15h-3.08v3.08h-6.15V47.26h-3.08V31.88h3.08V22.64h3.07V16.49ZM131,22.64h-6.15v3.08H121.8v6.16H128V28.8H131Z"/><path class="cls-1" d="M149.49,19.57V13.41h9.23v3.08h3.08v9.23h-3.08V35h3.08V38h3.08V35H168V28.8h-3.07V19.57H168V16.49h6.16v3.08h3.07v6.15h3.08V41.11h-3.08v6.15h-3.07v3.08H152.57V47.26h-3.08V41.11h-3.08V19.57Z"/><path class="cls-1" d="M192.57,16.49V13.41H208v3.08H211v6.15H208v3.08H201.8V22.64h-3.08v3.08h3.08V28.8H208v3.08H211V35h3.08v9.23H211v3.08h-6.15v3.08H186.42V47.26h-3.08V38h3.08V35h6.15V38h6.15V35h-6.15V31.88h-3.08V28.8h-3.07V19.57h3.07V16.49Z"/></mask></defs><g id="Layer_1" data-name="Layer 1"><polygon class="cls-2" points="93.45 53.44 91.01 53.44 91.01 50.36 87.93 50.36 87.93 47.26 87.93 41.13 84.9 41.13 84.9 44.18 84.9 47.28 81.82 47.28 81.82 50.36 78.74 50.36 78.74 53.39 81.17 53.39 84.27 53.39 84.27 56.47 87.34 56.47 87.34 59.57 87.34 62.62 90.37 62.62 90.37 59.57 90.37 56.47 93.45 56.47 93.45 53.44"/><polygon class="cls-2" points="121.82 53.39 124.24 53.39 127.3 53.39 127.3 50.36 124.9 50.36 121.82 50.36 121.82 53.39"/><polygon class="cls-3" points="255.01 87.28 253.5 87.28 253.5 90.36 253.49 90.36 250.4 90.36 247.35 90.36 247.35 93.44 244.25 93.44 225.78 93.44 222.72 93.44 222.69 93.44 222.69 93.44 222.69 90.36 221.19 90.36 221.17 90.36 219.67 90.36 219.65 90.36 219.65 93.44 219.64 93.44 216.55 93.44 207.32 93.44 204.22 93.44 204.22 90.36 201.19 90.36 198.12 90.36 198.12 90.38 198.12 93.44 198.1 93.44 195.01 93.44 188.86 93.44 185.79 93.44 185.77 93.44 185.76 93.44 185.76 90.36 184.27 90.36 184.24 90.36 182.74 90.36 182.73 90.36 182.73 93.44 182.72 93.44 179.63 93.44 158.09 93.44 155.02 93.44 154.99 93.44 154.99 90.36 153.5 90.36 151.92 90.36 151.91 90.36 151.78 90.36 150.4 90.36 148.88 90.36 148.88 93.44 148.87 93.44 145.78 93.44 136.55 93.44 133.48 93.44 133.45 93.44 133.45 90.34 133.45 87.28 131.96 87.28 130.66 87.28 130.66 74.98 123.98 74.98 123.98 87.28 122.7 87.28 121.19 87.28 121.19 90.36 121.18 90.36 118.09 90.36 115.04 90.36 115.04 93.44 111.94 93.44 93.47 93.44 90.41 93.44 90.37 93.44 90.37 93.43 90.37 90.36 88.88 90.36 88.85 90.36 87.36 90.36 87.34 90.36 87.33 90.36 87.3 90.36 84.27 90.36 84.27 90.38 84.27 93.44 84.25 93.44 81.17 93.44 59.63 93.44 56.56 93.44 56.53 93.44 56.53 90.38 56.53 90.36 53.5 90.36 53.48 90.36 53.45 90.36 53.45 90.36 51.96 90.36 51.93 90.36 50.43 90.36 50.41 90.36 50.4 90.36 47.34 90.36 47.34 93.44 44.24 93.44 19.63 93.44 16.56 93.44 16.53 93.44 16.53 90.36 15.03 90.36 13.51 90.36 13.51 96.54 13.51 99.59 16.56 99.59 16.59 99.59 16.59 99.61 16.59 102.66 19.64 102.66 44.25 102.66 47.3 102.66 47.3 99.61 47.3 99.59 56.56 99.59 56.59 99.59 56.59 99.61 56.59 102.66 59.64 102.66 81.17 102.66 84.22 102.66 84.22 99.61 84.22 99.59 84.25 99.59 90.41 99.59 90.43 99.59 90.43 99.61 90.43 102.66 93.48 102.66 111.95 102.66 115 102.66 115 99.61 115 99.59 118.1 99.59 121.15 99.59 121.15 96.54 121.15 96.51 121.18 96.51 124.23 96.51 124.23 93.46 124.23 93.44 130.43 93.44 130.43 93.46 130.43 96.51 133.48 96.51 133.51 96.51 133.51 99.61 133.51 102.66 136.56 102.66 145.79 102.66 148.84 102.66 148.84 99.61 148.84 99.59 148.87 99.59 151.78 99.59 151.92 99.59 155.02 99.59 155.05 99.59 155.05 99.61 155.05 102.66 158.1 102.66 179.64 102.66 182.69 102.66 182.69 99.61 182.69 99.59 182.72 99.59 182.74 99.59 185.77 99.59 185.79 99.59 185.82 99.59 185.82 99.61 185.82 102.66 188.87 102.66 195.02 102.66 198.07 102.66 198.07 99.61 198.07 99.59 198.1 99.59 204.25 99.59 204.28 99.59 204.28 99.61 204.28 102.66 207.33 102.66 216.56 102.66 219.61 102.66 219.61 99.61 219.61 99.59 219.64 99.59 219.67 99.59 222.69 99.59 222.72 99.59 222.74 99.59 222.74 99.61 222.74 102.66 225.79 102.66 244.26 102.66 247.31 102.66 247.31 99.61 247.31 99.59 250.41 99.59 253.46 99.59 253.46 96.54 253.46 96.51 253.49 96.51 256.54 96.51 256.54 93.46 256.54 87.28 255.01 87.28"/><polygon class="cls-4" points="57.18 41.11 60.26 41.11 60.26 47.26 63.34 47.26 63.34 50.31 65.78 50.31 68.88 50.31 68.88 50.34 75.64 50.34 75.64 47.26 78.72 47.26 78.72 44.18 81.8 44.18 81.8 38.03 84.88 38.03 84.88 31.88 87.93 31.88 87.93 19.57 84.88 19.57 84.88 16.49 78.72 16.49 78.72 19.57 75.64 19.57 75.64 25.72 72.57 25.72 72.57 34.95 69.49 34.95 69.49 16.49 66.41 16.49 66.41 13.41 57.18 13.41 57.18 16.49 54.1 16.49 54.1 28.8 57.18 28.8 57.18 41.11"/><polygon class="cls-4" points="94.11 50.34 96.53 50.34 96.53 50.31 99.63 50.31 103.34 50.31 103.34 47.26 106.39 47.26 106.39 34.95 103.34 34.95 103.34 16.49 100.26 16.49 100.26 13.41 94.11 13.41 94.11 16.49 91.05 16.49 91.03 16.49 91.03 34.98 91.03 47.26 94.11 47.26 94.11 50.34"/><path class="cls-4" d="M112.57,47.26v3.05h5.54v0h.61V47.26h3.08V41.11h3.08v3.07H128v3.08H131v3.05h9.23V47.26h3.08v-3h0v-3.1h-3.05V38h-3.08V35h3.08V31.88h3.05V19.57h-3.05V16.49h-3.08V13.41H118.72v3.08h-3.08v6.15h-3.07v9.24h-3.08V47.26h3.08Zm9.23-21.54h3.08V22.64H131V28.8H128v3.08H121.8Z"/><polygon class="cls-5" points="127.95 28.8 131.03 28.8 131.03 22.64 124.88 22.64 124.88 25.72 121.8 25.72 121.8 31.88 127.95 31.88 127.95 28.8"/><polygon class="cls-4" points="149.49 41.11 149.49 47.26 152.57 47.26 152.57 50.31 155.04 50.31 155.04 50.34 161.15 50.34 161.15 50.31 164.25 50.31 174.11 50.31 174.11 47.26 177.18 47.26 177.18 41.11 180.24 41.11 180.24 38.03 180.24 34.93 180.26 34.93 180.26 25.72 177.18 25.72 177.18 19.57 174.11 19.57 174.11 16.49 167.95 16.49 167.95 19.57 164.88 19.57 164.88 28.8 167.95 28.8 167.95 34.95 164.88 34.95 164.88 38.03 161.8 38.03 161.8 34.95 158.72 34.95 158.72 25.72 161.8 25.72 161.8 16.49 158.72 16.49 158.72 13.41 149.49 13.41 149.49 19.57 146.44 19.57 146.41 19.57 146.41 34.98 146.41 38.01 146.41 41.11 146.44 41.11 149.49 41.11"/><polygon class="cls-4" points="186.42 50.34 191.91 50.34 191.91 50.31 195.01 50.31 204.88 50.31 204.88 47.26 211.03 47.26 211.03 44.18 214.11 44.18 214.11 34.95 211.03 34.95 211.03 31.88 207.96 31.88 207.96 28.8 201.8 28.8 201.8 25.72 198.72 25.72 198.72 22.64 201.8 22.64 201.8 25.72 207.96 25.72 207.96 22.64 211.03 22.64 211.03 16.49 207.96 16.49 207.96 13.41 192.57 13.41 192.57 16.49 189.49 16.49 189.49 19.57 186.42 19.57 186.42 28.8 189.49 28.8 189.49 31.88 192.57 31.88 192.57 34.95 198.72 34.95 198.72 38.03 192.57 38.03 192.57 34.95 186.42 34.95 186.42 38.03 183.36 38.03 183.34 38.03 183.34 44.21 183.34 47.26 186.42 47.26 186.42 50.34"/><rect class="cls-5" x="192.57" y="34.95" width="6.15" height="3.08"/><rect class="cls-5" x="198.72" y="22.64" width="3.08" height="3.08"/><path d="M50.37,82.7V75h-3V71.88H44.24V68.8h3.08V59.57H44.24V56.49H38.09V53.41H25.78v3.08H22.7v6.16H19.63v9.23H16.55V87.26h3.08v3.08H44.24V87.26H50.4V84.21h0ZM35,78.07v3H28.86V75H35Zm0-15.38V68.8H28.86V65.72h3.07V62.65H35Z"/><polygon class="cls-5" points="33.47 74.95 31.94 74.95 28.86 74.95 28.86 81.11 35.01 81.11 35.01 78.07 35.01 74.95 33.49 74.95 33.47 74.95"/><polygon class="cls-5" points="31.93 62.69 31.93 65.72 28.86 65.72 28.86 68.8 35.01 68.8 35.01 62.69 35.01 62.65 31.93 62.65 31.93 62.69"/><polygon points="84.24 59.57 81.17 59.57 81.17 56.49 75.01 56.49 75.01 59.57 71.94 59.57 71.94 65.79 71.94 67.32 71.94 68.8 75.01 68.8 75.01 68.84 75.01 74.95 71.94 74.95 71.94 74.95 71.94 78.03 70.42 78.03 68.86 78.03 68.86 76.52 68.86 75 68.86 74.95 65.78 74.95 65.78 65.72 65.79 65.72 68.86 65.72 68.86 64.24 68.86 62.72 68.86 56.49 65.78 56.49 65.78 53.44 65.78 53.41 60.24 53.41 56.55 53.41 56.55 59.57 53.47 59.57 53.47 65.79 53.47 67.32 53.47 71.85 53.47 81.11 53.48 81.11 53.5 81.11 56.55 81.11 56.55 87.26 59.63 87.26 59.63 90.34 81.17 90.34 81.17 87.26 84.24 87.26 84.24 81.11 87.3 81.11 87.3 78.03 87.3 75 87.3 74.93 87.32 74.93 87.32 73.47 87.32 71.95 87.32 65.72 84.24 65.72 84.24 59.57"/><polygon points="121.14 74.97 121.14 74.95 119.65 74.95 118.13 74.95 118.09 74.95 118.09 73.45 118.09 71.92 118.09 71.9 118.07 71.9 118.07 71.88 115.01 71.88 115.01 68.8 108.86 68.8 108.86 65.72 105.78 65.72 105.78 62.69 105.78 62.65 108.86 62.65 108.86 62.69 108.86 65.72 115.01 65.72 115.01 62.69 115.01 62.65 116.55 62.65 118.07 62.65 118.07 59.64 118.07 59.57 118.07 56.49 115.01 56.49 115.01 53.44 115.01 53.41 109.47 53.41 106.44 53.41 99.63 53.41 99.63 53.44 99.63 56.49 96.55 56.49 96.55 59.57 93.47 59.57 93.47 65.79 93.47 67.32 93.47 68.8 96.55 68.8 96.55 68.84 96.55 71.88 99.63 71.88 99.63 74.95 105.78 74.95 105.78 78.03 99.63 78.03 99.63 74.95 93.48 74.95 93.47 74.95 93.47 78.03 91.96 78.03 90.43 78.03 90.42 78.03 90.4 78.03 90.4 84.21 90.4 84.25 90.4 85.78 90.4 87.26 93.47 87.26 93.47 87.31 93.47 90.34 111.94 90.34 111.94 87.26 118.09 87.26 118.09 84.19 118.1 84.19 121.17 84.19 121.17 82.7 121.17 81.18 121.17 81.12 121.17 79.6 121.17 74.98 121.14 74.98 121.14 74.97"/><rect class="cls-5" x="99.63" y="74.95" width="6.15" height="3.08"/><polygon class="cls-5" points="108.86 62.65 105.78 62.65 105.78 62.69 105.78 65.72 108.86 65.72 108.86 62.69 108.86 62.65"/><polygon points="155.01 56.49 151.94 56.49 151.94 53.44 151.94 53.41 149.47 53.41 143.36 53.41 130.4 53.41 130.4 53.44 130.4 56.49 124.24 56.49 124.24 59.57 121.19 59.57 121.17 59.57 121.17 65.75 121.17 65.79 121.17 67.32 121.17 68.78 121.17 68.8 121.19 68.8 124.24 68.8 124.24 68.84 124.24 71.85 124.24 71.88 124.27 71.88 130.4 71.88 130.4 68.8 133.47 68.8 133.47 78.07 133.47 84.19 133.48 84.19 136.55 84.19 136.55 90.34 145.78 90.34 145.78 87.26 145.79 87.26 148.86 87.26 148.86 85.78 148.86 84.25 148.86 78.05 148.86 78.03 147.32 78.03 145.79 78.03 145.78 78.03 145.78 65.72 151.94 65.72 151.94 62.69 151.94 62.65 153.47 62.65 154.99 62.65 154.99 59.64 154.99 59.55 155.01 59.55 155.01 56.49"/><polygon points="185.78 56.49 182.71 56.49 182.71 53.41 177.21 53.41 164.25 53.41 164.25 53.44 164.25 56.49 161.17 56.49 161.17 62.65 158.12 62.65 158.09 62.65 158.09 65.75 158.09 68.87 158.09 70.39 158.09 71.88 158.07 71.88 156.58 71.88 156.55 71.88 155.05 71.88 155.02 71.88 155.01 71.88 155.01 71.92 155.01 73.45 155.01 74.97 155.01 78.1 155.01 79.63 155.01 87.26 155.02 87.26 158.09 87.26 158.09 90.34 167.33 90.34 179.63 90.34 179.63 88.86 179.63 87.33 179.63 87.28 179.63 87.26 182.68 87.26 182.68 81.11 181.17 81.11 179.64 81.11 167.32 81.11 167.32 78.03 170.41 78.03 176.55 78.03 176.55 76.55 176.55 76.52 176.55 75 176.55 74.95 179.63 74.95 179.63 68.8 170.4 68.8 170.4 65.72 182.71 65.72 182.71 62.69 182.71 62.65 184.24 62.65 185.76 62.65 185.76 59.64 185.76 59.55 185.78 59.55 185.78 56.49"/><path d="M216.55,56.49h-3.07V53.41H195v3.08h-3.07v6.16h-3.08v9.23h-3.08V87.26h3.08v3.08H195V87.26h3.08V81.11h3.08v3.07h3.08v3.08h3.07v3.08h9.23V87.26h3.06V81.11h-3.06V78h-3.07V75h3.07V71.88h3.08V59.57h-3.08Zm-9.23,6.2V68.8h-3.07v3.08h-6.16V65.72h3.08V62.65h6.15Z"/><polygon class="cls-5" points="201.17 62.69 201.17 65.72 198.09 65.72 198.09 71.88 204.25 71.88 204.25 68.8 207.32 68.8 207.32 62.69 207.32 62.65 201.17 62.65 201.17 62.69"/><polygon points="250.4 74.95 250.4 73.45 250.4 71.92 250.4 71.88 247.32 71.88 247.32 68.8 241.17 68.8 241.17 65.72 238.09 65.72 238.09 62.69 238.09 62.65 241.17 62.65 241.17 62.69 241.17 65.72 247.32 65.72 247.32 62.69 247.32 62.65 248.86 62.65 250.38 62.65 250.4 62.65 250.4 56.49 247.32 56.49 247.32 53.41 231.94 53.41 231.94 56.49 228.86 56.49 228.86 59.57 225.78 59.57 225.78 65.79 225.78 67.32 225.78 68.8 228.86 68.8 228.86 68.84 228.86 71.88 231.94 71.88 231.94 74.95 238.09 74.95 238.09 78.03 231.94 78.03 231.94 74.95 225.79 74.95 225.78 74.95 225.78 78.03 224.27 78.03 222.74 78.03 222.73 78.03 222.71 78.03 222.71 84.25 222.71 85.78 222.71 87.26 222.73 87.26 225.78 87.26 225.78 87.31 225.78 90.34 244.25 90.34 244.25 87.26 250.4 87.26 250.4 84.19 250.41 84.19 253.48 84.19 253.48 82.7 253.48 81.18 253.48 74.95 253.46 74.95 250.4 74.95"/><path class="cls-5" d="M253.5,71.85V68.78h-3.08v-3h3.08V53.39h-3.08V50.31H228.84v3.08h-3.08v3.08h-6.11V53.39h-3.07V50.31h-2.45v-3h3.08V31.85h-3.08V28.78h-3.07v-3h3.07V13.39h-3.07V10.31H189.47v3.08h-3.08v3.08h-3.07v6.15h-3V16.47h-3.07V13.39H161.82V10.31H146.39v6.16h-3V13.39h-3.08V10.31H115.62v3.08h-3.08v6.15h-3.07v9.24h-3V13.39h-3.08V10.31H91v3.08H75.62v3.08h-3V13.39H69.51V10.31H54.08v3.08H51V31.9h3.07V44.21h3.08v6.1H53.45v6.16H47.34V53.39H41.19V50.31H22.68v3.08H19.6v6.16H16.53v9.23H13.45V90.36h3.08v3.08H47.34V90.36h9.19v3.08H84.27V90.36h6.1v3.07H115V90.36h6.15V87.28h3.08V75h6.11v12.3h3.07v6.16h15.43V90.36H155v3.08h27.74V90.36h3v3.08h12.35V90.36h6.11v3.08h15.43V90.36h3v3.08h24.66V90.36h6.15V87.28h3.08V71.85ZM50.4,84.23v3H44.24v3.08H19.63V87.26H16.55V71.88h3.08V62.65H22.7V56.49h3.08V53.41H38.09v3.08h6.15v3.08h3.08V68.8H44.24v3.08h3.08V75h3v9.26h0Zm132.94-40V38h3.08V35h6.15V31.88h-3.08V28.8h-3.07V19.57h3.07V16.49h3.08V13.41H208v3.08H211v6.15H208v3.08H201.8V28.8H208v3.08H211V35h3.08v9.23H211v3.08h-6.15v3.05h-13v0h-5.49V47.26h-3.08ZM146.41,38V19.57h3.08V13.41h9.23v3.08h3.08v9.23h-3.08V35h3.08V38h3.08V35H168V28.8h-3.07V19.57H168V16.49h6.16v3.08h3.07v6.15h3.08v9.21h0v6.18h-3.06v6.15h-3.07v3.05h-13v0H155v0h-2.47V47.26h-3.08V41.11h-3.08Zm-36.92-6.13h3.08V22.64h3.07V16.49h3.08V13.41h18.46v3.08h3.08v3.08h3.05V31.88h-3.05V35h-3.08V38h3.08v3.08h3.05v3.1h0v3h-3.08v3.05H131V47.26H128V44.18h-3.07V41.11H121.8v6.15h-3.08v3.08h-.61v0h-5.54V47.26h-3.08ZM91,35V16.49h3.08V13.41h6.15v3.08h3.08V35h3V47.26h-3v3.05H96.53v0H94.11V47.26H91ZM54.11,28.8V16.49h3.07V13.41h9.23v3.08h3.08V35h3.08V25.72h3.07V19.57h3.08V16.49h6.16v3.08h3.05V31.88H84.88V38H81.8v6.15H78.72v3.08H75.64v3.08H68.88v0H63.34V47.26H60.26V41.11H57.18V28.8ZM87.32,72v3h0v6.18H84.24v6.15H81.17v3.08H59.63V87.26H56.55V81.11H53.47V59.57h3.08V53.41h9.23v3.08h3.08v9.23H65.78V75h3.08V78h3.07V75H75V68.8H71.93V59.57H75V56.49h6.16v3.08h3.07v6.15h3.08Zm33.85,7.65v4.58h-3.08v3.08h-6.15v3.08H93.47V87.26H90.4V78h3.07V75h6.16V71.88H96.55V68.8H93.47V59.57h3.08V56.49h3.08V53.41H115v3.08h3.06v6.16H115v3.07h-6.15V68.8H115v3.08h3.06v0h0v3h3v0h0Zm33.82-20v3h-3.05v3.07h-6.16V78h3.08v9.23h-3.08v3.08h-9.23V84.18h-3.08V68.8H130.4v3.08h-6.16V68.8h-3.07V59.57h3.07V56.49h6.16V53.41h21.54v3.08H155v3.06h0Zm30.77-.09v3.1h-3v3.07H170.4V68.8h9.23V75h-3.08V78h-9.23v3.08h15.36v6.15h-3.05v3.08H158.09V87.26H155V71.88h3.08V62.65h3.08V56.49h3.08V53.41h18.46v3.08h3.07v3.06Zm33.87,6.24v6.09h-3.08V75h-3.07V78h3.07v3.08h3.06v6.15h-3.06v3.08h-9.23V87.26h-3.07V84.18h-3.08V81.11h-3.08v6.15H195v3.08h-6.15V87.26h-3.08V71.88h3.08V62.65h3.08V56.49H195V53.41h18.47v3.08h3.07v3.08h3.08Zm33.85,15.39v3H250.4v3.08h-6.15v3.08H225.79V87.26h-3.08V78h3.08V75h6.15V71.88h-3.08V68.8h-3.07V59.57h3.07V56.49h3.08V53.41h15.38v3.08h3.08v6.16h-3.08v3.07h-6.15V68.8h6.15v3.08h3.08V75h3.08Z"/><rect class="cls-5" x="231.94" y="74.95" width="6.15" height="3.08"/><polygon class="cls-5" points="241.17 62.65 238.09 62.65 238.09 62.69 238.09 65.72 241.17 65.72 241.17 62.69 241.17 62.65"/></g><g id="Layer_5" data-name="Layer 5"><g class="cls-6"><rect class="cls-7" x="54.11" y="38.03" width="160" height="14.69"/><rect class="cls-8" x="54.11" y="19.57" width="160" height="18.46"/><rect class="cls-4" x="109.49" y="28.8" width="3.08" height="3.08"/><rect class="cls-4" x="97.18" y="28.8" width="3.08" height="3.08"/><rect class="cls-4" x="84.88" y="28.8" width="3.08" height="3.08"/><rect class="cls-4" x="72.57" y="28.8" width="3.08" height="3.08"/><rect class="cls-4" x="60.26" y="28.8" width="3.08" height="3.08"/><rect class="cls-4" x="121.8" y="28.8" width="3.08" height="3.08"/><rect class="cls-4" x="134.11" y="28.8" width="3.08" height="3.08"/><rect class="cls-4" x="146.41" y="28.8" width="3.08" height="3.08"/><rect class="cls-4" x="158.72" y="28.8" width="3.08" height="3.08"/><rect class="cls-4" x="171.03" y="28.8" width="3.08" height="3.08"/><rect class="cls-4" x="183.34" y="28.8" width="3.08" height="3.08"/><rect class="cls-4" x="195.64" y="28.8" width="3.08" height="3.08"/><rect class="cls-4" x="207.95" y="28.8" width="3.08" height="3.08"/><rect class="cls-4" x="115.65" y="25.72" width="3.08" height="3.08"/><rect class="cls-4" x="103.34" y="25.72" width="3.08" height="3.08"/><rect class="cls-4" x="91.03" y="25.72" width="3.08" height="3.08"/><rect class="cls-4" x="78.72" y="25.72" width="3.08" height="3.08"/><rect class="cls-4" x="66.42" y="25.72" width="3.08" height="3.08"/><rect class="cls-4" x="54.11" y="25.72" width="3.08" height="3.08"/><rect class="cls-4" x="127.95" y="25.72" width="3.08" height="3.08"/><rect class="cls-4" x="140.26" y="25.72" width="3.08" height="3.08"/><rect class="cls-4" x="152.57" y="25.72" width="3.08" height="3.08"/><rect class="cls-4" x="164.87" y="25.72" width="3.08" height="3.08"/><rect class="cls-4" x="177.18" y="25.72" width="3.08" height="3.08"/><rect class="cls-4" x="189.49" y="25.72" width="3.08" height="3.08"/><rect class="cls-4" x="201.8" y="25.72" width="3.08" height="3.08"/><rect class="cls-4" x="118.72" y="22.65" width="3.08" height="3.08"/><rect class="cls-4" x="112.57" y="22.65" width="3.08" height="3.08"/><rect class="cls-4" x="106.42" y="22.65" width="3.08" height="3.08"/><rect class="cls-4" x="100.26" y="22.65" width="3.08" height="3.08"/><rect class="cls-4" x="94.11" y="22.65" width="3.08" height="3.08"/><rect class="cls-4" x="87.95" y="22.65" width="3.08" height="3.08"/><rect class="cls-4" x="81.8" y="22.65" width="3.08" height="3.08"/><rect class="cls-4" x="75.65" y="22.65" width="3.08" height="3.08"/><rect class="cls-4" x="69.49" y="22.65" width="3.08" height="3.08"/><rect class="cls-4" x="63.34" y="22.65" width="3.08" height="3.08"/><rect class="cls-4" x="57.19" y="22.65" width="3.08" height="3.08"/><rect class="cls-4" x="51.03" y="22.65" width="3.08" height="3.08"/><rect class="cls-4" x="124.88" y="22.65" width="3.08" height="3.08"/><rect class="cls-4" x="131.03" y="22.65" width="3.08" height="3.08"/><rect class="cls-4" x="137.18" y="22.65" width="3.08" height="3.08"/><rect class="cls-4" x="143.34" y="22.65" width="3.08" height="3.08"/><rect class="cls-4" x="149.49" y="22.65" width="3.08" height="3.08"/><rect class="cls-4" x="155.64" y="22.65" width="3.08" height="3.08"/><rect class="cls-4" x="161.8" y="22.65" width="3.08" height="3.08"/><rect class="cls-4" x="167.95" y="22.65" width="3.08" height="3.08"/><rect class="cls-4" x="174.1" y="22.65" width="3.08" height="3.08"/><rect class="cls-4" x="180.26" y="22.65" width="3.08" height="3.08"/><rect class="cls-4" x="186.41" y="22.65" width="3.08" height="3.08"/><rect class="cls-4" x="192.57" y="22.65" width="3.08" height="3.08"/><rect class="cls-4" x="198.72" y="22.65" width="3.08" height="3.08"/><rect class="cls-4" x="204.87" y="22.65" width="3.08" height="3.08"/><rect class="cls-4" x="211.03" y="22.65" width="3.08" height="3.08"/><rect class="cls-4" x="115.65" y="19.57" width="3.08" height="3.08"/><rect class="cls-4" x="109.49" y="19.57" width="3.08" height="3.08"/><rect class="cls-4" x="103.34" y="19.57" width="3.08" height="3.08"/><rect class="cls-4" x="97.18" y="19.57" width="3.08" height="3.08"/><rect class="cls-4" x="91.03" y="19.57" width="3.08" height="3.08"/><rect class="cls-4" x="84.88" y="19.57" width="3.08" height="3.08"/><rect class="cls-4" x="78.72" y="19.57" width="3.08" height="3.08"/><rect class="cls-4" x="72.57" y="19.57" width="3.08" height="3.08"/><rect class="cls-4" x="66.42" y="19.57" width="3.08" height="3.08"/><rect class="cls-4" x="60.26" y="19.57" width="3.08" height="3.08"/><rect class="cls-4" x="54.11" y="19.57" width="3.08" height="3.08"/><rect class="cls-4" x="121.8" y="19.57" width="3.08" height="3.08"/><rect class="cls-4" x="127.95" y="19.57" width="3.08" height="3.08"/><rect class="cls-4" x="134.11" y="19.57" width="3.08" height="3.08"/><rect class="cls-4" x="140.26" y="19.57" width="3.08" height="3.08"/><rect class="cls-4" x="146.41" y="19.57" width="3.08" height="3.08"/><rect class="cls-4" x="152.57" y="19.57" width="3.08" height="3.08"/><rect class="cls-4" x="158.72" y="19.57" width="3.08" height="3.08"/><rect class="cls-4" x="164.87" y="19.57" width="3.08" height="3.08"/><rect class="cls-4" x="171.03" y="19.57" width="3.08" height="3.08"/><rect class="cls-4" x="177.18" y="19.57" width="3.08" height="3.08"/><rect class="cls-4" x="183.34" y="19.57" width="3.08" height="3.08"/><rect class="cls-4" x="189.49" y="19.57" width="3.08" height="3.08"/><rect class="cls-4" x="195.64" y="19.57" width="3.08" height="3.08"/><rect class="cls-4" x="201.8" y="19.57" width="3.08" height="3.08"/><rect class="cls-4" x="207.95" y="19.57" width="3.08" height="3.08"/><rect class="cls-8" x="109.49" y="47.26" width="3.08" height="3.08"/><rect class="cls-8" x="97.18" y="47.26" width="3.08" height="3.08"/><rect class="cls-8" x="84.88" y="47.26" width="3.08" height="3.08"/><rect class="cls-8" x="72.57" y="47.26" width="3.08" height="3.08"/><rect class="cls-8" x="60.26" y="47.26" width="3.08" height="3.08"/><rect class="cls-8" x="121.8" y="47.26" width="3.08" height="3.08"/><rect class="cls-8" x="134.11" y="47.26" width="3.08" height="3.08"/><rect class="cls-8" x="146.41" y="47.26" width="3.08" height="3.08"/><rect class="cls-8" x="158.72" y="47.26" width="3.08" height="3.08"/><rect class="cls-8" x="171.03" y="47.26" width="3.08" height="3.08"/><rect class="cls-8" x="183.34" y="47.26" width="3.08" height="3.08"/><rect class="cls-8" x="195.64" y="47.26" width="3.08" height="3.08"/><rect class="cls-8" x="207.95" y="47.26" width="3.08" height="3.08"/><rect class="cls-8" x="115.65" y="44.18" width="3.08" height="3.08"/><rect class="cls-8" x="103.34" y="44.18" width="3.08" height="3.08"/><rect class="cls-8" x="91.03" y="44.18" width="3.08" height="3.08"/><rect class="cls-8" x="78.72" y="44.18" width="3.08" height="3.08"/><rect class="cls-8" x="66.42" y="44.18" width="3.08" height="3.08"/><rect class="cls-8" x="54.11" y="44.18" width="3.08" height="3.08"/><rect class="cls-8" x="127.95" y="44.18" width="3.08" height="3.08"/><rect class="cls-8" x="140.26" y="44.18" width="3.08" height="3.08"/><rect class="cls-8" x="152.57" y="44.18" width="3.08" height="3.08"/><rect class="cls-8" x="164.87" y="44.18" width="3.08" height="3.08"/><rect class="cls-8" x="177.18" y="44.18" width="3.08" height="3.08"/><rect class="cls-8" x="189.49" y="44.18" width="3.08" height="3.08"/><rect class="cls-8" x="201.8" y="44.18" width="3.08" height="3.08"/><rect class="cls-8" x="118.72" y="41.11" width="3.08" height="3.08"/><rect class="cls-8" x="112.57" y="41.11" width="3.08" height="3.08"/><rect class="cls-8" x="106.42" y="41.11" width="3.08" height="3.08"/><rect class="cls-8" x="100.26" y="41.11" width="3.08" height="3.08"/><rect class="cls-8" x="94.11" y="41.11" width="3.08" height="3.08"/><rect class="cls-8" x="87.95" y="41.11" width="3.08" height="3.08"/><rect class="cls-8" x="81.8" y="41.11" width="3.08" height="3.08"/><rect class="cls-8" x="75.65" y="41.11" width="3.08" height="3.08"/><rect class="cls-8" x="69.49" y="41.11" width="3.08" height="3.08"/><rect class="cls-8" x="63.34" y="41.11" width="3.08" height="3.08"/><rect class="cls-8" x="57.19" y="41.11" width="3.08" height="3.08"/><rect class="cls-8" x="51.03" y="41.11" width="3.08" height="3.08"/><rect class="cls-8" x="124.88" y="41.11" width="3.08" height="3.08"/><rect class="cls-8" x="131.03" y="41.11" width="3.08" height="3.08"/><rect class="cls-8" x="137.18" y="41.11" width="3.08" height="3.08"/><rect class="cls-8" x="143.34" y="41.11" width="3.08" height="3.08"/><rect class="cls-8" x="149.49" y="41.11" width="3.08" height="3.08"/><rect class="cls-8" x="155.64" y="41.11" width="3.08" height="3.08"/><rect class="cls-8" x="161.8" y="41.11" width="3.08" height="3.08"/><rect class="cls-8" x="167.95" y="41.11" width="3.08" height="3.08"/><rect class="cls-8" x="174.1" y="41.11" width="3.08" height="3.08"/><rect class="cls-8" x="180.26" y="41.11" width="3.08" height="3.08"/><rect class="cls-8" x="186.41" y="41.11" width="3.08" height="3.08"/><rect class="cls-8" x="192.57" y="41.11" width="3.08" height="3.08"/><rect class="cls-8" x="198.72" y="41.11" width="3.08" height="3.08"/><rect class="cls-8" x="204.87" y="41.11" width="3.08" height="3.08"/><rect class="cls-8" x="211.03" y="41.11" width="3.08" height="3.08"/><rect class="cls-8" x="115.65" y="38.03" width="3.08" height="3.08"/><rect class="cls-8" x="109.49" y="38.03" width="3.08" height="3.08"/><rect class="cls-8" x="103.34" y="38.03" width="3.08" height="3.08"/><rect class="cls-8" x="97.18" y="38.03" width="3.08" height="3.08"/><rect class="cls-8" x="91.03" y="38.03" width="3.08" height="3.08"/><rect class="cls-8" x="84.88" y="38.03" width="3.08" height="3.08"/><rect class="cls-8" x="78.72" y="38.03" width="3.08" height="3.08"/><rect class="cls-8" x="72.57" y="38.03" width="3.08" height="3.08"/><rect class="cls-8" x="66.42" y="38.03" width="3.08" height="3.08"/><rect class="cls-8" x="60.26" y="38.03" width="3.08" height="3.08"/><rect class="cls-8" x="54.11" y="38.03" width="3.08" height="3.08"/><rect class="cls-8" x="121.8" y="38.03" width="3.08" height="3.08"/><rect class="cls-8" x="127.95" y="38.03" width="3.08" height="3.08"/><rect class="cls-8" x="134.11" y="38.03" width="3.08" height="3.08"/><rect class="cls-8" x="140.26" y="38.03" width="3.08" height="3.08"/><rect class="cls-8" x="146.41" y="38.03" width="3.08" height="3.08"/><rect class="cls-8" x="152.57" y="38.03" width="3.08" height="3.08"/><rect class="cls-8" x="158.72" y="38.03" width="3.08" height="3.08"/><rect class="cls-8" x="164.87" y="38.03" width="3.08" height="3.08"/><rect class="cls-8" x="171.03" y="38.03" width="3.08" height="3.08"/><rect class="cls-8" x="177.18" y="38.03" width="3.08" height="3.08"/><rect class="cls-8" x="183.34" y="38.03" width="3.08" height="3.08"/><rect class="cls-8" x="189.49" y="38.03" width="3.08" height="3.08"/><rect class="cls-8" x="195.64" y="38.03" width="3.08" height="3.08"/><rect class="cls-8" x="201.8" y="38.03" width="3.08" height="3.08"/><rect class="cls-8" x="207.95" y="38.03" width="3.08" height="3.08"/></g></g></svg>