<svg xmlns="http://www.w3.org/2000/svg" xmlns:xlink="http://www.w3.org/1999/xlink" viewBox="0 0 76.56 76.56"><defs><style>.cls-1{fill:#fff;}.cls-2{fill:#ff004d;}.cls-3{fill:#fff1e8;}.cls-4{fill:#422136;}.cls-5{mask:url(#mask);}.cls-6{fill:#7e2553;}.cls-7{fill:#be1250;}</style><mask id="mask" x="6.67" y="14.7" width="160.41" height="38.67" maskUnits="userSpaceOnUse"><path class="cls-1" d="M12.72,17.73v-3H21.8v3h3V35.89h3V26.81h3V20.75h3v-3H40v3h3V32.86H40v6h-3V45h-3v3h-3v3H18.77V48h-3V41.94h-3V29.83h-3V17.73Z"/></mask></defs><g id="Logo"><polygon class="cls-2" points="16.49 53.3 16.49 50.28 13.46 50.28 13.46 44.22 10.43 44.22 10.43 32.12 7.41 32.12 7.41 15.44 10.43 15.44 10.43 12.41 24.09 12.41 24.09 15.44 27.11 15.44 27.11 24.52 28.59 24.52 28.59 18.47 31.62 18.47 31.62 15.44 42.25 15.44 42.25 18.47 45.27 18.47 45.27 35.14 42.25 35.14 42.25 41.2 39.22 41.2 39.22 47.25 36.19 47.25 36.19 50.28 33.16 50.28 33.16 53.3 16.49 53.3"/><path class="cls-3" d="M21.8,14.7v3h3V35.89h3V26.81h3V20.75h3v-3H40v3h3V32.86H40v6h-3V45h-3v3h-3v3H18.77V48h-3V41.94h-3V29.83h-3V17.73h3v-3H21.8m4.57-4.57H8.15v3h-3V34.4h3V46.51h3v6.05h3v3H35.45v-3h3v-3h3V43.48h3v-6h3V16.18h-3v-3H26.37v-3Z"/><path class="cls-4" d="M34.72,65V62h-3V42.39h3V33.31h3V27.25h3v-3H57.31v3h6v3h3V45.41h3V62h-6v3ZM49.85,51.47V49.84H48.23v1.63Z"/><path class="cls-3" d="M55.09,26.44v3h6.06v3h3v9.08h-3v3h3v3h3V59.74H61.15v3H36.93v-3h-3V44.6h3V35.52h3V29.47h3v-3h12.1M46,41.57h6.06v-6H49v3H46v3m0,12.11h6.06v-6H46v6M59.52,22h-21v3h-3v6.05h-3v9.08h-3v24h3v3H65.57v-3h6.06v-21h-3V28.07h-3V25h-6V22Z"/></g><g id="Texture"><g class="cls-5"><rect class="cls-6" x="9.69" y="38.91" width="157.39" height="14.45"/><rect class="cls-7" x="9.69" y="20.75" width="157.39" height="18.16"/><rect class="cls-2" x="64.17" y="29.83" width="3.03" height="3.03"/><rect class="cls-2" x="52.07" y="29.83" width="3.03" height="3.03"/><rect class="cls-2" x="39.96" y="29.83" width="3.03" height="3.03"/><rect class="cls-2" x="27.85" y="29.83" width="3.03" height="3.03"/><rect class="cls-2" x="15.75" y="29.83" width="3.03" height="3.03"/><rect class="cls-2" x="76.28" y="29.83" width="3.03" height="3.03"/><rect class="cls-2" x="70.22" y="26.81" width="3.03" height="3.03"/><rect class="cls-2" x="58.12" y="26.81" width="3.03" height="3.03"/><rect class="cls-2" x="46.01" y="26.81" width="3.03" height="3.03"/><rect class="cls-2" x="33.91" y="26.81" width="3.03" height="3.03"/><rect class="cls-2" x="21.8" y="26.81" width="3.03" height="3.03"/><rect class="cls-2" x="9.69" y="26.81" width="3.03" height="3.03"/><rect class="cls-2" x="73.25" y="23.78" width="3.03" height="3.03"/><rect class="cls-2" x="67.2" y="23.78" width="3.03" height="3.03"/><rect class="cls-2" x="61.14" y="23.78" width="3.03" height="3.03"/><rect class="cls-2" x="55.09" y="23.78" width="3.03" height="3.03"/><rect class="cls-2" x="49.04" y="23.78" width="3.03" height="3.03"/><rect class="cls-2" x="42.99" y="23.78" width="3.03" height="3.03"/><rect class="cls-2" x="36.93" y="23.78" width="3.03" height="3.03"/><rect class="cls-2" x="30.88" y="23.78" width="3.03" height="3.03"/><rect class="cls-2" x="24.83" y="23.78" width="3.03" height="3.03"/><rect class="cls-2" x="18.77" y="23.78" width="3.03" height="3.03"/><rect class="cls-2" x="12.72" y="23.78" width="3.03" height="3.03"/><rect class="cls-2" x="6.67" y="23.78" width="3.03" height="3.03"/><rect class="cls-2" x="70.22" y="20.75" width="3.03" height="3.03"/><rect class="cls-2" x="64.17" y="20.75" width="3.03" height="3.03"/><rect class="cls-2" x="58.12" y="20.75" width="3.03" height="3.03"/><rect class="cls-2" x="52.07" y="20.75" width="3.03" height="3.03"/><rect class="cls-2" x="46.01" y="20.75" width="3.03" height="3.03"/><rect class="cls-2" x="39.96" y="20.75" width="3.03" height="3.03"/><rect class="cls-2" x="33.91" y="20.75" width="3.03" height="3.03"/><rect class="cls-2" x="27.85" y="20.75" width="3.03" height="3.03"/><rect class="cls-2" x="21.8" y="20.75" width="3.03" height="3.03"/><rect class="cls-2" x="15.75" y="20.75" width="3.03" height="3.03"/><rect class="cls-2" x="9.69" y="20.75" width="3.03" height="3.03"/><rect class="cls-2" x="76.28" y="20.75" width="3.03" height="3.03"/><rect class="cls-7" x="64.17" y="47.99" width="3.03" height="3.03"/><rect class="cls-7" x="52.07" y="47.99" width="3.03" height="3.03"/><rect class="cls-7" x="39.96" y="47.99" width="3.03" height="3.03"/><rect class="cls-7" x="27.85" y="47.99" width="3.03" height="3.03"/><rect class="cls-7" x="15.75" y="47.99" width="3.03" height="3.03"/><rect class="cls-7" x="76.28" y="47.99" width="3.03" height="3.03"/><rect class="cls-7" x="70.22" y="44.97" width="3.03" height="3.03"/><rect class="cls-7" x="58.12" y="44.97" width="3.03" height="3.03"/><rect class="cls-7" x="46.01" y="44.97" width="3.03" height="3.03"/><rect class="cls-7" x="33.91" y="44.97" width="3.03" height="3.03"/><rect class="cls-7" x="21.8" y="44.97" width="3.03" height="3.03"/><rect class="cls-7" x="9.69" y="44.97" width="3.03" height="3.03"/><rect class="cls-7" x="73.25" y="41.94" width="3.03" height="3.03"/><rect class="cls-7" x="67.2" y="41.94" width="3.03" height="3.03"/><rect class="cls-7" x="61.14" y="41.94" width="3.03" height="3.03"/><rect class="cls-7" x="55.09" y="41.94" width="3.03" height="3.03"/><rect class="cls-7" x="49.04" y="41.94" width="3.03" height="3.03"/><rect class="cls-7" x="42.99" y="41.94" width="3.03" height="3.03"/><rect class="cls-7" x="36.93" y="41.94" width="3.03" height="3.03"/><rect class="cls-7" x="30.88" y="41.94" width="3.03" height="3.03"/><rect class="cls-7" x="24.83" y="41.94" width="3.03" height="3.03"/><rect class="cls-7" x="18.77" y="41.94" width="3.03" height="3.03"/><rect class="cls-7" x="12.72" y="41.94" width="3.03" height="3.03"/><rect class="cls-7" x="6.67" y="41.94" width="3.03" height="3.03"/><rect class="cls-7" x="70.22" y="38.91" width="3.03" height="3.03"/><rect class="cls-7" x="64.17" y="38.91" width="3.03" height="3.03"/><rect class="cls-7" x="58.12" y="38.91" width="3.03" height="3.03"/><rect class="cls-7" x="52.07" y="38.91" width="3.03" height="3.03"/><rect class="cls-7" x="46.01" y="38.91" width="3.03" height="3.03"/><rect class="cls-7" x="39.96" y="38.91" width="3.03" height="3.03"/><rect class="cls-7" x="33.91" y="38.91" width="3.03" height="3.03"/><rect class="cls-7" x="27.85" y="38.91" width="3.03" height="3.03"/><rect class="cls-7" x="21.8" y="38.91" width="3.03" height="3.03"/><rect class="cls-7" x="15.75" y="38.91" width="3.03" height="3.03"/><rect class="cls-7" x="9.69" y="38.91" width="3.03" height="3.03"/><rect class="cls-7" x="76.28" y="38.91" width="3.03" height="3.03"/></g></g></svg>