<svg xmlns="http://www.w3.org/2000/svg" xmlns:xlink="http://www.w3.org/1999/xlink" viewBox="0 0 593.01 247.8"><defs><style>.cls-1{fill:#fff;}.cls-2{fill:#ad5434;}.cls-3{fill:none;}.cls-4{fill:#4a2317;}.cls-5{fill:#f9f299;}.cls-6{mask:url(#mask);}.cls-7{fill:#ef9a00;}.cls-8{fill:#ffc30a;}</style><mask id="mask" x="124.29" y="32.39" width="334.63" height="80.6" maskUnits="userSpaceOnUse"><path class="cls-1" d="M136.9,38.7V32.39h18.93V38.7h6.31V76.55h6.31V57.63h6.31V45h6.31V38.7h12.62V45H200V70.25h-6.31V82.86h-6.31V95.48h-6.31v6.31h-6.31v6.31H149.52v-6.31h-6.31V89.17H136.9V63.94h-6.31V38.7Z"/><path class="cls-1" d="M212.62,38.7V32.39h12.62V38.7h6.31V76.55h6.31v25.24h-6.31v6.31H212.62v-6.31h-6.31V38.7Z"/><path class="cls-1" d="M263.1,38.7V32.39H301V38.7h6.31V45h6.31V70.25h-6.31v6.3H301v6.31h6.31v6.31h6.31v12.62h-6.31v6.31H288.34v-6.31H282V95.48h-6.31V89.17h-6.31v12.62H263.1v6.31H250.48v-6.31h-6.31V70.25h6.31V51.32h6.31V38.7Zm25.24,12.62H275.72v6.31h-6.31V70.25H282V63.94h6.31Z"/><path class="cls-1" d="M326.2,45V32.39h18.92V38.7h6.31V57.63h-6.31V76.55h6.31v6.31h6.31V76.55h6.31V63.94h-6.31V45h6.31V38.7h12.62V45H383V57.63h6.31V89.17H383v12.62h-6.31v6.31H332.51v-6.31H326.2V89.17h-6.31V45Z"/><path class="cls-1" d="M414.53,38.7V32.39h31.55V38.7h6.31V51.32h-6.31v6.31H433.46V51.32h-6.31v6.31h6.31v6.31h12.62v6.31h6.31v6.3h6.31V95.48h-6.31v6.31H439.77v6.31H401.92v-6.31h-6.31V82.86h6.31V76.55h12.61v6.31h12.62V76.55H414.53v-6.3h-6.3V63.94h-6.31V45h6.31V38.7Z"/></mask></defs><g id="Texture"><polygon class="cls-2" points="211.27 114.47 206.26 114.47 206.26 108.16 199.95 108.16 199.95 101.8 199.95 89.23 193.74 89.23 193.74 95.49 193.74 101.85 187.43 101.85 187.43 108.16 181.12 108.16 181.12 114.38 186.08 114.38 192.44 114.38 192.44 120.69 198.75 120.69 198.75 127.04 198.75 133.31 204.96 133.31 204.96 127.04 204.96 120.69 211.27 120.69 211.27 114.47"/><polygon class="cls-2" points="269.45 114.38 274.42 114.38 280.68 114.38 280.68 108.16 275.76 108.16 269.45 108.16 269.45 114.38"/><polygon class="cls-2" points="542.58 183.88 539.48 183.88 539.48 190.19 539.45 190.19 533.12 190.19 526.86 190.19 526.86 196.5 520.5 196.5 482.64 196.5 476.35 196.5 476.3 196.5 476.29 196.5 476.29 190.19 473.23 190.19 473.17 190.19 470.1 190.19 470.07 190.19 470.07 196.5 470.04 196.5 463.71 196.5 444.79 196.5 438.43 196.5 438.43 190.19 432.21 190.19 425.9 190.19 425.9 190.23 425.9 196.5 425.87 196.5 419.54 196.5 406.93 196.5 400.63 196.5 400.58 196.5 400.57 196.5 400.57 190.19 397.51 190.19 397.45 190.19 394.38 190.19 394.36 190.19 394.36 196.5 394.32 196.5 388 196.5 343.83 196.5 337.54 196.5 337.47 196.5 337.47 190.19 334.41 190.19 331.17 190.19 331.16 190.19 330.88 190.19 328.05 190.19 324.95 190.19 324.95 196.5 324.92 196.5 318.59 196.5 299.66 196.5 293.37 196.5 293.3 196.5 293.3 190.14 293.3 183.88 290.24 183.88 287.57 183.88 287.57 158.64 273.89 158.64 273.89 183.88 271.26 183.88 268.16 183.88 268.16 190.19 268.13 190.19 261.8 190.19 255.54 190.19 255.54 196.5 249.18 196.5 211.32 196.5 205.03 196.5 204.96 196.5 204.96 196.49 204.96 190.19 201.9 190.19 201.85 190.19 198.78 190.19 198.75 190.19 198.72 190.19 198.65 190.19 192.44 190.19 192.44 190.23 192.44 196.5 192.41 196.5 186.08 196.5 141.91 196.5 135.62 196.5 135.56 196.5 135.56 190.23 135.56 190.19 129.34 190.19 129.31 190.19 129.26 190.19 129.25 190.19 126.18 190.19 126.13 190.19 123.06 190.19 123 190.19 122.98 190.19 116.72 190.19 116.72 196.5 110.36 196.5 59.88 196.5 53.59 196.5 53.53 196.5 53.53 190.19 50.47 190.19 47.34 190.19 47.34 202.85 47.34 209.11 53.59 209.11 53.65 209.11 53.65 209.16 53.65 215.42 59.9 215.42 110.38 215.42 116.64 215.42 116.64 209.16 116.64 209.11 135.62 209.11 135.68 209.11 135.68 209.16 135.68 215.42 141.93 215.42 186.1 215.42 192.35 215.42 192.35 209.16 192.35 209.11 192.41 209.11 205.03 209.11 205.09 209.11 205.09 209.16 205.09 215.42 211.34 215.42 249.2 215.42 255.45 215.42 255.45 209.16 255.45 209.11 261.82 209.11 268.07 209.11 268.07 202.85 268.07 202.8 268.13 202.8 274.38 202.8 274.38 196.54 274.38 196.5 287.11 196.5 287.11 196.54 287.11 202.8 293.37 202.8 293.42 202.8 293.42 209.16 293.42 215.42 299.68 215.42 318.61 215.42 324.86 215.42 324.86 209.16 324.86 209.11 324.92 209.11 330.88 209.11 331.17 209.11 337.54 209.11 337.59 209.11 337.59 209.16 337.59 215.42 343.85 215.42 388.02 215.42 394.27 215.42 394.27 209.16 394.27 209.11 394.32 209.11 394.38 209.11 400.58 209.11 400.63 209.11 400.69 209.11 400.69 209.16 400.69 215.42 406.94 215.42 419.56 215.42 425.82 215.42 425.82 209.16 425.82 209.11 425.87 209.11 438.49 209.11 438.55 209.11 438.55 209.16 438.55 215.42 444.8 215.42 463.73 215.42 469.99 215.42 469.99 209.16 469.99 209.11 470.04 209.11 470.1 209.11 476.3 209.11 476.35 209.11 476.41 209.11 476.41 209.16 476.41 215.42 482.66 215.42 520.52 215.42 526.78 215.42 526.78 209.16 526.78 209.11 533.14 209.11 539.39 209.11 539.39 202.85 539.39 202.8 539.45 202.8 545.71 202.8 545.71 196.54 545.71 183.88 542.58 183.88"/><path class="cls-2" d="M545.79,177.52v6.36h-6.32v6.31H526.86v6.3H476.29v-6.3h-6.21v6.3H438.44v-6.3H425.91v6.3H400.56v-6.3h-6.21v6.3H337.46v-6.3H325v6.3H293.29V183.88H287V158.63H274.47v25.25h-6.32v6.31H255.54v6.3H205v-6.3H192.44v6.3H135.56v-6.3H116.71v6.3H53.53v-6.3H47.21V145.92h6.32V127h6.32V114.38h6.29v-6.31h38v6.31h12.61v6.3h12.53V108.07h7.61V95.54h-6.32V70.29h-6.29V32.36h6.29V26h31.66v6.32h6.3v6.29h6.21V32.36h31.56V26h25.33v6.32h6.31V63.89h6.22V45h6.31V32.36h6.3V26h50.59v6.32h6.29v6.29h6.22V26h31.66v6.32H383v6.29h6.31V51.28h6.22V38.65h6.31V32.36h6.3V26h44.27v6.32h6.3V57.68h-6.3v6.21h6.3v6.32h6.31v31.64h-6.31v6.22h5v6.31h6.32v6.3h12.51v-6.3h6.31v-6.31h44.28v6.31h6.29v25.33h-6.29v6.21h6.29v6.32h6.32v25.28Zm-6.36,0V158.59h-6.32v-6.31h-6.29V146H514.19v-6.31h12.63v-6.32h6.29V120.74h-6.29v-6.32H495.26v6.32h-6.32V127h-6.29V146h6.29v6.3h6.32v6.31H482.65v6.32h-6.32v18.93h6.32v6.29H520.5v-6.29h12.61v-6.32h6.32ZM470,152.28V127h-6.3v-6.29H457.4v-6.32H419.55v6.32h-6.32v12.61h-6.31v18.93h-6.3v31.56h6.3v6.29h12.63v-6.29h6.3V171.21h6.31v6.31h6.32v6.32h6.31v6.29h18.93v-6.29H470V171.21h-6.26v-6.3H457.4v-6.32h6.32v-6.31ZM458.7,95.5V76.57h-6.32V70.25h-6.29V63.94H433.45v-6.3h12.64V51.32h6.29V38.71h-6.29V32.4H414.53v6.31h-6.3V45h-6.32V63.94h6.32v6.31h6.3v6.32H401.91v6.31H395.6v18.93h6.31v6.3h11.28v0h26.58v-6.26h12.61V95.5ZM400.62,127v-6.25h-6.31v-6.32H356.45v6.32h-6.31v12.61h-6.32v18.93h-6.3v31.56h6.3v6.29H388v-6.29h6.28V171.21H362.75v-6.3H381.7v-6.32H388V146H369.06v-6.31h25.25v-6.32h6.25V127ZM389.28,76.53V57.64H383V45h-6.32v-6.3H364.06V45h-6.32V63.94h6.32V76.57h-6.32v6.31h-6.31V76.57h-6.3V57.64h6.3V38.71h-6.3V32.4H326.18V45h-6.29V89.18h6.29v12.63h6.32v6.26h5.07v0h12.52v0h26.58v-6.26H383V89.18h6.25V76.53ZM337.52,127v-6.25h-6.31v-6.32H287v6.32H274.43V127h-6.32V146h6.32v6.3H287V146h6.31v31.54h6.3v12.61h19v-6.29h6.29V164.91H318.6V139.67h12.61v-6.32h6.25V127Zm-23.95-25.18V95.54h0V89.18h-6.27v-6.3H301V76.57h6.3V70.25h6.27V45h-6.27v-6.3H301V32.4H263.09v6.31h-6.3V51.32h-6.32V70.25h-6.31v31.56h6.31v6.26h11.39v0h1.23v-6.3h6.31V89.18h6.32V95.5H282v6.31h6.3v6.26h18.93v-6.26Zm-45.46,75.71V158.63h0v0h-6.28v-6.25h0v-.06H255.5V146H242.87v-6.31H255.5v-6.32h6.25V120.74H255.5v-6.32H223.94v6.32h-6.32V127h-6.29V146h6.29v6.3h6.32v6.31H211.33v6.32H205v18.93h6.32v6.29h37.85v-6.29h12.61v-6.32h6.32ZM237.8,101.81V76.57h-6.25V38.71h-6.32V32.4H212.62v6.31H206.3v63.1h6.32v6.3h5v0h14v-6.26ZM200,70.25V45h-6.26v-6.3H181.06V45h-6.3V57.64h-6.31V76.57h-6.32V38.71h-6.29V32.4h-19v6.31h-6.3V63.94h6.3V89.18h6.31v12.63h6.32v6.26h11.36v0h13.88v-6.3h6.3V95.5h6.32V82.88h6.31V70.25Zm-1.25,88.3V139.67h-6.3V127h-6.32v-6.29H173.45V127h-6.29V146h6.29v12.61h-6.29v6.32h-6.32v-6.32h-6.32V139.67h6.32V120.74h-6.32v-6.32H135.6V127h-6.3v44.18h6.3v12.63h6.31v6.29h44.17v-6.29h6.32V171.21h6.25V158.55ZM123,183.84v-6.28h0v-19h-6.27v-6.31h-6.32V146h6.32V127h-6.32v-6.29H97.74v-6.32H72.5v6.32H66.2v12.61H59.89v18.93H53.57v31.56h6.32v6.29h50.46v-6.29Z"/><polygon class="cls-2" points="539.43 174.49 539.43 177.52 533.13 177.52 533.12 177.52 533.12 183.84 520.5 183.84 520.5 190.13 482.65 190.13 482.65 183.92 482.65 183.84 476.37 183.84 476.33 183.84 476.33 180.8 476.33 177.66 476.33 164.91 476.37 164.91 476.41 164.91 479.53 164.91 482.65 164.91 482.65 158.59 482.67 158.59 495.26 158.59 495.26 152.28 488.94 152.28 488.94 146.06 488.94 145.98 482.65 145.98 482.65 142.93 482.65 139.81 482.65 127.03 488.94 127.03 488.94 120.74 495.26 120.74 495.26 114.42 526.82 114.42 526.82 120.74 533.12 120.74 533.12 133.35 533.09 133.35 529.96 133.35 526.82 133.35 526.82 133.45 526.82 139.67 514.19 139.67 514.19 145.98 526.82 145.98 526.82 152.28 533.12 152.28 533.12 152.38 533.12 155.5 533.12 158.59 539.39 158.59 539.43 158.59 539.43 171.35 539.43 174.49"/><polygon class="cls-2" points="470.02 146.06 470.02 152.28 463.72 152.28 463.72 158.59 457.4 158.59 457.4 164.91 463.72 164.91 463.72 171.21 469.98 171.21 469.98 171.31 469.98 174.43 469.98 183.84 466.86 183.84 463.72 183.84 463.72 183.92 463.72 190.13 444.79 190.13 444.79 183.84 438.48 183.84 438.48 177.52 432.16 177.52 432.16 171.31 432.16 171.21 425.87 171.21 425.85 171.21 425.85 183.84 419.55 183.84 419.55 190.13 406.92 190.13 406.92 183.84 400.66 183.84 400.64 183.84 400.62 183.84 400.62 168.17 400.62 165.05 400.62 164.85 400.62 158.63 400.62 155.5 400.62 152.38 400.62 152.28 400.64 152.28 400.68 152.28 403.76 152.28 403.82 152.28 406.9 152.28 406.92 152.28 406.92 149.24 406.92 146.13 406.92 139.71 406.92 133.35 406.98 133.35 413.23 133.35 413.23 120.74 419.55 120.74 419.55 114.46 419.55 114.42 446.13 114.42 457.4 114.42 457.4 120.74 463.72 120.74 463.72 127.03 470.02 127.03 470.02 139.81 470.02 142.93 470.02 146.06"/><polygon class="cls-2" points="458.7 76.57 458.7 95.5 452.38 95.5 452.38 101.81 439.77 101.81 439.77 108.07 419.55 108.07 413.19 108.07 413.19 108.11 401.91 108.11 401.91 101.81 395.6 101.81 395.6 95.54 395.6 82.88 395.64 82.88 401.91 82.88 401.91 76.57 414.53 76.57 414.53 70.25 408.23 70.25 408.23 63.94 401.91 63.94 401.91 45.01 408.23 45.01 408.23 38.71 414.53 38.71 414.53 32.4 446.08 32.4 446.08 38.71 452.38 38.71 452.38 51.32 446.08 51.32 446.08 57.64 433.45 57.64 433.45 63.94 446.08 63.94 446.08 70.25 452.38 70.25 452.38 76.57 458.7 76.57"/><polygon class="cls-2" points="400.62 120.74 400.62 126.99 400.56 126.99 400.56 127.2 400.56 133.35 397.44 133.35 394.31 133.35 394.31 133.45 394.31 139.67 369.06 139.67 369.06 145.98 387.99 145.98 387.99 158.59 381.69 158.59 381.69 158.68 381.69 161.81 381.69 161.88 381.69 164.91 369.08 164.91 362.75 164.91 362.75 171.21 388.01 171.21 391.15 171.21 394.26 171.21 394.26 183.84 387.99 183.84 387.99 183.86 387.99 183.98 387.99 187.1 387.99 190.13 362.77 190.13 343.82 190.13 343.82 183.84 337.55 183.84 337.52 183.84 337.52 168.17 337.52 165.05 337.52 158.63 337.52 155.5 337.52 152.38 337.52 152.28 337.55 152.28 337.59 152.28 340.66 152.28 340.72 152.28 343.8 152.28 343.82 152.28 343.82 149.24 343.82 146.13 343.82 139.71 343.82 133.35 343.88 133.35 350.14 133.35 350.14 120.74 356.45 120.74 356.45 114.46 356.45 114.42 383.03 114.42 394.31 114.42 394.31 120.74 400.62 120.74"/><polygon class="cls-2" points="389.28 57.64 389.28 76.53 389.24 76.53 389.24 82.88 389.24 89.18 382.99 89.18 382.99 101.81 376.67 101.81 376.67 108.07 356.45 108.07 350.1 108.07 350.1 108.11 337.56 108.11 337.56 108.07 332.5 108.07 332.5 101.81 326.18 101.81 326.18 89.18 319.93 89.18 319.89 89.18 319.89 82.82 319.89 76.61 319.89 45.01 319.93 45.01 326.18 45.01 326.18 32.4 345.13 32.4 345.13 38.71 351.43 38.71 351.43 57.64 345.13 57.64 345.13 76.57 351.43 76.57 351.43 82.88 357.74 82.88 357.74 76.57 364.06 76.57 364.06 63.94 357.74 63.94 357.74 45.01 364.06 45.01 364.06 38.71 376.67 38.71 376.67 45.01 382.99 45.01 382.99 57.64 389.28 57.64"/><polygon class="cls-2" points="337.52 120.74 337.52 126.99 337.46 126.99 337.46 127.2 337.46 133.35 334.35 133.35 331.21 133.35 331.21 133.45 331.21 139.67 318.6 139.67 318.6 164.91 318.62 164.91 321.73 164.91 324.89 164.91 324.89 164.93 324.89 177.66 324.89 180.8 324.89 183.84 318.62 183.84 318.6 183.84 318.6 190.13 299.65 190.13 299.65 177.52 293.37 177.52 293.35 177.52 293.35 164.99 293.35 145.98 287.04 145.98 287.04 152.28 274.47 152.28 274.43 152.28 274.43 152.24 274.43 146.06 274.43 145.98 268.15 145.98 268.11 145.98 268.11 145.92 268.11 142.93 268.11 139.81 268.11 139.71 268.11 127.03 268.15 127.03 274.43 127.03 274.43 120.74 287.04 120.74 287.04 114.46 287.04 114.42 313.61 114.42 326.14 114.42 331.21 114.42 331.21 114.46 331.21 120.74 337.52 120.74"/><polygon class="cls-2" points="313.57 95.54 313.57 101.81 307.26 101.81 307.26 108.07 288.33 108.07 288.33 101.81 282.03 101.81 282.03 95.5 275.72 95.5 275.72 89.18 269.4 89.18 269.4 101.81 263.09 101.81 263.09 108.11 261.86 108.11 261.86 108.07 255.5 108.07 250.47 108.07 250.47 101.81 244.22 101.81 244.16 101.81 244.16 70.25 244.22 70.25 250.47 70.25 250.47 51.32 256.79 51.32 256.79 38.71 263.09 38.71 263.09 32.4 300.96 32.4 300.96 38.71 307.26 38.71 307.26 45.01 313.53 45.01 313.53 70.25 307.26 70.25 307.26 76.57 300.96 76.57 300.96 82.88 307.26 82.88 307.26 89.18 313.53 89.18 313.53 95.54 313.57 95.54"/><polygon class="cls-2" points="268.11 174.49 268.11 177.52 261.81 177.52 261.79 177.52 261.79 183.84 249.18 183.84 249.18 190.13 211.33 190.13 211.33 183.92 211.33 183.84 205.01 183.84 205.01 180.8 205.01 177.66 205.01 177.56 205.01 164.91 205.05 164.91 205.09 164.91 208.21 164.91 211.33 164.91 211.33 158.59 211.35 158.59 223.94 158.59 223.94 152.28 217.62 152.28 217.62 146.06 217.62 145.98 211.33 145.98 211.33 142.93 211.33 139.81 211.33 127.03 217.62 127.03 217.62 120.74 223.94 120.74 223.94 114.46 223.94 114.42 237.9 114.42 244.12 114.42 255.5 114.42 255.5 114.46 255.5 120.74 261.75 120.74 261.75 127.03 261.75 127.2 261.75 133.35 258.64 133.35 255.5 133.35 255.5 133.45 255.5 139.67 242.87 139.67 242.87 145.98 255.5 145.98 255.5 152.28 261.75 152.28 261.75 152.34 261.79 152.34 261.79 152.38 261.79 155.5 261.79 158.59 261.88 158.59 264.99 158.59 268.07 158.59 268.07 158.63 268.11 158.63 268.11 168.13 268.11 171.25 268.11 171.35 268.11 174.49"/><polygon class="cls-2" points="237.8 76.57 237.8 101.81 231.55 101.81 231.55 108.07 223.94 108.07 217.58 108.07 217.58 108.11 212.62 108.11 212.62 101.81 206.3 101.81 206.3 76.61 206.3 38.71 206.34 38.71 212.62 38.71 212.62 32.4 225.23 32.4 225.23 38.71 231.55 38.71 231.55 76.57 237.8 76.57"/><polygon class="cls-2" points="199.95 45.01 199.95 70.25 193.69 70.25 193.69 82.88 187.38 82.88 187.38 95.5 181.06 95.5 181.06 101.81 174.76 101.81 174.76 108.11 160.88 108.11 160.88 108.07 154.52 108.07 149.52 108.07 149.52 101.81 143.21 101.81 143.21 89.18 136.89 89.18 136.89 63.94 130.59 63.94 130.59 38.71 136.89 38.71 136.89 32.4 155.84 32.4 155.84 38.71 162.13 38.71 162.13 76.57 168.45 76.57 168.45 57.64 174.76 57.64 174.76 45.01 181.06 45.01 181.06 38.71 193.69 38.71 193.69 45.01 199.95 45.01"/><polygon class="cls-2" points="198.69 155.56 198.69 158.55 198.65 158.55 198.65 158.68 198.65 164.91 198.65 171.21 192.4 171.21 192.4 183.84 186.08 183.84 186.08 190.13 141.91 190.13 141.91 183.84 135.6 183.84 135.6 171.21 129.34 171.21 129.32 171.21 129.3 171.21 129.3 152.24 129.3 142.93 129.3 139.81 129.3 127.03 135.6 127.03 135.6 114.42 143.16 114.42 154.52 114.42 154.52 114.46 154.52 120.74 160.84 120.74 160.84 133.49 160.84 136.63 160.84 139.67 154.54 139.67 154.52 139.67 154.52 158.59 160.84 158.59 160.84 158.68 160.84 161.81 160.84 164.91 164.04 164.91 167.16 164.91 167.16 158.59 167.18 158.59 173.45 158.59 173.45 146.06 173.45 145.98 167.16 145.98 167.16 142.93 167.16 139.81 167.16 127.03 173.45 127.03 173.45 120.74 186.08 120.74 186.08 127.03 192.4 127.03 192.4 139.67 198.69 139.67 198.69 152.42 198.69 155.56"/><polygon class="cls-2" points="122.98 177.6 122.98 183.84 110.35 183.84 110.35 190.13 91.45 190.13 78.83 190.13 59.89 190.13 59.89 183.84 53.59 183.84 53.57 183.84 53.57 168.17 53.57 165.05 53.57 152.28 53.65 152.28 56.77 152.28 59.89 152.28 59.89 149.24 59.89 146.13 59.89 133.35 66.2 133.35 66.2 120.74 72.5 120.74 72.5 114.42 97.74 114.42 97.74 120.74 110.35 120.74 110.35 127.03 116.67 127.03 116.67 139.81 116.67 142.93 116.67 145.98 110.37 145.98 110.35 145.98 110.35 152.28 116.67 152.28 116.67 158.59 116.69 158.59 119.83 158.59 122.94 158.59 122.94 171.21 122.94 174.49 122.94 177.56 122.98 177.56 122.98 177.6"/><polygon class="cls-3" points="211.27 120.82 206.26 120.82 206.26 114.51 199.95 114.51 199.95 108.15 199.95 95.58 193.74 95.58 193.74 101.84 193.74 108.2 187.43 108.2 187.43 114.51 181.12 114.51 181.12 120.73 186.08 120.73 192.44 120.73 192.44 127.04 198.75 127.04 198.75 133.39 198.75 139.66 204.96 139.66 204.96 133.39 204.96 127.04 211.27 127.04 211.27 120.82"/><polygon class="cls-3" points="269.45 120.73 274.42 120.73 280.68 120.73 280.68 114.51 275.76 114.51 269.45 114.51 269.45 120.73"/><polygon class="cls-4" points="542.58 190.23 539.48 190.23 539.48 196.54 539.45 196.54 533.12 196.54 526.86 196.54 526.86 202.85 520.5 202.85 482.64 202.85 476.35 202.85 476.3 202.85 476.29 202.85 476.29 196.54 473.23 196.54 473.17 196.54 470.1 196.54 470.07 196.54 470.07 202.85 470.04 202.85 463.71 202.85 444.79 202.85 438.43 202.85 438.43 196.54 432.21 196.54 425.9 196.54 425.9 196.58 425.9 202.85 425.87 202.85 419.54 202.85 406.93 202.85 400.63 202.85 400.58 202.85 400.57 202.85 400.57 196.54 397.51 196.54 397.45 196.54 394.38 196.54 394.36 196.54 394.36 202.85 394.32 202.85 388 202.85 343.83 202.85 337.54 202.85 337.47 202.85 337.47 196.54 334.41 196.54 331.17 196.54 331.16 196.54 330.88 196.54 328.05 196.54 324.95 196.54 324.95 202.85 324.92 202.85 318.59 202.85 299.66 202.85 293.37 202.85 293.3 202.85 293.3 196.49 293.3 190.23 290.24 190.23 287.57 190.23 287.57 164.99 273.89 164.99 273.89 190.23 271.26 190.23 268.16 190.23 268.16 196.54 268.13 196.54 261.8 196.54 255.54 196.54 255.54 202.85 249.18 202.85 211.32 202.85 205.03 202.85 204.96 202.85 204.96 202.84 204.96 196.54 201.9 196.54 201.85 196.54 198.78 196.54 198.75 196.54 198.72 196.54 198.65 196.54 192.44 196.54 192.44 196.58 192.44 202.85 192.41 202.85 186.08 202.85 141.91 202.85 135.62 202.85 135.56 202.85 135.56 196.58 135.56 196.54 129.34 196.54 129.31 196.54 129.26 196.54 129.25 196.54 126.18 196.54 126.13 196.54 123.06 196.54 123 196.54 122.98 196.54 116.72 196.54 116.72 202.85 110.36 202.85 59.88 202.85 53.59 202.85 53.53 202.85 53.53 196.54 50.47 196.54 47.34 196.54 47.34 209.2 47.34 215.46 53.59 215.46 53.65 215.46 53.65 215.51 53.65 221.77 59.9 221.77 110.38 221.77 116.64 221.77 116.64 215.51 116.64 215.46 135.62 215.46 135.68 215.46 135.68 215.51 135.68 221.77 141.93 221.77 186.1 221.77 192.35 221.77 192.35 215.51 192.35 215.46 192.41 215.46 205.03 215.46 205.09 215.46 205.09 215.51 205.09 221.77 211.34 221.77 249.2 221.77 255.45 221.77 255.45 215.51 255.45 215.46 261.82 215.46 268.07 215.46 268.07 209.2 268.07 209.15 268.13 209.15 274.38 209.15 274.38 202.89 274.38 202.85 287.11 202.85 287.11 202.89 287.11 209.15 293.37 209.15 293.42 209.15 293.42 215.51 293.42 221.77 299.68 221.77 318.61 221.77 324.86 221.77 324.86 215.51 324.86 215.46 324.92 215.46 330.88 215.46 331.17 215.46 337.54 215.46 337.59 215.46 337.59 215.51 337.59 221.77 343.85 221.77 388.02 221.77 394.27 221.77 394.27 215.51 394.27 215.46 394.32 215.46 394.38 215.46 400.58 215.46 400.63 215.46 400.69 215.46 400.69 215.51 400.69 221.77 406.94 221.77 419.56 221.77 425.82 221.77 425.82 215.51 425.82 215.46 425.87 215.46 438.49 215.46 438.55 215.46 438.55 215.51 438.55 221.77 444.8 221.77 463.73 221.77 469.99 221.77 469.99 215.51 469.99 215.46 470.04 215.46 470.1 215.46 476.3 215.46 476.35 215.46 476.41 215.46 476.41 215.51 476.41 221.77 482.66 221.77 520.52 221.77 526.78 221.77 526.78 215.51 526.78 215.46 533.14 215.46 539.39 215.46 539.39 209.2 539.39 209.15 539.45 209.15 545.71 209.15 545.71 202.89 545.71 190.23 542.58 190.23"/><path class="cls-2" d="M545.79,183.87v6.36h-6.32v6.31H526.86v6.3H476.29v-6.3h-6.21v6.3H438.44v-6.3H425.91v6.3H400.56v-6.3h-6.21v6.3H337.46v-6.3H325v6.3H293.29V190.23H287V165H274.47v25.25h-6.32v6.31H255.54v6.3H205v-6.3H192.44v6.3H135.56v-6.3H116.71v6.3H53.53v-6.3H47.21V152.27h6.32V133.34h6.32V120.73h6.29v-6.31h38v6.31h12.61V127h12.53V114.42h7.61V101.89h-6.32V76.64h-6.29V38.71h6.29V32.39h31.66v6.32h6.3V45h6.21V38.71h31.56V32.39h25.33v6.32h6.31V70.24h6.22V51.32h6.31V38.71h6.3V32.39h50.59v6.32h6.29V45h6.22V32.39h31.66v6.32H383V45h6.31V57.63h6.22V45h6.31V38.71h6.3V32.39h44.27v6.32h6.3V64h-6.3v6.21h6.3v6.32h6.31V108.2h-6.31v6.22h5v6.31h6.32V127h12.51v-6.3h6.31v-6.31h44.28v6.31h6.29v25.33h-6.29v6.21h6.29v6.32h6.32v25.28Zm-6.36,0V164.94h-6.32v-6.31h-6.29v-6.3H514.19V146h12.63V139.7h6.29V127.09h-6.29v-6.32H495.26v6.32h-6.32v6.29h-6.29v19h6.29v6.3h6.32v6.31H482.65v6.32h-6.32v18.93h6.32v6.29H520.5v-6.29h12.61v-6.32h6.32ZM470,158.63V133.38h-6.3v-6.29H457.4v-6.32H419.55v6.32h-6.32V139.7h-6.31v18.93h-6.3v31.56h6.3v6.29h12.63v-6.29h6.3V177.55h6.31v6.32h6.32v6.32h6.31v6.29h18.93v-6.29H470V177.55h-6.26v-6.29H457.4v-6.32h6.32v-6.31ZM458.7,101.84V82.92h-6.32V76.6h-6.29V70.29H433.45V64h12.64V57.67h6.29V45.06h-6.29V38.75H414.53v6.31h-6.3v6.3h-6.32V70.29h6.32V76.6h6.3v6.32H401.91v6.31H395.6v18.93h6.31v6.3h11.28v0h26.58v-6.26h12.61v-6.32Zm-58.08,31.5v-6.25h-6.31v-6.32H356.45v6.32h-6.31V139.7h-6.32v18.93h-6.3v31.56h6.3v6.29H388v-6.29h6.28V177.55H362.75v-6.29H381.7v-6.32H388V152.33H369.06V146h25.25V139.7h6.25v-6.36ZM389.28,82.88V64H383V51.36h-6.32v-6.3H364.06v6.3h-6.32V70.29h6.32V82.92h-6.32v6.31h-6.31V82.92h-6.3V64h6.3V45.06h-6.3V38.75H326.18V51.36h-6.29V95.53h6.29v12.63h6.32v6.26h5.07v0h12.52v0h26.58v-6.26H383V95.53h6.25V82.88Zm-51.76,50.46v-6.25h-6.31v-6.32H287v6.32H274.43v6.29h-6.32v19h6.32v6.3H287v-6.3h6.31v31.54h6.3v12.61h19v-6.29h6.29V171.26H318.6V146h12.61V139.7h6.25v-6.36Zm-23.95-25.18v-6.27h0V95.53h-6.27v-6.3H301V82.92h6.3V76.6h6.27V51.36h-6.27v-6.3H301V38.75H263.09v6.31h-6.3V57.67h-6.32V76.6h-6.31v31.56h6.31v6.26h11.39v0h1.23v-6.3h6.31V95.53h6.32v6.31H282v6.32h6.3v6.26h18.93v-6.26Zm-45.46,75.71V165h0v0h-6.28v-6.25h0v-.06H255.5v-6.3H242.87V146H255.5V139.7h6.25V127.09H255.5v-6.32H223.94v6.32h-6.32v6.29h-6.29v19h6.29v6.3h6.32v6.31H211.33v6.32H205v18.93h6.32v6.29h37.85v-6.29h12.61v-6.32h6.32ZM237.8,108.16V82.92h-6.25V45.06h-6.32V38.75H212.62v6.31H206.3v63.1h6.32v6.3h5v0h14v-6.26ZM200,76.6V51.36h-6.26v-6.3H181.06v6.3h-6.3V64h-6.31V82.92h-6.32V45.06h-6.29V38.75h-19v6.31h-6.3V70.29h6.3V95.53h6.31v12.63h6.32v6.26h11.36v0h13.88v-6.3h6.3v-6.32h6.32V89.23h6.31V76.6Zm-1.25,88.3V146h-6.3V133.38h-6.32v-6.29H173.45v6.29h-6.29v19h6.29v12.61h-6.29v6.32h-6.32v-6.32h-6.32V146h6.32V127.09h-6.32v-6.32H135.6v12.61h-6.3v44.17h6.3v12.64h6.31v6.29h44.17v-6.29h6.32V177.55h6.25V164.9ZM123,190.19v-6.28h0v-19h-6.27v-6.31h-6.32v-6.3h6.32v-19h-6.32v-6.29H97.74v-6.32H72.5v6.32H66.2V139.7H59.89v18.93H53.57v31.56h6.32v6.29h50.46v-6.29Z"/><polygon class="cls-2" points="539.43 180.84 539.43 183.87 533.13 183.87 533.12 183.87 533.12 190.19 520.5 190.19 520.5 196.48 482.65 196.48 482.65 190.27 482.65 190.19 476.37 190.19 476.33 190.19 476.33 187.15 476.33 184.01 476.33 171.26 476.37 171.26 476.41 171.26 479.53 171.26 482.65 171.26 482.65 164.94 482.67 164.94 495.26 164.94 495.26 158.63 488.94 158.63 488.94 152.41 488.94 152.33 482.65 152.33 482.65 149.28 482.65 146.16 482.65 133.38 488.94 133.38 488.94 127.09 495.26 127.09 495.26 120.77 526.82 120.77 526.82 127.09 533.12 127.09 533.12 139.7 533.09 139.7 529.96 139.7 526.82 139.7 526.82 139.8 526.82 146.02 514.19 146.02 514.19 152.33 526.82 152.33 526.82 158.63 533.12 158.63 533.12 158.73 533.12 161.85 533.12 164.94 539.39 164.94 539.43 164.94 539.43 177.7 539.43 180.84"/><polygon class="cls-2" points="470.02 152.41 470.02 158.63 463.72 158.63 463.72 164.94 457.4 164.94 457.4 171.26 463.72 171.26 463.72 177.56 469.98 177.56 469.98 177.66 469.98 180.77 469.98 190.19 466.86 190.19 463.72 190.19 463.72 190.27 463.72 196.48 444.79 196.48 444.79 190.19 438.48 190.19 438.48 183.87 432.16 183.87 432.16 177.66 432.16 177.56 425.87 177.56 425.85 177.56 425.85 190.19 419.55 190.19 419.55 196.48 406.92 196.48 406.92 190.19 400.66 190.19 400.64 190.19 400.62 190.19 400.62 174.52 400.62 171.4 400.62 171.2 400.62 164.98 400.62 161.85 400.62 158.73 400.62 158.63 400.64 158.63 400.68 158.63 403.76 158.63 403.82 158.63 406.9 158.63 406.92 158.63 406.92 155.59 406.92 152.47 406.92 146.06 406.92 139.7 406.98 139.7 413.23 139.7 413.23 127.09 419.55 127.09 419.55 120.81 419.55 120.77 446.13 120.77 457.4 120.77 457.4 127.09 463.72 127.09 463.72 133.38 470.02 133.38 470.02 146.16 470.02 149.28 470.02 152.41"/><polygon class="cls-2" points="458.7 82.92 458.7 101.84 452.38 101.84 452.38 108.16 439.77 108.16 439.77 114.42 419.55 114.42 413.19 114.42 413.19 114.46 401.91 114.46 401.91 108.16 395.6 108.16 395.6 101.89 395.6 89.23 395.64 89.23 401.91 89.23 401.91 82.92 414.53 82.92 414.53 76.6 408.23 76.6 408.23 70.29 401.91 70.29 401.91 51.36 408.23 51.36 408.23 45.06 414.53 45.06 414.53 38.75 446.08 38.75 446.08 45.06 452.38 45.06 452.38 57.67 446.08 57.67 446.08 63.99 433.45 63.99 433.45 70.29 446.08 70.29 446.08 76.6 452.38 76.6 452.38 82.92 458.7 82.92"/><polygon class="cls-2" points="400.62 127.09 400.62 133.34 400.56 133.34 400.56 133.55 400.56 139.7 397.44 139.7 394.31 139.7 394.31 139.8 394.31 146.02 369.06 146.02 369.06 152.33 387.99 152.33 387.99 164.94 381.69 164.94 381.69 165.03 381.69 168.16 381.69 168.22 381.69 171.26 369.08 171.26 362.75 171.26 362.75 177.56 388.01 177.56 391.15 177.56 394.26 177.56 394.26 190.19 387.99 190.19 387.99 190.21 387.99 190.33 387.99 193.45 387.99 196.48 362.77 196.48 343.82 196.48 343.82 190.19 337.55 190.19 337.52 190.19 337.52 174.52 337.52 171.4 337.52 164.98 337.52 161.85 337.52 158.73 337.52 158.63 337.55 158.63 337.59 158.63 340.66 158.63 340.72 158.63 343.8 158.63 343.82 158.63 343.82 155.59 343.82 152.47 343.82 146.06 343.82 139.7 343.88 139.7 350.14 139.7 350.14 127.09 356.45 127.09 356.45 120.81 356.45 120.77 383.03 120.77 394.31 120.77 394.31 127.09 400.62 127.09"/><polygon class="cls-2" points="389.28 63.99 389.28 82.88 389.24 82.88 389.24 89.23 389.24 95.53 382.99 95.53 382.99 108.16 376.67 108.16 376.67 114.42 356.45 114.42 350.1 114.42 350.1 114.46 337.56 114.46 337.56 114.42 332.5 114.42 332.5 108.16 326.18 108.16 326.18 95.53 319.93 95.53 319.89 95.53 319.89 89.17 319.89 82.96 319.89 51.36 319.93 51.36 326.18 51.36 326.18 38.75 345.13 38.75 345.13 45.06 351.43 45.06 351.43 63.99 345.13 63.99 345.13 82.92 351.43 82.92 351.43 89.23 357.74 89.23 357.74 82.92 364.06 82.92 364.06 70.29 357.74 70.29 357.74 51.36 364.06 51.36 364.06 45.06 376.67 45.06 376.67 51.36 382.99 51.36 382.99 63.99 389.28 63.99"/><polygon class="cls-2" points="337.52 127.09 337.52 133.34 337.46 133.34 337.46 133.55 337.46 139.7 334.35 139.7 331.21 139.7 331.21 139.8 331.21 146.02 318.6 146.02 318.6 171.26 318.62 171.26 321.73 171.26 324.89 171.26 324.89 171.28 324.89 184.01 324.89 187.15 324.89 190.19 318.62 190.19 318.6 190.19 318.6 196.48 299.65 196.48 299.65 183.87 293.37 183.87 293.35 183.87 293.35 171.34 293.35 152.33 287.04 152.33 287.04 158.63 274.47 158.63 274.43 158.63 274.43 158.59 274.43 152.41 274.43 152.33 268.15 152.33 268.11 152.33 268.11 152.27 268.11 149.28 268.11 146.16 268.11 146.06 268.11 133.38 268.15 133.38 274.43 133.38 274.43 127.09 287.04 127.09 287.04 120.81 287.04 120.77 313.61 120.77 326.14 120.77 331.21 120.77 331.21 120.81 331.21 127.09 337.52 127.09"/><polygon class="cls-2" points="313.57 101.89 313.57 108.16 307.26 108.16 307.26 114.42 288.33 114.42 288.33 108.16 282.03 108.16 282.03 101.84 275.72 101.84 275.72 95.53 269.4 95.53 269.4 108.16 263.09 108.16 263.09 114.46 261.86 114.46 261.86 114.42 255.5 114.42 250.47 114.42 250.47 108.16 244.22 108.16 244.16 108.16 244.16 76.6 244.22 76.6 250.47 76.6 250.47 57.67 256.79 57.67 256.79 45.06 263.09 45.06 263.09 38.75 300.96 38.75 300.96 45.06 307.26 45.06 307.26 51.36 313.53 51.36 313.53 76.6 307.26 76.6 307.26 82.92 300.96 82.92 300.96 89.23 307.26 89.23 307.26 95.53 313.53 95.53 313.53 101.89 313.57 101.89"/><polygon class="cls-2" points="268.11 180.84 268.11 183.87 261.81 183.87 261.79 183.87 261.79 190.19 249.18 190.19 249.18 196.48 211.33 196.48 211.33 190.27 211.33 190.19 205.01 190.19 205.01 187.15 205.01 184.01 205.01 183.91 205.01 171.26 205.05 171.26 205.09 171.26 208.21 171.26 211.33 171.26 211.33 164.94 211.35 164.94 223.94 164.94 223.94 158.63 217.62 158.63 217.62 152.41 217.62 152.33 211.33 152.33 211.33 149.28 211.33 146.16 211.33 133.38 217.62 133.38 217.62 127.09 223.94 127.09 223.94 120.81 223.94 120.77 237.9 120.77 244.12 120.77 255.5 120.77 255.5 120.81 255.5 127.09 261.75 127.09 261.75 133.38 261.75 133.55 261.75 139.7 258.64 139.7 255.5 139.7 255.5 139.8 255.5 146.02 242.87 146.02 242.87 152.33 255.5 152.33 255.5 158.63 261.75 158.63 261.75 158.69 261.79 158.69 261.79 158.73 261.79 161.85 261.79 164.94 261.88 164.94 264.99 164.94 268.07 164.94 268.07 164.98 268.11 164.98 268.11 174.48 268.11 177.6 268.11 177.7 268.11 180.84"/><polygon class="cls-2" points="237.8 82.92 237.8 108.16 231.55 108.16 231.55 114.42 223.94 114.42 217.58 114.42 217.58 114.46 212.62 114.46 212.62 108.16 206.3 108.16 206.3 82.96 206.3 45.06 206.34 45.06 212.62 45.06 212.62 38.75 225.23 38.75 225.23 45.06 231.55 45.06 231.55 82.92 237.8 82.92"/><polygon class="cls-2" points="199.95 51.36 199.95 76.6 193.69 76.6 193.69 89.23 187.38 89.23 187.38 101.84 181.06 101.84 181.06 108.16 174.76 108.16 174.76 114.46 160.88 114.46 160.88 114.42 154.52 114.42 149.52 114.42 149.52 108.16 143.21 108.16 143.21 95.53 136.89 95.53 136.89 70.29 130.59 70.29 130.59 45.06 136.89 45.06 136.89 38.75 155.84 38.75 155.84 45.06 162.13 45.06 162.13 82.92 168.45 82.92 168.45 63.99 174.76 63.99 174.76 51.36 181.06 51.36 181.06 45.06 193.69 45.06 193.69 51.36 199.95 51.36"/><polygon class="cls-2" points="198.69 161.91 198.69 164.9 198.65 164.9 198.65 165.03 198.65 171.26 198.65 177.56 192.4 177.56 192.4 190.19 186.08 190.19 186.08 196.48 141.91 196.48 141.91 190.19 135.6 190.19 135.6 177.56 129.34 177.56 129.32 177.56 129.3 177.56 129.3 158.59 129.3 149.28 129.3 146.16 129.3 133.38 135.6 133.38 135.6 120.77 143.16 120.77 154.52 120.77 154.52 120.81 154.52 127.09 160.84 127.09 160.84 139.84 160.84 142.98 160.84 146.02 154.54 146.02 154.52 146.02 154.52 164.94 160.84 164.94 160.84 165.03 160.84 168.16 160.84 171.26 164.04 171.26 167.16 171.26 167.16 164.94 167.18 164.94 173.45 164.94 173.45 152.41 173.45 152.33 167.16 152.33 167.16 149.28 167.16 146.16 167.16 133.38 173.45 133.38 173.45 127.09 186.08 127.09 186.08 133.38 192.4 133.38 192.4 146.02 198.69 146.02 198.69 158.77 198.69 161.91"/><polygon class="cls-2" points="122.98 183.95 122.98 190.19 110.35 190.19 110.35 196.48 91.45 196.48 78.83 196.48 59.89 196.48 59.89 190.19 53.59 190.19 53.57 190.19 53.57 174.52 53.57 171.4 53.57 158.63 53.65 158.63 56.77 158.63 59.89 158.63 59.89 155.59 59.89 152.47 59.89 139.7 66.2 139.7 66.2 127.09 72.5 127.09 72.5 120.77 97.74 120.77 97.74 127.09 110.35 127.09 110.35 133.38 116.67 133.38 116.67 146.16 116.67 149.28 116.67 152.33 110.37 152.33 110.35 152.33 110.35 158.63 116.67 158.63 116.67 164.94 116.69 164.94 119.83 164.94 122.94 164.94 122.94 177.56 122.94 180.84 122.94 183.91 122.98 183.91 122.98 183.95"/><path class="cls-1" d="M122.94,174.53v-15.9h-6.27v-6.31h-6.31V146h6.31V127.08h-6.31v-6.31H97.74v-6.31H72.5v6.31H66.19v12.62H59.88v18.93H53.57v31.55h6.31v6.31h50.48v-6.31H123v-6.26h0ZM91.43,165v6.22H78.81V158.63H91.43Zm0-31.55V146H78.81V139.7h6.31v-6.31h6.31Z"/><polygon class="cls-1" points="192.39 127.08 186.08 127.08 186.08 120.77 173.46 120.77 173.46 127.08 167.15 127.08 167.15 139.85 167.15 142.98 167.15 146.01 173.46 146.01 173.46 146.1 173.46 158.63 167.17 158.63 167.15 158.63 167.15 164.94 164.04 164.94 160.84 164.94 160.84 161.85 160.84 158.72 160.84 158.63 154.53 158.63 154.53 139.7 154.55 139.7 160.84 139.7 160.84 136.66 160.84 133.54 160.84 120.77 154.53 120.77 154.53 114.51 154.53 114.46 143.16 114.46 135.6 114.46 135.6 127.08 129.29 127.08 129.29 139.85 129.29 142.98 129.29 152.28 129.29 171.25 129.31 171.25 129.34 171.25 135.6 171.25 135.6 183.87 141.91 183.87 141.91 190.18 186.08 190.18 186.08 183.87 192.39 183.87 192.39 171.25 198.65 171.25 198.65 164.94 198.65 158.72 198.65 158.59 198.7 158.59 198.7 155.59 198.7 152.47 198.7 139.7 192.39 139.7 192.39 127.08"/><polygon class="cls-1" points="268.06 158.67 268.06 158.63 265 158.63 261.87 158.63 261.8 158.63 261.8 155.54 261.8 152.41 261.8 152.37 261.75 152.37 261.75 152.32 255.49 152.32 255.49 146.01 242.87 146.01 242.87 139.7 236.56 139.7 236.56 133.48 236.56 133.4 242.87 133.4 242.87 133.48 242.87 139.7 255.49 139.7 255.49 133.48 255.49 133.4 258.64 133.4 261.75 133.4 261.75 127.23 261.75 127.08 261.75 120.77 255.49 120.77 255.49 114.51 255.49 114.46 244.12 114.46 237.9 114.46 223.94 114.46 223.94 114.51 223.94 120.77 217.63 120.77 217.63 127.08 211.32 127.08 211.32 139.85 211.32 142.98 211.32 146.01 217.63 146.01 217.63 146.1 217.63 152.32 223.94 152.32 223.94 158.63 236.56 158.63 236.56 164.94 223.94 164.94 223.94 158.63 211.34 158.63 211.32 158.63 211.32 164.94 208.21 164.94 205.09 164.94 205.06 164.94 205.01 164.94 205.01 177.61 205.01 177.71 205.01 180.83 205.01 183.87 211.32 183.87 211.32 183.96 211.32 190.18 249.18 190.18 249.18 183.87 261.8 183.87 261.8 177.56 261.82 177.56 268.11 177.56 268.11 174.53 268.11 171.4 268.11 171.29 268.11 168.16 268.11 158.68 268.06 158.68 268.06 158.67"/><polygon class="cls-1" points="337.52 120.77 331.21 120.77 331.21 114.51 331.21 114.46 326.15 114.46 313.62 114.46 287.04 114.46 287.04 114.51 287.04 120.77 274.42 120.77 274.42 127.08 268.16 127.08 268.11 127.08 268.11 139.75 268.11 139.85 268.11 142.98 268.11 145.97 268.11 146.01 268.16 146.01 274.42 146.01 274.42 146.1 274.42 152.28 274.42 152.32 274.47 152.32 287.04 152.32 287.04 146.01 293.35 146.01 293.35 165.03 293.35 177.56 293.37 177.56 299.66 177.56 299.66 190.18 318.59 190.18 318.59 183.87 318.61 183.87 324.9 183.87 324.9 180.83 324.9 177.71 324.9 164.98 324.9 164.94 321.74 164.94 318.61 164.94 318.59 164.94 318.59 139.7 331.21 139.7 331.21 133.48 331.21 133.4 334.35 133.4 337.47 133.4 337.47 127.23 337.47 127.04 337.52 127.04 337.52 120.77"/><polygon class="cls-1" points="400.62 120.77 394.31 120.77 394.31 114.46 383.03 114.46 356.45 114.46 356.45 114.51 356.45 120.77 350.14 120.77 350.14 133.4 343.88 133.4 343.83 133.4 343.83 139.75 343.83 146.16 343.83 149.28 343.83 152.32 343.79 152.32 340.72 152.32 340.67 152.32 337.59 152.32 337.54 152.32 337.52 152.32 337.52 152.41 337.52 155.54 337.52 158.67 337.52 165.09 337.52 168.22 337.52 183.87 337.54 183.87 343.83 183.87 343.83 190.18 362.78 190.18 388 190.18 388 187.15 388 184.02 388 183.91 388 183.87 394.26 183.87 394.26 171.25 391.14 171.25 388.02 171.25 362.76 171.25 362.76 164.94 369.09 164.94 381.69 164.94 381.69 161.91 381.69 161.85 381.69 158.72 381.69 158.63 388 158.63 388 146.01 369.07 146.01 369.07 139.7 394.31 139.7 394.31 133.48 394.31 133.4 397.45 133.4 400.57 133.4 400.57 127.23 400.57 127.04 400.62 127.04 400.62 120.77"/><path class="cls-1" d="M463.71,120.77H457.4v-6.31H419.54v6.31h-6.3v12.62h-6.31v18.93h-6.31v31.55h6.31v6.31h12.61v-6.31h6.31V171.25h6.31v6.31h6.31v6.31h6.32v6.31h18.92v-6.31H470V171.25h-6.27v-6.31H457.4v-6.31h6.31v-6.31H470V127.08h-6.31Zm-18.92,12.71V146h-6.32v6.31H425.85V139.7h6.31v-6.31h12.63Z"/><polygon class="cls-1" points="533.12 158.63 533.12 155.54 533.12 152.41 533.12 152.32 526.81 152.32 526.81 146.01 514.19 146.01 514.19 139.7 507.88 139.7 507.88 133.48 507.88 133.4 514.19 133.4 514.19 133.48 514.19 139.7 526.81 139.7 526.81 133.48 526.81 133.4 529.96 133.4 533.09 133.4 533.12 133.4 533.12 120.77 526.81 120.77 526.81 114.46 495.26 114.46 495.26 120.77 488.95 120.77 488.95 127.08 482.64 127.08 482.64 139.85 482.64 142.98 482.64 146.01 488.95 146.01 488.95 146.1 488.95 152.32 495.26 152.32 495.26 158.63 507.88 158.63 507.88 164.94 495.26 164.94 495.26 158.63 482.66 158.63 482.64 158.63 482.64 164.94 479.54 164.94 476.41 164.94 476.38 164.94 476.33 164.94 476.33 177.71 476.33 180.83 476.33 183.87 476.38 183.87 482.64 183.87 482.64 183.96 482.64 190.18 520.5 190.18 520.5 183.87 533.12 183.87 533.12 177.56 533.14 177.56 539.43 177.56 539.43 174.53 539.43 171.4 539.43 158.63 539.39 158.63 533.12 158.63"/><polygon class="cls-2" points="88.27 158.63 85.14 158.63 78.81 158.63 78.81 171.25 91.43 171.25 91.43 165.03 91.43 158.63 88.32 158.63 88.27 158.63"/><polygon class="cls-2" points="85.12 133.48 85.12 139.7 78.81 139.7 78.81 146.01 91.43 146.01 91.43 133.48 91.43 133.4 85.12 133.4 85.12 133.48"/><rect class="cls-2" x="223.94" y="158.63" width="12.62" height="6.31"/><polygon class="cls-2" points="242.87 133.4 236.56 133.4 236.56 133.48 236.56 139.7 242.87 139.7 242.87 133.48 242.87 133.4"/><polygon class="cls-2" points="432.17 133.48 432.17 139.7 425.86 139.7 425.86 152.32 438.48 152.32 438.48 146.01 444.79 146.01 444.79 133.48 444.79 133.4 432.17 133.4 432.17 133.48"/><rect class="cls-2" x="495.26" y="158.63" width="12.62" height="6.31"/><polygon class="cls-2" points="514.19 133.4 507.88 133.4 507.88 133.48 507.88 139.7 514.19 139.7 514.19 133.48 514.19 133.4"/><polygon class="cls-5" points="136.9 89.18 143.21 89.18 143.21 101.8 149.52 101.8 149.52 108.06 154.53 108.06 160.89 108.06 160.89 108.11 174.76 108.11 174.76 101.8 181.07 101.8 181.07 95.49 187.38 95.49 187.38 82.87 193.69 82.87 193.69 70.25 199.95 70.25 199.95 45.01 193.69 45.01 193.69 38.7 181.07 38.7 181.07 45.01 174.76 45.01 174.76 57.63 168.45 57.63 168.45 76.56 162.14 76.56 162.14 38.7 155.83 38.7 155.83 32.39 136.9 32.39 136.9 38.7 130.59 38.7 130.59 63.94 136.9 63.94 136.9 89.18"/><polygon class="cls-5" points="212.62 108.11 217.58 108.11 217.58 108.06 223.94 108.06 231.55 108.06 231.55 101.8 237.81 101.8 237.81 76.56 231.55 76.56 231.55 38.7 225.24 38.7 225.24 32.39 212.62 32.39 212.62 38.7 206.35 38.7 206.31 38.7 206.31 76.6 206.31 101.8 212.62 101.8 212.62 108.11"/><polygon class="cls-5" points="313.57 95.53 313.57 101.8 307.26 101.8 307.26 108.06 288.33 108.06 288.33 101.8 282.03 101.8 282.03 95.49 275.72 95.49 275.72 89.17 269.4 89.17 269.4 101.8 263.09 101.8 263.09 108.1 261.86 108.1 261.86 108.06 255.5 108.06 250.47 108.06 250.47 101.8 244.22 101.8 244.16 101.8 244.16 70.24 244.22 70.24 250.47 70.24 250.47 51.32 256.79 51.32 256.79 38.7 263.09 38.7 263.09 32.39 300.96 32.39 300.96 38.7 307.26 38.7 307.26 45 313.53 45 313.53 70.24 307.26 70.24 307.26 76.56 300.96 76.56 300.96 82.88 307.26 82.88 307.26 89.17 313.53 89.17 313.53 95.53 313.57 95.53"/><polygon class="cls-5" points="326.19 89.18 326.19 101.8 332.5 101.8 332.5 108.06 337.56 108.06 337.56 108.11 350.09 108.11 350.09 108.06 356.45 108.06 376.67 108.06 376.67 101.8 382.98 101.8 382.98 89.18 389.25 89.18 389.25 82.87 389.25 76.51 389.29 76.51 389.29 57.63 382.98 57.63 382.98 45.01 376.67 45.01 376.67 38.7 364.05 38.7 364.05 45.01 357.74 45.01 357.74 63.94 364.05 63.94 364.05 76.56 357.74 76.56 357.74 82.87 351.43 82.87 351.43 76.56 345.12 76.56 345.12 57.63 351.43 57.63 351.43 38.7 345.12 38.7 345.12 32.39 326.19 32.39 326.19 45.01 319.93 45.01 319.88 45.01 319.88 76.6 319.88 82.82 319.88 89.18 319.93 89.18 326.19 89.18"/><polygon class="cls-5" points="458.7 76.56 458.7 95.49 452.4 95.49 452.4 101.79 439.77 101.79 439.77 108.06 419.55 108.06 413.19 108.06 413.19 108.1 401.91 108.1 401.91 101.79 395.6 101.79 395.6 95.53 395.6 82.86 395.64 82.86 401.91 82.86 401.91 76.56 414.52 76.56 414.52 82.86 427.16 82.86 427.16 76.56 414.52 76.56 414.52 70.25 408.23 70.25 408.23 63.93 401.91 63.93 401.91 45 408.23 45 408.23 38.69 414.52 38.69 414.52 32.39 446.08 32.39 446.08 38.69 452.4 38.69 452.4 51.32 446.08 51.32 446.08 57.64 433.45 57.64 433.45 51.32 427.16 51.32 427.16 57.64 433.45 57.64 433.45 63.93 446.08 63.93 446.08 70.25 452.4 70.25 452.4 76.56 458.7 76.56"/><rect class="cls-2" x="427.16" y="51.32" width="6.3" height="6.32"/><rect class="cls-2" x="414.52" y="76.56" width="12.63" height="6.3"/><polygon class="cls-2" points="269.4 57.63 275.71 57.63 275.71 51.32 288.33 51.32 288.33 63.94 282.02 63.94 282.02 70.25 269.4 70.25 269.4 57.63"/><g class="cls-6"><rect class="cls-7" x="130.6" y="82.86" width="328.1" height="30.13"/><rect class="cls-8" x="130.82" y="45" width="328.1" height="37.88"/><rect class="cls-5" x="244.17" y="63.94" width="6.31" height="6.31"/><rect class="cls-5" x="218.93" y="63.94" width="6.31" height="6.31"/><rect class="cls-5" x="193.7" y="63.94" width="6.31" height="6.31"/><rect class="cls-5" x="168.46" y="63.94" width="6.31" height="6.31"/><rect class="cls-5" x="143.22" y="63.94" width="6.31" height="6.31"/><rect class="cls-5" x="294.65" y="63.94" width="6.31" height="6.31"/><rect class="cls-5" x="319.88" y="63.94" width="6.31" height="6.31"/><rect class="cls-5" x="345.12" y="63.94" width="6.31" height="6.31"/><rect class="cls-5" x="370.36" y="63.94" width="6.31" height="6.31"/><rect class="cls-5" x="395.6" y="63.94" width="6.31" height="6.31"/><rect class="cls-5" x="420.83" y="63.94" width="6.31" height="6.31"/><rect class="cls-5" x="446.07" y="63.94" width="6.31" height="6.31"/><rect class="cls-5" x="256.79" y="57.63" width="6.31" height="6.31"/><rect class="cls-5" x="231.55" y="57.63" width="6.31" height="6.31"/><rect class="cls-5" x="206.31" y="57.63" width="6.31" height="6.31"/><rect class="cls-5" x="181.08" y="57.63" width="6.31" height="6.31"/><rect class="cls-5" x="155.84" y="57.63" width="6.31" height="6.31"/><rect class="cls-5" x="130.6" y="57.63" width="6.31" height="6.31"/><rect class="cls-5" x="307.27" y="57.63" width="6.31" height="6.31"/><rect class="cls-5" x="332.5" y="57.63" width="6.31" height="6.31"/><rect class="cls-5" x="357.74" y="57.63" width="6.31" height="6.31"/><rect class="cls-5" x="382.98" y="57.63" width="6.31" height="6.31"/><rect class="cls-5" x="408.21" y="57.63" width="6.31" height="6.31"/><rect class="cls-5" x="433.45" y="57.63" width="6.31" height="6.31"/><rect class="cls-5" x="263.1" y="51.32" width="6.31" height="6.31"/><rect class="cls-5" x="250.48" y="51.32" width="6.31" height="6.31"/><rect class="cls-5" x="237.86" y="51.32" width="6.31" height="6.31"/><rect class="cls-5" x="225.24" y="51.32" width="6.31" height="6.31"/><rect class="cls-5" x="212.62" y="51.32" width="6.31" height="6.31"/><rect class="cls-5" x="200" y="51.32" width="6.31" height="6.31"/><rect class="cls-5" x="187.39" y="51.32" width="6.31" height="6.31"/><rect class="cls-5" x="174.77" y="51.32" width="6.31" height="6.31"/><rect class="cls-5" x="162.15" y="51.32" width="6.31" height="6.31"/><rect class="cls-5" x="149.53" y="51.32" width="6.31" height="6.31"/><rect class="cls-5" x="136.91" y="51.32" width="6.31" height="6.31"/><rect class="cls-5" x="124.29" y="51.32" width="6.31" height="6.31"/><rect class="cls-5" x="288.34" y="51.32" width="6.31" height="6.31"/><rect class="cls-5" x="300.96" y="51.32" width="6.31" height="6.31"/><rect class="cls-5" x="313.58" y="51.32" width="6.31" height="6.31"/><rect class="cls-5" x="326.19" y="51.32" width="6.31" height="6.31"/><rect class="cls-5" x="338.81" y="51.32" width="6.31" height="6.31"/><rect class="cls-5" x="351.43" y="51.32" width="6.31" height="6.31"/><rect class="cls-5" x="364.05" y="51.32" width="6.31" height="6.31"/><rect class="cls-5" x="376.67" y="51.32" width="6.31" height="6.31"/><rect class="cls-5" x="389.29" y="51.32" width="6.31" height="6.31"/><rect class="cls-5" x="401.91" y="51.32" width="6.31" height="6.31"/><rect class="cls-5" x="414.52" y="51.32" width="6.31" height="6.31"/><rect class="cls-5" x="439.76" y="51.32" width="6.31" height="6.31"/><rect class="cls-5" x="452.38" y="51.32" width="6.31" height="6.31"/><rect class="cls-5" x="256.79" y="45.01" width="6.31" height="6.31"/><rect class="cls-5" x="244.17" y="45.01" width="6.31" height="6.31"/><rect class="cls-5" x="231.55" y="45.01" width="6.31" height="6.31"/><rect class="cls-5" x="218.93" y="45.01" width="6.31" height="6.31"/><rect class="cls-5" x="206.31" y="45.01" width="6.31" height="6.31"/><rect class="cls-5" x="193.7" y="45.01" width="6.31" height="6.31"/><rect class="cls-5" x="181.08" y="45.01" width="6.31" height="6.31"/><rect class="cls-5" x="168.46" y="45.01" width="6.31" height="6.31"/><rect class="cls-5" x="155.84" y="45.01" width="6.31" height="6.31"/><rect class="cls-5" x="143.22" y="45.01" width="6.31" height="6.31"/><rect class="cls-5" x="130.6" y="45.01" width="6.31" height="6.31"/><rect class="cls-5" x="269.41" y="45.01" width="6.31" height="6.31"/><rect class="cls-5" x="282.03" y="45.01" width="6.31" height="6.31"/><rect class="cls-5" x="294.65" y="45.01" width="6.31" height="6.31"/><rect class="cls-5" x="307.27" y="45.01" width="6.31" height="6.31"/><rect class="cls-5" x="319.88" y="45.01" width="6.31" height="6.31"/><rect class="cls-5" x="332.5" y="45.01" width="6.31" height="6.31"/><rect class="cls-5" x="345.12" y="45.01" width="6.31" height="6.31"/><rect class="cls-5" x="357.74" y="45.01" width="6.31" height="6.31"/><rect class="cls-5" x="370.36" y="45.01" width="6.31" height="6.31"/><rect class="cls-5" x="382.98" y="45.01" width="6.31" height="6.31"/><rect class="cls-5" x="395.6" y="45.01" width="6.31" height="6.31"/><rect class="cls-5" x="408.21" y="45.01" width="6.31" height="6.31"/><rect class="cls-5" x="420.83" y="45.01" width="6.31" height="6.31"/><rect class="cls-5" x="433.45" y="45.01" width="6.31" height="6.31"/><rect class="cls-5" x="446.07" y="45.01" width="6.31" height="6.31"/><rect class="cls-8" x="244.17" y="101.8" width="6.31" height="6.31"/><rect class="cls-8" x="218.93" y="101.8" width="6.31" height="6.31"/><rect class="cls-8" x="193.7" y="101.8" width="6.31" height="6.31"/><rect class="cls-8" x="168.46" y="101.8" width="6.31" height="6.31"/><rect class="cls-8" x="143.22" y="101.8" width="6.31" height="6.31"/><rect class="cls-8" x="269.41" y="101.8" width="6.31" height="6.31"/><rect class="cls-8" x="294.65" y="101.8" width="6.31" height="6.31"/><rect class="cls-8" x="319.88" y="101.8" width="6.31" height="6.31"/><rect class="cls-8" x="345.12" y="101.8" width="6.31" height="6.31"/><rect class="cls-8" x="370.36" y="101.8" width="6.31" height="6.31"/><rect class="cls-8" x="395.6" y="101.8" width="6.31" height="6.31"/><rect class="cls-8" x="420.83" y="101.8" width="6.31" height="6.31"/><rect class="cls-8" x="446.07" y="101.8" width="6.31" height="6.31"/><rect class="cls-8" x="256.79" y="95.49" width="6.31" height="6.31"/><rect class="cls-8" x="231.55" y="95.49" width="6.31" height="6.31"/><rect class="cls-8" x="206.31" y="95.49" width="6.31" height="6.31"/><rect class="cls-8" x="181.08" y="95.49" width="6.31" height="6.31"/><rect class="cls-8" x="155.84" y="95.49" width="6.31" height="6.31"/><rect class="cls-8" x="130.6" y="95.49" width="6.31" height="6.31"/><rect class="cls-8" x="282.03" y="95.49" width="6.31" height="6.31"/><rect class="cls-8" x="307.27" y="95.49" width="6.31" height="6.31"/><rect class="cls-8" x="332.5" y="95.49" width="6.31" height="6.31"/><rect class="cls-8" x="357.74" y="95.49" width="6.31" height="6.31"/><rect class="cls-8" x="382.98" y="95.49" width="6.31" height="6.31"/><rect class="cls-8" x="408.21" y="95.49" width="6.31" height="6.31"/><rect class="cls-8" x="433.45" y="95.49" width="6.31" height="6.31"/><rect class="cls-8" x="263.1" y="89.17" width="6.31" height="6.31"/><rect class="cls-8" x="250.48" y="89.17" width="6.31" height="6.31"/><rect class="cls-8" x="237.86" y="89.17" width="6.31" height="6.31"/><rect class="cls-8" x="225.24" y="89.17" width="6.31" height="6.31"/><rect class="cls-8" x="212.62" y="89.17" width="6.31" height="6.31"/><rect class="cls-8" x="200" y="89.17" width="6.31" height="6.31"/><rect class="cls-8" x="187.39" y="89.17" width="6.31" height="6.31"/><rect class="cls-8" x="174.77" y="89.17" width="6.31" height="6.31"/><rect class="cls-8" x="162.15" y="89.17" width="6.31" height="6.31"/><rect class="cls-8" x="149.53" y="89.17" width="6.31" height="6.31"/><rect class="cls-8" x="136.91" y="89.17" width="6.31" height="6.31"/><rect class="cls-8" x="124.29" y="89.17" width="6.31" height="6.31"/><rect class="cls-8" x="275.72" y="89.17" width="6.31" height="6.31"/><rect class="cls-8" x="288.34" y="89.17" width="6.31" height="6.31"/><rect class="cls-8" x="300.96" y="89.17" width="6.31" height="6.31"/><rect class="cls-8" x="313.58" y="89.17" width="6.31" height="6.31"/><rect class="cls-8" x="326.19" y="89.17" width="6.31" height="6.31"/><rect class="cls-8" x="338.81" y="89.17" width="6.31" height="6.31"/><rect class="cls-8" x="351.43" y="89.17" width="6.31" height="6.31"/><rect class="cls-8" x="364.05" y="89.17" width="6.31" height="6.31"/><rect class="cls-8" x="376.67" y="89.17" width="6.31" height="6.31"/><rect class="cls-8" x="389.29" y="89.17" width="6.31" height="6.31"/><rect class="cls-8" x="401.91" y="89.17" width="6.31" height="6.31"/><rect class="cls-8" x="414.52" y="89.17" width="6.31" height="6.31"/><rect class="cls-8" x="427.14" y="89.17" width="6.31" height="6.31"/><rect class="cls-8" x="439.76" y="89.17" width="6.31" height="6.31"/><rect class="cls-8" x="452.38" y="89.17" width="6.31" height="6.31"/><rect class="cls-8" x="256.79" y="82.86" width="6.31" height="6.31"/><rect class="cls-8" x="244.17" y="82.86" width="6.31" height="6.31"/><rect class="cls-8" x="231.55" y="82.86" width="6.31" height="6.31"/><rect class="cls-8" x="218.93" y="82.86" width="6.31" height="6.31"/><rect class="cls-8" x="206.31" y="82.86" width="6.31" height="6.31"/><rect class="cls-8" x="193.7" y="82.86" width="6.31" height="6.31"/><rect class="cls-8" x="181.08" y="82.86" width="6.31" height="6.31"/><rect class="cls-8" x="168.46" y="82.86" width="6.31" height="6.31"/><rect class="cls-8" x="155.84" y="82.86" width="6.31" height="6.31"/><rect class="cls-8" x="143.22" y="82.86" width="6.31" height="6.31"/><rect class="cls-8" x="130.6" y="82.86" width="6.31" height="6.31"/><rect class="cls-8" x="269.41" y="82.86" width="6.31" height="6.31"/><rect class="cls-8" x="282.03" y="82.86" width="6.31" height="6.31"/><rect class="cls-8" x="294.65" y="82.86" width="6.31" height="6.31"/><rect class="cls-8" x="307.27" y="82.86" width="6.31" height="6.31"/><rect class="cls-8" x="319.88" y="82.86" width="6.31" height="6.31"/><rect class="cls-8" x="332.5" y="82.86" width="6.31" height="6.31"/><rect class="cls-8" x="345.12" y="82.86" width="6.31" height="6.31"/><rect class="cls-8" x="357.74" y="82.86" width="6.31" height="6.31"/><rect class="cls-8" x="370.36" y="82.86" width="6.31" height="6.31"/><rect class="cls-8" x="382.98" y="82.86" width="6.31" height="6.31"/><rect class="cls-8" x="395.6" y="82.86" width="6.31" height="6.31"/><rect class="cls-8" x="408.21" y="82.86" width="6.31" height="6.31"/><rect class="cls-8" x="420.83" y="82.86" width="6.31" height="6.31"/><rect class="cls-8" x="433.45" y="82.86" width="6.31" height="6.31"/><rect class="cls-8" x="446.07" y="82.86" width="6.31" height="6.31"/></g></g></svg>