<?xml version="1.0" standalone="no"?>
<!DOCTYPE svg PUBLIC "-//W3C//DTD SVG 20010904//EN"
 "http://www.w3.org/TR/2001/REC-SVG-20010904/DTD/svg10.dtd">
<svg version="1.0" xmlns="http://www.w3.org/2000/svg"
 width="154.000000pt" height="154.000000pt" viewBox="0 0 154.000000 154.000000"
 preserveAspectRatio="xMidYMid meet">
<metadata>
Created by potrace 1.14, written by Peter Selinger 2001-2017
</metadata>
<g transform="translate(0.000000,154.000000) scale(0.100000,-0.100000)"
fill="#000000" stroke="none">
<path d="M615 1525 c-264 -57 -477 -240 -568 -485 -55 -149 -60 -340 -14 -490
82 -264 289 -456 567 -526 86 -21 307 -12 390 16 292 99 484 320 534 616 9 48
9 184 2 232 -30 184 -140 373 -284 488 -69 55 -194 117 -282 140 -84 22 -266
27 -345 9z"/>
</g>
</svg>
