<svg id="Layer_1" data-name="Layer 1" xmlns="http://www.w3.org/2000/svg" viewBox="0 0 200 200"><defs><style>.cls-1{fill:#422136;}.cls-2{fill:#fff;}</style></defs><path class="cls-1" d="M183.41,100v15.16H168.23v15.16H153.07V145.5H137.91v15.16H122.75v15.16H107.59V191H92.41V175.82H77.25V160.66H62.09V145.5H46.93V130.32H31.77V115.16H16.59V100h45.5V9h75.82v91h45.5Zm-45.5,30.32V115.16H122.75v-91H77.25v91H62.09v15.16H77.25V145.5H92.41v15.16h15.18V145.5h15.16V130.32Z"/><polygon class="cls-2" points="137.91 115.16 137.91 130.32 122.75 130.32 122.75 145.5 107.59 145.5 107.59 160.66 92.41 160.66 92.41 145.5 77.25 145.5 77.25 130.32 62.09 130.32 62.09 115.16 77.25 115.16 77.25 100 77.25 84.84 77.25 69.68 77.25 54.51 77.25 39.34 77.25 24.18 92.41 24.18 107.59 24.18 122.75 24.18 122.75 39.34 122.75 54.51 122.75 69.68 122.75 84.84 122.75 100 122.75 115.16 137.91 115.16"/></svg>
