<svg id="Layer_1" data-name="Layer 1" xmlns="http://www.w3.org/2000/svg" viewBox="0 0 128 128"><path d="M91.32,64V58.22H88.43V55.37h-5.5a.25.25,0,0,1-.12,0l-.15-.13V52.48H74.13V41h8.61v-2.9H85.6c0-1.94.05-3.83-.07-5.77H82.69V29.44H79.8V26.55H76.9V12.23c-1-.11-1.91,0-2.88-.12V9.35H68.29v2.88h-2.9V23.76H59.67V26.6H51v2.89h-2.9v2.82c-1,.09-1.92,0-2.89.1v2.82H42.46V52.52h2.86V58.3h2.81c.1,1-.05,1.92.1,2.89h2.83V64h8.58V75.56H56.75V89.93c-1.94-.05-3.83.06-5.77-.07V87H45.26V84.13H42.41v-2.8H36.64v2.85H33.8V90h2.89v5.7c1,.09,1.92-.05,2.89.09v2.83H45.3v2.89H54v14.41H56.8c0,.52,0,1,0,1.47a4.31,4.31,0,0,0,.06,1.31h5.71V115.8h2.9V101.4h8.65V98.56H82.5a.21.21,0,0,0,.12,0l.14-.17V95.66h5.73v-2.9h2.85V90.87c0-.68,0-1.35,0-2s0-1.21,0-1.86H94.2V64ZM62.51,52.39s0,0,0,.06a.28.28,0,0,1-.12,0H56.85V46.8c-1-.14-1.91,0-2.88-.1V41h2.79v-2.8h5.75ZM82.66,81.24c-.87.12-1.82,0-2.79.07v2.82H77V87H68.34V78.46H71.2V64.05h5.72v2.82h2.89v2.89h2.85Z"/></svg>