<svg id="Layer_1" data-name="Layer 1" xmlns="http://www.w3.org/2000/svg" viewBox="0 0 128 128"><path d="M53.72,103.88v2.26h-25v-2.22H26.45v-2.25H19.66V99.39H17.25V92.6H15V83.39H12.72V53.82H10.48V46.9h2.18V44.63h16V42.37H53.73V40.09H76.51V33.31h2.26V31H81V28.77h2.39V26.39h2.28V24.11H92.5V21.86h13.71v2.22h4.54v2.25H113V31h2.28v4.54h2.23V56h-2.19v2.28h-2.28v2.25h-2.26v2.26h-4.54v2.28H104V92.55h-2.39v9.07H99.33v2.26Zm-4.53-9H83.4V92.55H81V87.9H78.78V85.62H76.51V83.37H74.23V81.09H72V78.83H69.72V76.56H67.44v-2.2H65.16v2.25H60.51v2.25H58.26v2.2H53.72V78.83H51.46V76.58H46.92V74.35H42.4v2.26H40.12v2.26H37.71v4.54H35.46v2.25H33.2v4.68H30.93v2.25h-2.2v4.49H49.19Zm9.09-45.55v2.28H33.19v2.25H28.73v2.28H31v2.28h6.81v2.26h4.66v2.25H47v2.28h4.52v2.18h9.07V65.11h4.66V62.86h4.54V60.58H72V58.32h2.25V53.78h2.28V51.53h2.19V49.28ZM94.75,62.83H90.23V60.58H88v-2.2H83.44v4.49H81v2.27H78.77v2.28H76.56v4.65h2.26v2.28h2.25v2.28h2.41v2.25h2.25v2.26H88v2.27h2.25v4.46h4.49ZM92.56,33.27V44.65h2.25v2.18h4.54V44.58h2.25v-6.8h2.34v-9h-2.39V26.38H97v2.39H94.76v4.5ZM28.69,76.57H31V72h2.22V67.38H28.66V65.11H24.15v-2.2H21.94v16h2.22v2.19h2.28V78.85h2.25Zm72.84-18.22V53.78H99.31v-2.2H94.76v2.23h-2.2v4.54h2.23v2.2h4.54v-2.2Z"/></svg>