<svg id="Layer_1" data-name="Layer 1" xmlns="http://www.w3.org/2000/svg" viewBox="0 0 128 128"><path d="M84.28,63.93V60H76.19V55.91h-8.1V51.84H55.91v-4H47.83V39.71h8V35.64H51.9V19.44h4V15.36h4.07v-4H72.05v8h-4V15.41H64v3.94H60V31.54h4v4h8.12v4.07h8.1v4h8.13v-4h4.07V35.64h4V27.51H92.43v-4h8v4h4v8.1h-4V43.7h-4v4H88.39v8.13h3.94v8.06Z"/><path d="M92.36,72.08v4h-4v8.1H80.25v-4H68.08v-4H51.87v-4H35.68V55.92h4v-4H51.81v4H64v4h8.12V64h8.1V68H88.3v4Z"/><path d="M64,80.18v4.07H76.13v4h4v4h-4V96.4h-4v4H47.83v-4H43.76v-4H39.69V80.23h-4v-4H47.75v4Z"/><path d="M96.43,100.42v-8h-4V80.29h8v4h4V96.4h-4v4Z"/><path d="M27.53,43.75V35.69H39.65v4h4v4H39.71v4H31.59v-4Z"/><path d="M23.47,60v-4h8V68h-8v4h-4V60Z"/><path d="M80.22,100.52v-4h4v16.15h-4v4h-4v-8h-4v-4h4v-4.07Z"/><path d="M27.51,92.34v4h-4V84.3h4v-4h4.06v4h4v8.08Z"/><path d="M100.48,68V64h-4V55.94h8v4h4V68Z"/></svg>