<?xml version="1.0" encoding="UTF-8"?><svg id="a" xmlns="http://www.w3.org/2000/svg" xmlns:xlink="http://www.w3.org/1999/xlink" viewBox="0 0 211 125"><defs><style>.bb{fill:url(#t);}.bc{fill:url(#ac);}.bc,.bd,.be,.bf,.bg,.bh,.bi,.bj,.bk,.bl,.bm,.bn{fill-opacity:.2;}.bo{fill:#fff;}.bp{fill:#ffebc3;}.bd{fill:url(#aa);}.bq{fill:url(#r);}.br{fill:url(#ai);}.bs{fill:url(#l);}.be{fill:url(#u);}.bt{fill:url(#af);}.bu{fill:url(#ay);opacity:.72;}.bu,.bv,.bw,.bx{isolation:isolate;}.by{fill:url(#c);}.c`{fill:url(#aq);}.ca{fill:url(#ah);}.cb{fill:url(#v);}.cc{fill:url(#a`);}.bv{fill:url(#b`);opacity:.49;}.cd{fill:url(#as);}.ce{fill:url(#m);}.cf{fill:#768ee8;}.bf{fill:url(#at);}.cg{fill:url(#ao);}.ch{fill:#8c5400;}.ci{fill:#531d84;}.cj{fill:url(#f);}.ck,.bx{fill:#ffb032;}.cl{fill:#ffe3ad;}.cm{opacity:.68;}.cn{fill:url(#p);}.co{fill:url(#g);}.bg{fill:url(#s);}.cp{fill:url(#ad);}.cq{fill:url(#ab);}.cr{fill:url(#ak);}.cs{opacity:.6;}.ct{fill:url(#b);}.bh{fill:url(#w);}.cu{fill:url(#i);}.bw{fill:url(#ba);opacity:.57;}.cv{fill:#ffd075;}.cw{fill:url(#aj);}.cx{fill:url(#h);}.cy{fill:url(#d);}.d`{fill:url(#e);}.da{fill:url(#am);}.db{fill:url(#x);}.dc{fill:none;stroke:#531d84;stroke-width:.5px;}.dd{mask:url(#aw);}.bx{opacity:.76;}.bi{fill:url(#ap);}.de{fill:url(#n);}.bj{fill:url(#ae);}.bk{fill:url(#an);}.df{fill:#ffe0a5;}.dg{fill:#be8871;}.dg,.dh{fill-rule:evenodd;}.di{fill:url(#j);}.dj{fill:url(#o);}.dk{fill:#f90;}.bl{fill:url(#al);}.bm{fill:url(#y);}.dl{fill:url(#q);}.dm{fill:url(#ag);}.bn{fill:url(#ar);}.dn{mask:url(#au);}.do{fill:url(#k);}</style><linearGradient id="b" x1="140.6" y1="18.34" x2="123.54" y2="86.57" gradientTransform="translate(0 126) scale(1 -1)" gradientUnits="userSpaceOnUse"><stop offset="0" stop-color="#ffc24c"/><stop offset="1" stop-color="#ffc24c" stop-opacity="0"/></linearGradient><linearGradient id="c" x1="20.7" y1="89.72" x2="20.7" y2="13.17" gradientTransform="translate(0 126) scale(1 -1)" gradientUnits="userSpaceOnUse"><stop offset=".45" stop-color="#667be6"/><stop offset="1" stop-color="#ef754e"/></linearGradient><linearGradient id="d" x1="49.61" y1="89.72" x2="49.61" y2="13.17" gradientTransform="translate(0 126) scale(1 -1)" gradientUnits="userSpaceOnUse"><stop offset=".45" stop-color="#667be6"/><stop offset="1" stop-color="#ef754e"/></linearGradient><linearGradient id="e" x1="80.01" y1="89.72" x2="80.01" y2="13.17" gradientTransform="translate(0 126) scale(1 -1)" gradientUnits="userSpaceOnUse"><stop offset=".45" stop-color="#667be6"/><stop offset="1" stop-color="#ef754e"/></linearGradient><linearGradient id="f" x1="107.62" y1="89.72" x2="107.62" y2="13.17" gradientTransform="translate(0 126) scale(1 -1)" gradientUnits="userSpaceOnUse"><stop offset=".45" stop-color="#667be6"/><stop offset="1" stop-color="#ef754e"/></linearGradient><linearGradient id="g" x1="132.13" y1="89.72" x2="132.13" y2="13.17" gradientTransform="translate(0 126) scale(1 -1)" gradientUnits="userSpaceOnUse"><stop offset=".45" stop-color="#667be6"/><stop offset="1" stop-color="#ef754e"/></linearGradient><linearGradient id="h" x1="160.84" y1="89.72" x2="160.84" y2="13.17" gradientTransform="translate(0 126) scale(1 -1)" gradientUnits="userSpaceOnUse"><stop offset=".45" stop-color="#667be6"/><stop offset="1" stop-color="#ef754e"/></linearGradient><linearGradient id="i" x1="190.87" y1="89.72" x2="190.87" y2="13.17" gradientTransform="translate(0 126) scale(1 -1)" gradientUnits="userSpaceOnUse"><stop offset=".45" stop-color="#667be6"/><stop offset="1" stop-color="#ef754e"/></linearGradient><linearGradient id="j" x1="20.7" y1="86.39" x2="20.7" y2="9.84" gradientTransform="translate(0 126) scale(1 -1)" gradientUnits="userSpaceOnUse"><stop offset=".02" stop-color="#3247b7"/><stop offset=".45" stop-color="#5c1fa9"/><stop offset="1" stop-color="#7b2d15"/></linearGradient><linearGradient id="k" x1="49.61" y1="86.39" x2="49.61" y2="9.84" gradientTransform="translate(0 126) scale(1 -1)" gradientUnits="userSpaceOnUse"><stop offset=".02" stop-color="#3247b7"/><stop offset=".45" stop-color="#5c1fa9"/><stop offset="1" stop-color="#7b2d15"/></linearGradient><linearGradient id="l" x1="80.01" y1="86.39" x2="80.01" y2="9.84" gradientTransform="translate(0 126) scale(1 -1)" gradientUnits="userSpaceOnUse"><stop offset=".02" stop-color="#3247b7"/><stop offset=".45" stop-color="#5c1fa9"/><stop offset="1" stop-color="#7b2d15"/></linearGradient><linearGradient id="m" x1="107.62" y1="86.39" x2="107.62" y2="9.84" gradientTransform="translate(0 126) scale(1 -1)" gradientUnits="userSpaceOnUse"><stop offset=".02" stop-color="#3247b7"/><stop offset=".45" stop-color="#5c1fa9"/><stop offset="1" stop-color="#7b2d15"/></linearGradient><linearGradient id="n" x1="132.13" y1="86.39" x2="132.13" y2="9.84" gradientTransform="translate(0 126) scale(1 -1)" gradientUnits="userSpaceOnUse"><stop offset=".02" stop-color="#3247b7"/><stop offset=".45" stop-color="#5c1fa9"/><stop offset="1" stop-color="#7b2d15"/></linearGradient><linearGradient id="o" x1="160.84" y1="86.39" x2="160.84" y2="9.84" gradientTransform="translate(0 126) scale(1 -1)" gradientUnits="userSpaceOnUse"><stop offset=".02" stop-color="#3247b7"/><stop offset=".45" stop-color="#5c1fa9"/><stop offset="1" stop-color="#7b2d15"/></linearGradient><linearGradient id="p" x1="190.87" y1="86.39" x2="190.87" y2="9.84" gradientTransform="translate(0 126) scale(1 -1)" gradientUnits="userSpaceOnUse"><stop offset=".02" stop-color="#3247b7"/><stop offset=".45" stop-color="#5c1fa9"/><stop offset="1" stop-color="#7b2d15"/></linearGradient><linearGradient id="q" x1="119.87" y1="52.58" x2="103.23" y2="53" gradientTransform="translate(0 126) scale(1 -1)" gradientUnits="userSpaceOnUse"><stop offset="0" stop-color="#ffa110"/><stop offset="1" stop-color="#ffa110" stop-opacity="0"/></linearGradient><linearGradient id="r" x1="20.7" y1="89.72" x2="20.7" y2="13.17" gradientTransform="translate(0 126) scale(1 -1)" gradientUnits="userSpaceOnUse"><stop offset=".4" stop-color="#667be6"/><stop offset=".8" stop-color="#e63710"/></linearGradient><linearGradient id="s" x1="20.7" y1="89.72" x2="20.7" y2="55.19" gradientTransform="translate(0 126) scale(1 -1)" gradientUnits="userSpaceOnUse"><stop offset="0" stop-color="#a09eff"/><stop offset=".47" stop-color="#8fc1fd"/><stop offset=".68" stop-color="#5b2678"/><stop offset=".98" stop-color="#365ce3"/></linearGradient><linearGradient id="t" x1="49.61" y1="89.72" x2="49.61" y2="13.17" gradientTransform="translate(0 126) scale(1 -1)" gradientUnits="userSpaceOnUse"><stop offset=".4" stop-color="#667be6"/><stop offset=".8" stop-color="#e63710"/></linearGradient><linearGradient id="u" x1="49.61" y1="89.72" x2="49.61" y2="55.19" gradientTransform="translate(0 126) scale(1 -1)" gradientUnits="userSpaceOnUse"><stop offset="0" stop-color="#a09eff"/><stop offset=".47" stop-color="#8fc1fd"/><stop offset=".68" stop-color="#5b2678"/><stop offset=".98" stop-color="#365ce3"/></linearGradient><linearGradient id="v" x1="80.01" y1="89.72" x2="80.01" y2="13.17" gradientTransform="translate(0 126) scale(1 -1)" gradientUnits="userSpaceOnUse"><stop offset=".4" stop-color="#667be6"/><stop offset=".8" stop-color="#e63710"/></linearGradient><linearGradient id="w" x1="80.01" y1="89.72" x2="80.01" y2="55.19" gradientTransform="translate(0 126) scale(1 -1)" gradientUnits="userSpaceOnUse"><stop offset="0" stop-color="#a09eff"/><stop offset=".47" stop-color="#8fc1fd"/><stop offset=".68" stop-color="#5b2678"/><stop offset=".98" stop-color="#365ce3"/></linearGradient><linearGradient id="x" x1="107.62" y1="89.72" x2="107.62" y2="13.17" gradientTransform="translate(0 126) scale(1 -1)" gradientUnits="userSpaceOnUse"><stop offset=".4" stop-color="#667be6"/><stop offset=".8" stop-color="#e63710"/></linearGradient><linearGradient id="y" x1="107.62" y1="89.72" x2="107.62" y2="55.19" gradientTransform="translate(0 126) scale(1 -1)" gradientUnits="userSpaceOnUse"><stop offset="0" stop-color="#a09eff"/><stop offset=".47" stop-color="#8fc1fd"/><stop offset=".68" stop-color="#5b2678"/><stop offset=".98" stop-color="#365ce3"/></linearGradient><linearGradient id="a`" x1="132.13" y1="89.72" x2="132.13" y2="13.17" gradientTransform="translate(0 126) scale(1 -1)" gradientUnits="userSpaceOnUse"><stop offset=".4" stop-color="#667be6"/><stop offset=".8" stop-color="#e63710"/></linearGradient><linearGradient id="aa" x1="132.13" y1="89.72" x2="132.13" y2="55.19" gradientTransform="translate(0 126) scale(1 -1)" gradientUnits="userSpaceOnUse"><stop offset="0" stop-color="#a09eff"/><stop offset=".47" stop-color="#8fc1fd"/><stop offset=".68" stop-color="#5b2678"/><stop offset=".98" stop-color="#365ce3"/></linearGradient><linearGradient id="ab" x1="160.84" y1="89.72" x2="160.84" y2="13.17" gradientTransform="translate(0 126) scale(1 -1)" gradientUnits="userSpaceOnUse"><stop offset=".4" stop-color="#667be6"/><stop offset=".8" stop-color="#e63710"/></linearGradient><linearGradient id="ac" x1="160.84" y1="89.72" x2="160.84" y2="55.19" gradientTransform="translate(0 126) scale(1 -1)" gradientUnits="userSpaceOnUse"><stop offset="0" stop-color="#a09eff"/><stop offset=".47" stop-color="#8fc1fd"/><stop offset=".68" stop-color="#5b2678"/><stop offset=".98" stop-color="#365ce3"/></linearGradient><linearGradient id="ad" x1="190.87" y1="89.72" x2="190.87" y2="13.17" gradientTransform="translate(0 126) scale(1 -1)" gradientUnits="userSpaceOnUse"><stop offset=".4" stop-color="#667be6"/><stop offset=".8" stop-color="#e63710"/></linearGradient><linearGradient id="ae" x1="190.87" y1="89.72" x2="190.87" y2="55.19" gradientTransform="translate(0 126) scale(1 -1)" gradientUnits="userSpaceOnUse"><stop offset="0" stop-color="#a09eff"/><stop offset=".47" stop-color="#8fc1fd"/><stop offset=".68" stop-color="#5b2678"/><stop offset=".98" stop-color="#365ce3"/></linearGradient><linearGradient id="af" x1="23.67" y1="46.45" x2="23.67" y2="9.87" gradientTransform="translate(0 126) scale(1 -1)" gradientUnits="userSpaceOnUse"><stop offset="0" stop-color="#d11c3d"/><stop offset="1" stop-color="#780133"/></linearGradient><linearGradient id="ag" x1="58.09" y1="46.45" x2="58.09" y2="9.84" gradientTransform="translate(0 126) scale(1 -1)" gradientUnits="userSpaceOnUse"><stop offset="0" stop-color="#d11c3d"/><stop offset="1" stop-color="#780133"/></linearGradient><linearGradient id="ah" x1="85.04" y1="46.45" x2="85.04" y2="9.84" gradientTransform="translate(0 126) scale(1 -1)" gradientUnits="userSpaceOnUse"><stop offset="0" stop-color="#d11c3d"/><stop offset="1" stop-color="#780133"/></linearGradient><linearGradient id="ai" x1="109.35" y1="46.45" x2="109.35" y2="9.84" gradientTransform="translate(0 126) scale(1 -1)" gradientUnits="userSpaceOnUse"><stop offset="0" stop-color="#d11c3d"/><stop offset="1" stop-color="#780133"/></linearGradient><linearGradient id="aj" x1="158.74" y1="46.45" x2="158.74" y2="9.84" gradientTransform="translate(0 126) scale(1 -1)" gradientUnits="userSpaceOnUse"><stop offset="0" stop-color="#d11c3d"/><stop offset="1" stop-color="#780133"/></linearGradient><linearGradient id="ak" x1="23.67" y1="48.95" x2="23.67" y2="12.33" gradientTransform="translate(0 126) scale(1 -1)" gradientUnits="userSpaceOnUse"><stop offset="0" stop-color="#ff254c"/><stop offset="1" stop-color="#b9004e"/></linearGradient><linearGradient id="al" x1="23.67" y1="48.95" x2="23.67" y2="12.33" gradientTransform="translate(0 126) scale(1 -1)" gradientUnits="userSpaceOnUse"><stop offset=".51" stop-color="#ffe5e5"/><stop offset=".54" stop-color="#da0202"/></linearGradient><linearGradient id="am" x1="58.09" y1="48.95" x2="58.09" y2="12.33" gradientTransform="translate(0 126) scale(1 -1)" gradientUnits="userSpaceOnUse"><stop offset="0" stop-color="#ff254c"/><stop offset="1" stop-color="#b9004e"/></linearGradient><linearGradient id="an" x1="58.09" y1="48.95" x2="58.09" y2="12.33" gradientTransform="translate(0 126) scale(1 -1)" gradientUnits="userSpaceOnUse"><stop offset=".51" stop-color="#ffe5e5"/><stop offset=".54" stop-color="#da0202"/></linearGradient><linearGradient id="ao" x1="85.04" y1="48.95" x2="85.04" y2="12.33" gradientTransform="translate(0 126) scale(1 -1)" gradientUnits="userSpaceOnUse"><stop offset="0" stop-color="#ff254c"/><stop offset="1" stop-color="#b9004e"/></linearGradient><linearGradient id="ap" x1="85.04" y1="48.95" x2="85.04" y2="12.33" gradientTransform="translate(0 126) scale(1 -1)" gradientUnits="userSpaceOnUse"><stop offset=".51" stop-color="#ffe5e5"/><stop offset=".54" stop-color="#da0202"/></linearGradient><linearGradient id="aq" x1="109.35" y1="48.95" x2="109.35" y2="12.33" gradientTransform="translate(0 126) scale(1 -1)" gradientUnits="userSpaceOnUse"><stop offset="0" stop-color="#ff254c"/><stop offset="1" stop-color="#b9004e"/></linearGradient><linearGradient id="ar" x1="109.35" y1="48.95" x2="109.35" y2="12.33" gradientTransform="translate(0 126) scale(1 -1)" gradientUnits="userSpaceOnUse"><stop offset=".51" stop-color="#ffe5e5"/><stop offset=".54" stop-color="#da0202"/></linearGradient><linearGradient id="as" x1="158.74" y1="48.95" x2="158.74" y2="12.33" gradientTransform="translate(0 126) scale(1 -1)" gradientUnits="userSpaceOnUse"><stop offset="0" stop-color="#ff254c"/><stop offset="1" stop-color="#b9004e"/></linearGradient><linearGradient id="at" x1="158.74" y1="48.95" x2="158.74" y2="12.33" gradientTransform="translate(0 126) scale(1 -1)" gradientUnits="userSpaceOnUse"><stop offset=".51" stop-color="#ffe5e5"/><stop offset=".54" stop-color="#da0202"/></linearGradient><mask id="au" x="120.32" y="72.9" width="13" height="13" maskUnits="userSpaceOnUse"><g id="av"><rect class="bo" x="120.32" y="72.9" width="13" height="13"/><path class="dh" d="M126.62,84.51c2.93,0,5.31-2.38,5.31-5.31s-2.38-5.31-5.31-5.31-5.31,2.38-5.31,5.31,2.38,5.31,5.31,5.31Zm0-1.41c2.15,0,3.89-1.74,3.89-3.89s-1.74-3.89-3.89-3.89-3.89,1.74-3.89,3.89,1.74,3.89,3.89,3.89Z"/></g></mask><mask id="aw" x="47.26" y="-19.42" width="112.46" height="48.76" maskUnits="userSpaceOnUse"><g id="ax"><path class="dk" d="M51.56,29.19l-4.3-18.78h5.08l2.33,11.43,2.81-11.43h4.4l2.78,11.43,2.33-11.43h5.08l-4.3,18.78h-4.9l-3.18-11.48-3.21,11.48h-4.9Z"/><path class="dk" d="M80.89,29.35c-1.33,0-2.5-.13-3.51-.38-.99-.27-1.83-.74-2.5-1.42-.67-.67-1.18-1.63-1.52-2.88-.34-1.26-.51-2.89-.51-4.88s.17-3.61,.51-4.85c.34-1.26,.84-2.23,1.52-2.91,.67-.67,1.51-1.14,2.5-1.39,1.01-.27,2.18-.4,3.51-.4s2.49,.13,3.49,.4c1.01,.25,1.85,.72,2.53,1.39,.67,.67,1.18,1.64,1.52,2.91,.34,1.25,.51,2.86,.51,4.85s-.17,3.61-.51,4.88c-.34,1.25-.84,2.21-1.52,2.88-.67,.67-1.52,1.15-2.53,1.42-.99,.25-2.16,.38-3.49,.38Zm0-4.4c.84,0,1.49-.13,1.95-.4,.46-.29,.77-.8,.94-1.54,.17-.74,.25-1.81,.25-3.21s-.08-2.54-.25-3.29c-.17-.74-.48-1.24-.94-1.49-.46-.25-1.1-.38-1.95-.38s-1.49,.13-1.95,.38c-.46,.25-.77,.75-.94,1.49-.17,.74-.25,1.84-.25,3.29s.08,2.47,.25,3.21c.17,.74,.48,1.26,.94,1.54,.46,.27,1.1,.4,1.95,.4Z"/><path class="dk" d="M90.23,29.19l2.22-18.78h4.6l3.87,13.19,3.87-13.19h4.55l2.25,18.78h-4.73l-1.21-10.14-2.48,10.14h-4.6l-2.45-9.91-1.16,9.91h-4.73Z"/><path class="dk" d="M113.87,29.19V10.41h7.78c2.02,0,3.47,.45,4.35,1.34,.89,.89,1.34,2.11,1.34,3.67,0,1.08-.22,1.96-.66,2.65-.42,.69-1.06,1.15-1.92,1.36,.89,.22,1.64,.71,2.25,1.47,.61,.76,.91,1.8,.91,3.13,0,1.85-.5,3.18-1.49,3.97-.98,.79-2.44,1.19-4.4,1.19h-8.16Zm4.9-11.4h2.83c.37,0,.64-.14,.81-.43,.18-.29,.28-.64,.28-1.06,0-.57-.12-.96-.35-1.16-.22-.22-.46-.33-.73-.33h-2.83v2.98Zm0,7h3.11c.44,0,.78-.14,1.01-.43,.25-.3,.38-.71,.38-1.21s-.13-.9-.38-1.19c-.24-.3-.57-.45-1.01-.45h-3.11v3.29Z"/><path class="dk" d="M128.84,29.19l5.56-18.78h6.12l5.56,18.78h-5.08l-.76-2.98h-5.64l-.73,2.98h-5.03Zm6.9-7.38h3.36l-1.69-7.23-1.67,7.23Z"/><path class="dk" d="M150.09,29.19V14.81h-4.73v-4.4h14.36v4.4h-4.73v14.38h-4.9Z"/></g></mask><linearGradient id="ay" x1="112.01" y1="9.96" x2="81.89" y2="86.22" gradientTransform="translate(0 126) scale(1 -1)" gradientUnits="userSpaceOnUse"><stop offset="0" stop-color="#ffb032"/><stop offset="1" stop-color="#ffb032" stop-opacity="0"/></linearGradient><linearGradient id="b`" x1="146.32" y1="54.81" x2="93.27" y2="61.53" gradientTransform="translate(0 126) scale(1 -1)" gradientUnits="userSpaceOnUse"><stop offset="0" stop-color="#ffc24c"/><stop offset="1" stop-color="#ffc24c" stop-opacity="0"/></linearGradient><linearGradient id="ba" x1="141.38" y1="54.46" x2="121.96" y2="113.64" gradientTransform="translate(0 126) scale(1 -1)" gradientUnits="userSpaceOnUse"><stop offset="0" stop-color="#ffb032"/><stop offset="1" stop-color="#ffb032" stop-opacity="0"/></linearGradient></defs><path class="ct" d="M143.61,112.83h-22.05l1.25-1.66V38.36h20.8V112.83Z"/><path class="by" d="M34.67,55.35c0,4.91-1.51,8.96-4.54,12.14-3.19,3.32-7.42,4.98-12.7,4.98H6.72v-.45c1.3,0,1.95-1.07,1.95-3.2V36.28h.44c0,.76,.36,1.3,1.08,1.62,.5,.24,1.17,.36,1.99,.36h5.26c5.28,0,9.52,1.66,12.7,4.98,3.03,3.16,4.54,7.19,4.54,12.1Zm-8,0c0-5.99-3.32-8.99-9.95-8.99v18.01c6.61,0,9.93-3.01,9.95-9.03Z"/><path class="cy" d="M65,38.67c-.74,0-1.29,.34-1.63,1.01-.29,.54-.44,1.27-.44,2.19v14.53c0,3.05-.28,5.45-.84,7.21-.69,2.16-1.99,4.03-3.9,5.63-2.57,2.16-5.43,3.24-8.56,3.24s-5.99-1.08-8.56-3.24c-1.91-1.59-3.21-3.47-3.9-5.63-.58-1.75-.88-4.16-.88-7.21v-14.53c0-2.13-.69-3.2-2.07-3.2v-.45h11.87v.45c-1.3,0-1.95,1.03-1.95,3.08v17c0,2.27,.85,3.94,2.55,5.02,.98,.62,1.96,.93,2.95,.93s1.95-.31,2.91-.93c1.7-1.08,2.55-2.75,2.55-5.02v-17c0-2.05-.65-3.08-1.95-3.08v-.45h11.87v.45Z"/><path class="d`" d="M93.91,72.47h-11.87v-.45c1.3,0,1.95-1.07,1.95-3.2v-.65l-7.96-12.06v12.79c0,2.08,.64,3.12,1.91,3.12v.45h-11.83v-.45c1.27,0,1.91-1.07,1.91-3.2v-26.96c0-2.13-.64-3.2-1.91-3.2v-.45h11.83v.45c-1.27,0-1.91,1.04-1.91,3.12v.73l7.96,12.06v-12.71c0-2.13-.65-3.2-1.95-3.2v-.45h11.87v.45c-1.3,0-1.95,1.04-1.95,3.12v27.12c0,2.08,.65,3.12,1.95,3.12v.45Z"/><path class="cj" d="M120.04,72.47h-7.53c-5.31,0-9.56-1.66-12.74-4.98-3.05-3.18-4.58-7.23-4.58-12.14s1.51-8.96,4.54-12.14c3.19-3.32,7.45-4.98,12.78-4.98l2.03,.04c2.04,0,3.07-.66,3.07-1.98h.44v12.75c-1.11-1.94-3.23-2.83-6.33-2.67-2.42,.11-4.45,1.04-6.09,2.79-1.62,1.73-2.43,3.79-2.43,6.19,0,2.11,.64,3.98,1.91,5.63,1.27,1.62,2.89,2.67,4.86,3.16v-6.88c0-2.13-.65-3.2-1.95-3.2v-.45h12.02v.45c-1.33,0-1.99,1.03-1.99,3.08v11.7c0,.94,.12,1.69,.36,2.23,.26,.51,.62,.81,1.07,.89l.2,.04c.08,.03,.2,.04,.36,.04v.45Z"/><path class="co" d="M143.52,112.83h-22.77v-.44c1.3,0,1.95-1.07,1.95-3.2V41.87c0-2.13-.65-3.2-1.95-3.2v-.45h22.77v10.08h-.44c0-1.32-1.05-1.98-3.15-1.98h-9.28v24.12h8.99c2.07,0,3.11-.66,3.11-1.98h.44v12.06h-.44c0-1.32-1.01-1.98-3.03-1.98h-9.07v26.2h9.28c2.1,0,3.15-.66,3.15-1.98h.44v10.08Z"/><path class="cx" d="M176.69,55.35c0,4.4-1.35,8.35-4.06,11.86-2.1,2.7-5.03,4.37-8.8,5.02-1.67,.3-2.51,.97-2.51,2.02h-.96c0-1.05-.84-1.73-2.51-2.02-3.77-.65-6.7-2.32-8.8-5.02-2.71-3.51-4.06-7.46-4.06-11.86s1.35-8.35,4.06-11.86c2.1-2.7,5.03-4.37,8.8-5.02,1.67-.3,2.51-.97,2.51-2.02h.96c0,1.05,.84,1.73,2.51,2.02,3.77,.65,6.7,2.32,8.8,5.02,2.71,3.51,4.06,7.46,4.06,11.86Zm-8.28,0c0-2.08-.64-3.93-1.91-5.55-.98-1.27-2.35-2.06-4.1-2.39-.29-.05-.76-.08-1.39-.08s-1.12,.03-1.43,.08c-1.75,.32-3.12,1.12-4.1,2.39-1.27,1.62-1.91,3.47-1.91,5.55s.64,3.93,1.91,5.55c.98,1.27,2.35,2.06,4.1,2.39,.32,.05,.8,.08,1.43,.08s1.1-.03,1.39-.08c1.75-.32,3.12-1.12,4.1-2.39,1.27-1.62,1.91-3.47,1.91-5.55Z"/><path class="cu" d="M204.77,72.47h-11.87v-.45c1.3,0,1.95-1.07,1.95-3.2v-.65l-7.96-12.06v12.79c0,2.08,.64,3.12,1.91,3.12v.45h-11.82v-.45c1.27,0,1.91-1.07,1.91-3.2v-26.96c0-2.13-.64-3.2-1.91-3.2v-.45h11.82v.45c-1.27,0-1.91,1.04-1.91,3.12v.73l7.96,12.06v-12.71c0-2.13-.65-3.2-1.95-3.2v-.45h11.87v.45c-1.3,0-1.95,1.04-1.95,3.12v27.12c0,2.08,.65,3.12,1.95,3.12v.45Z"/><g><path class="di" d="M34.67,58.68c0,4.91-1.51,8.96-4.54,12.14-3.19,3.32-7.42,4.98-12.7,4.98H6.72v-3.41c1.3,0,1.95,.56,1.95-1.57v-31.21h.44c0,.76,.36,1.3,1.08,1.62,.5,.24,1.17,.36,1.99,.36h5.26c5.28,0,9.52,1.66,12.7,4.98,3.03,3.16,4.54,7.19,4.54,12.1Zm-8,0c0-5.99-3.32-8.99-9.95-8.99v18.01c6.61,0,9.93-3.01,9.95-9.03Z"/><path class="do" d="M65,42c-.74,0-1.29,.34-1.63,1.01-.29,.54-.44,1.27-.44,2.19v14.53c0,3.05-.28,5.45-.84,7.21-.69,2.16-1.99,4.03-3.9,5.63-2.57,2.16-5.43,3.24-8.56,3.24s-5.99-1.08-8.56-3.24c-1.91-1.59-3.21-3.47-3.9-5.63-.58-1.75-.88-4.16-.88-7.21v-14.53c0-2.13-.69-3.2-2.07-3.2v-3.64h11.87v3.64c-1.3,0-1.95,1.03-1.95,3.08v17c0,2.27,.85,3.94,2.55,5.02,.98,.62,1.96,.93,2.95,.93s1.95-.31,2.91-.93c1.7-1.08,2.55-2.75,2.55-5.02v-17c0-2.05-.65-3.08-1.95-3.08v-3.64h11.87v3.64Z"/><path class="bs" d="M93.91,75.8h-11.87v-3.32c1.3,0,1.65-.02,1.95-.32v-.65l-7.96-12.06v12.79s.64-.08,1.91-.08v3.64h-11.83v-3.56c1.27,0,1.91,.24,1.91-.08v-26.96c0-2.13-.64-3.2-1.91-3.2v-3.64h11.83v3.64c-1.27,0-1.91,1.04-1.91,3.12v.73l7.96,12.06v-12.71c0-2.13-.65-3.2-1.95-3.2v-3.64h11.87v3.64c-1.3,0-1.95,1.04-1.95,3.12v27.12c.24,.24,.65,0,1.95,0v3.56Z"/><path class="ce" d="M120.04,75.8h-7.53c-5.31,0-9.56-1.66-12.74-4.98-3.05-3.18-4.58-7.23-4.58-12.14s1.51-8.96,4.54-12.14c3.19-3.32,7.45-4.98,12.78-4.98l2.03,.04c2.04,0,3.07-.66,3.07-1.98h.44v12.75c-1.11-1.94-3.23-2.83-6.33-2.67-2.42,.11-4.45,1.04-6.09,2.79-1.62,1.73-2.43,3.79-2.43,6.19,0,2.11,.64,3.98,1.91,5.63,1.27,1.62,2.89,2.67,4.86,3.16v-6.88c0-2.13-.65-3.2-1.95-3.2v-3.63h12.02v3.63c-1.33,0-1.99,1.03-1.99,3.08v11.7c0,.94-.06-.31,.17,.23,0-.33,.81,0,1.26,.09h.2c.08,.03,.2-.09,.36-.09v3.41Z"/><path class="de" d="M143.52,116.16h-22.77v-3.85c1.3,0,1.95,.57,1.95-1.56V45.2c0-2.13-.65-3.2-1.95-3.2v-3.64h22.77v13.27h-.44c0-1.32-1.05-1.98-3.15-1.98h-9.28v24.12h8.99c2.07,0,3.11-.66,3.11-1.98h.44v12.06h-.44c0-1.32-1.01-1.98-3.03-1.98h-9.07v26.2h9.28c2.1,0,3.15-.66,3.15-1.98h.44v10.08Z"/><path class="dj" d="M176.69,58.68c0,4.4-1.35,8.35-4.06,11.86-2.1,2.7-5.03,4.37-8.8,5.02-1.67,.3-2.51,.97-2.51,2.02h-.96c0-1.05-.84-1.73-2.51-2.02-3.77-.65-6.7-2.32-8.8-5.02-2.71-3.51-4.06-7.46-4.06-11.86s1.35-8.35,4.06-11.86c2.1-2.7,5.03-4.37,8.8-5.02,1.67-.3,2.51-.97,2.51-2.02h.96c0,1.05,.84,1.73,2.51,2.02,3.77,.65,6.7,2.32,8.8,5.02,2.71,3.51,4.06,7.46,4.06,11.86Zm-8.28,0c0-2.08-.64-3.93-1.91-5.55-.98-1.27-2.35-2.06-4.1-2.39-.29-.05-.76-.08-1.39-.08s-1.12,.03-1.43,.08c-1.75,.32-3.12,1.12-4.1,2.39-1.27,1.62-1.91,3.47-1.91,5.55s.64,3.93,1.91,5.55c.98,1.27,2.35,2.06,4.1,2.39,.32,.05,.8,.08,1.43,.08s1.1-.03,1.39-.08c1.75-.32,3.12-1.12,4.1-2.39,1.27-1.62,1.91-3.47,1.91-5.55Z"/><path class="cn" d="M204.77,75.8h-11.87v-3.45c1.3,0,2.04-.29,1.95-.2v-.65l-7.96-12.06v12.79c.24,.24,.64,.12,1.91,.12v3.45h-11.82v-3.45c1.27,0,1.91,.54,1.91-1.59v-25.57c0-2.13-.64-3.2-1.91-3.2v-3.64h11.82v3.64c-1.27,0-1.91,1.04-1.91,3.12v.73l7.96,12.06v-12.71c0-2.13-.65-3.2-1.95-3.2v-3.64h11.87v3.64c-1.3,0-1.95,1.04-1.95,3.12v25.28c0,2.08,.65,1.96,1.95,1.96v3.45Z"/></g><path class="dl" d="M119.89,75.81v-3.33h-9.15c-2.08,0-3.74-.83-7.49-2.08,.42,3.33,2.08,5.41,8.32,5.41h8.32Z"/><path class="bx" d="M141.11,82.05h-10.4l-1.25-4.16,13.73,.42v5.41h-.83c0-1-.83-1.53-1.25-1.66Z"/><path class="bx" d="M140.69,49.59h-9.99l-1.25-4.16,13.73,.42,.42,5.82h-.42c0-1-1.25-2.08-2.5-2.08Z"/><path class="bq" d="M34.67,55.35c0,4.91-1.51,8.96-4.54,12.14-3.19,3.32-7.42,4.98-12.7,4.98H6.72v-.45c1.3,0,1.95-1.07,1.95-3.2V36.28h.44c0,.76,.36,1.3,1.08,1.62,.5,.24,1.17,.36,1.99,.36h5.26c5.28,0,9.52,1.66,12.7,4.98,3.03,3.16,4.54,7.19,4.54,12.1Zm-8,0c0-5.99-3.32-8.99-9.95-8.99v18.01c6.61,0,9.93-3.01,9.95-9.03Z"/><path class="bg" d="M34.67,55.35c0,4.91-1.51,8.96-4.54,12.14-3.19,3.32-7.42,4.98-12.7,4.98H6.72v-.45c1.3,0,1.95-1.07,1.95-3.2V36.28h.44c0,.76,.36,1.3,1.08,1.62,.5,.24,1.17,.36,1.99,.36h5.26c5.28,0,9.52,1.66,12.7,4.98,3.03,3.16,4.54,7.19,4.54,12.1Zm-8,0c0-5.99-3.32-8.99-9.95-8.99v18.01c6.61,0,9.93-3.01,9.95-9.03Z"/><path class="bb" d="M65,38.67c-.74,0-1.29,.34-1.63,1.01-.29,.54-.44,1.27-.44,2.19v14.53c0,3.05-.28,5.45-.84,7.21-.69,2.16-1.99,4.03-3.9,5.63-2.57,2.16-5.43,3.24-8.56,3.24s-5.99-1.08-8.56-3.24c-1.91-1.59-3.21-3.47-3.9-5.63-.58-1.75-.88-4.16-.88-7.21v-14.53c0-2.13-.69-3.2-2.07-3.2v-.45h11.87v.45c-1.3,0-1.95,1.03-1.95,3.08v17c0,2.27,.85,3.94,2.55,5.02,.98,.62,1.96,.93,2.95,.93s1.95-.31,2.91-.93c1.7-1.08,2.55-2.75,2.55-5.02v-17c0-2.05-.65-3.08-1.95-3.08v-.45h11.87v.45Z"/><path class="be" d="M65,38.67c-.74,0-1.29,.34-1.63,1.01-.29,.54-.44,1.27-.44,2.19v14.53c0,3.05-.28,5.45-.84,7.21-.69,2.16-1.99,4.03-3.9,5.63-2.57,2.16-5.43,3.24-8.56,3.24s-5.99-1.08-8.56-3.24c-1.91-1.59-3.21-3.47-3.9-5.63-.58-1.75-.88-4.16-.88-7.21v-14.53c0-2.13-.69-3.2-2.07-3.2v-.45h11.87v.45c-1.3,0-1.95,1.03-1.95,3.08v17c0,2.27,.85,3.94,2.55,5.02,.98,.62,1.96,.93,2.95,.93s1.95-.31,2.91-.93c1.7-1.08,2.55-2.75,2.55-5.02v-17c0-2.05-.65-3.08-1.95-3.08v-.45h11.87v.45Z"/><path class="cb" d="M93.91,72.47h-11.87v-.45c1.3,0,1.95-1.07,1.95-3.2v-.65l-7.96-12.06v12.79c0,2.08,.64,3.12,1.91,3.12v.45h-11.83v-.45c1.27,0,1.91-1.07,1.91-3.2v-26.96c0-2.13-.64-3.2-1.91-3.2v-.45h11.83v.45c-1.27,0-1.91,1.04-1.91,3.12v.73l7.96,12.06v-12.71c0-2.13-.65-3.2-1.95-3.2v-.45h11.87v.45c-1.3,0-1.95,1.04-1.95,3.12v27.12c0,2.08,.65,3.12,1.95,3.12v.45Z"/><path class="bh" d="M93.91,72.47h-11.87v-.45c1.3,0,1.95-1.07,1.95-3.2v-.65l-7.96-12.06v12.79c0,2.08,.64,3.12,1.91,3.12v.45h-11.83v-.45c1.27,0,1.91-1.07,1.91-3.2v-26.96c0-2.13-.64-3.2-1.91-3.2v-.45h11.83v.45c-1.27,0-1.91,1.04-1.91,3.12v.73l7.96,12.06v-12.71c0-2.13-.65-3.2-1.95-3.2v-.45h11.87v.45c-1.3,0-1.95,1.04-1.95,3.12v27.12c0,2.08,.65,3.12,1.95,3.12v.45Z"/><path class="db" d="M120.04,72.47h-7.53c-5.31,0-9.56-1.66-12.74-4.98-3.05-3.18-4.58-7.23-4.58-12.14s1.51-8.96,4.54-12.14c3.19-3.32,7.45-4.98,12.78-4.98l2.03,.04c2.04,0,3.07-.66,3.07-1.98h.44v12.75c-1.11-1.94-3.23-2.83-6.33-2.67-2.42,.11-4.45,1.04-6.09,2.79-1.62,1.73-2.43,3.79-2.43,6.19,0,2.11,.64,3.98,1.91,5.63,1.27,1.62,2.89,2.67,4.86,3.16v-6.88c0-2.13-.65-3.2-1.95-3.2v-.45h12.02v.45c-1.33,0-1.99,1.03-1.99,3.08v11.7c0,.94,.12,1.69,.36,2.23,.26,.51,.62,.81,1.07,.89l.2,.04c.08,.03,.2,.04,.36,.04v.45Z"/><path class="bm" d="M120.04,72.47h-7.53c-5.31,0-9.56-1.66-12.74-4.98-3.05-3.18-4.58-7.23-4.58-12.14s1.51-8.96,4.54-12.14c3.19-3.32,7.45-4.98,12.78-4.98l2.03,.04c2.04,0,3.07-.66,3.07-1.98h.44v12.75c-1.11-1.94-3.23-2.83-6.33-2.67-2.42,.11-4.45,1.04-6.09,2.79-1.62,1.73-2.43,3.79-2.43,6.19,0,2.11,.64,3.98,1.91,5.63,1.27,1.62,2.89,2.67,4.86,3.16v-6.88c0-2.13-.65-3.2-1.95-3.2v-.45h12.02v.45c-1.33,0-1.99,1.03-1.99,3.08v11.7c0,.94,.12,1.69,.36,2.23,.26,.51,.62,.81,1.07,.89l.2,.04c.08,.03,.2,.04,.36,.04v.45Z"/><path class="cc" d="M143.52,112.83h-22.77v-.44c1.3,0,1.95-1.07,1.95-3.2V41.87c0-2.13-.65-3.2-1.95-3.2v-.45h22.77v10.08h-.44c0-1.32-1.05-1.98-3.15-1.98h-9.28v24.12h8.99c2.07,0,3.11-.66,3.11-1.98h.44v12.06h-.44c0-1.32-1.01-1.98-3.03-1.98h-9.07v26.2h9.28c2.1,0,3.15-.66,3.15-1.98h.44v10.08Z"/><path class="bd" d="M143.52,112.83h-22.77v-.44c1.3,0,1.95-1.07,1.95-3.2V41.87c0-2.13-.65-3.2-1.95-3.2v-.45h22.77v10.08h-.44c0-1.32-1.05-1.98-3.15-1.98h-9.28v24.12h8.99c2.07,0,3.11-.66,3.11-1.98h.44v12.06h-.44c0-1.32-1.01-1.98-3.03-1.98h-9.07v26.2h9.28c2.1,0,3.15-.66,3.15-1.98h.44v10.08Z"/><path class="cq" d="M176.69,55.35c0,4.4-1.35,8.35-4.06,11.86-2.1,2.7-5.03,4.37-8.8,5.02-1.67,.3-2.51,.97-2.51,2.02h-.96c0-1.05-.84-1.73-2.51-2.02-3.77-.65-6.7-2.32-8.8-5.02-2.71-3.51-4.06-7.46-4.06-11.86s1.35-8.35,4.06-11.86c2.1-2.7,5.03-4.37,8.8-5.02,1.67-.3,2.51-.97,2.51-2.02h.96c0,1.05,.84,1.73,2.51,2.02,3.77,.65,6.7,2.32,8.8,5.02,2.71,3.51,4.06,7.46,4.06,11.86Zm-8.28,0c0-2.08-.64-3.93-1.91-5.55-.98-1.27-2.35-2.06-4.1-2.39-.29-.05-.76-.08-1.39-.08s-1.12,.03-1.43,.08c-1.75,.32-3.12,1.12-4.1,2.39-1.27,1.62-1.91,3.47-1.91,5.55s.64,3.93,1.91,5.55c.98,1.27,2.35,2.06,4.1,2.39,.32,.05,.8,.08,1.43,.08s1.1-.03,1.39-.08c1.75-.32,3.12-1.12,4.1-2.39,1.27-1.62,1.91-3.47,1.91-5.55Z"/><path class="bc" d="M176.69,55.35c0,4.4-1.35,8.35-4.06,11.86-2.1,2.7-5.03,4.37-8.8,5.02-1.67,.3-2.51,.97-2.51,2.02h-.96c0-1.05-.84-1.73-2.51-2.02-3.77-.65-6.7-2.32-8.8-5.02-2.71-3.51-4.06-7.46-4.06-11.86s1.35-8.35,4.06-11.86c2.1-2.7,5.03-4.37,8.8-5.02,1.67-.3,2.51-.97,2.51-2.02h.96c0,1.05,.84,1.73,2.51,2.02,3.77,.65,6.7,2.32,8.8,5.02,2.71,3.51,4.06,7.46,4.06,11.86Zm-8.28,0c0-2.08-.64-3.93-1.91-5.55-.98-1.27-2.35-2.06-4.1-2.39-.29-.05-.76-.08-1.39-.08s-1.12,.03-1.43,.08c-1.75,.32-3.12,1.12-4.1,2.39-1.27,1.62-1.91,3.47-1.91,5.55s.64,3.93,1.91,5.55c.98,1.27,2.35,2.06,4.1,2.39,.32,.05,.8,.08,1.43,.08s1.1-.03,1.39-.08c1.75-.32,3.12-1.12,4.1-2.39,1.27-1.62,1.91-3.47,1.91-5.55Z"/><path class="cp" d="M204.77,72.47h-11.87v-.45c1.3,0,1.95-1.07,1.95-3.2v-.65l-7.96-12.06v12.79c0,2.08,.64,3.12,1.91,3.12v.45h-11.82v-.45c1.27,0,1.91-1.07,1.91-3.2v-26.96c0-2.13-.64-3.2-1.91-3.2v-.45h11.82v.45c-1.27,0-1.91,1.04-1.91,3.12v.73l7.96,12.06v-12.71c0-2.13-.65-3.2-1.95-3.2v-.45h11.87v.45c-1.3,0-1.95,1.04-1.95,3.12v27.12c0,2.08,.65,3.12,1.95,3.12v.45Z"/><path class="bj" d="M204.77,72.47h-11.87v-.45c1.3,0,1.95-1.07,1.95-3.2v-.65l-7.96-12.06v12.79c0,2.08,.64,3.12,1.91,3.12v.45h-11.82v-.45c1.27,0,1.91-1.07,1.91-3.2v-26.96c0-2.13-.64-3.2-1.91-3.2v-.45h11.82v.45c-1.27,0-1.91,1.04-1.91,3.12v.73l7.96,12.06v-12.71c0-2.13-.65-3.2-1.95-3.2v-.45h11.87v.45c-1.3,0-1.95,1.04-1.95,3.12v27.12c0,2.08,.65,3.12,1.95,3.12v.45Z"/><path class="dk" d="M118.23,69.56v-13.31c0-.28,.11-2.02,1.66-2.5-2,0-2.5,1.66-2.5,2.5v13.73c.14,.55,.67,1.66,1.66,1.66-.66,0-.83-1.39-.83-2.08Z"/><g class="cs"><path class="bt" d="M40.61,115.72h-11.81v-3.24c1.29,0,1.94,.54,1.94-1.59v-10.74l-6.74,15.58h-.71l-6.7-15.58v10.83c0,2.08,.63,1.87,1.9,1.87v2.88H6.72v-2.88c1.27,0,1.9,.18,1.9-1.95v-25.75c0-2.08-.62-3.13-1.86-3.16v-2.84h11.73v2.8c-.71,0-1.07,.35-1.07,1.05,0,.46,.18,1.15,.55,2.06l5.67,13.11,5.67-13.11c.37-.86,.55-1.55,.55-2.06,0-.65-.34-.98-1.03-1.01v-2.84h11.77v2.8c-1.29,0-1.94,1.04-1.94,3.12v25.92c0,2.08,.65,1.51,1.94,1.51v3.24Z"/><path class="dm" d="M75.04,115.72h-11.81v-2.88c.71,0,.52,0,.52,0,0,0,.37,.24,0-.68l-.44-1.01h-10.42l-.48,1.01c-.37,.92-.55,.42-.55,.87,.42,0,.36-.14,1.07-.14v2.83h-11.77v-3.24c1.35,0,2.47,1.73,3.37-.4l13.2-30.58h.71l13.2,30.58c.9,2.13,2.03,.4,3.41,.4v3.24Zm-15.22-12.66l-1.74-4-1.7,4h3.45Z"/><path class="ca" d="M96.55,105.93c0,3.37-1.27,5.97-3.8,7.81-2.22,1.62-4.99,2.43-8.32,2.43-2.77,0-5.23-.57-7.37-1.7-.48-.27-.91-.4-1.31-.4-.92,0-1.37,.58-1.35,1.74l-.44,.04v-12.62h.44v.49c0,1.02,1.1,2.09,3.29,3.2,2.22,1.11,4.33,1.66,6.34,1.66,2.56,0,3.84-1,3.84-2.99,0-1.08-.86-2-2.58-2.75-1.32-.43-2.66-.86-4-1.3-2.85-.97-4.81-2.18-5.87-3.64-1.27-1.75-1.9-3.95-1.9-6.59,0-3.37,1.27-5.97,3.8-7.81,2.22-1.62,4.99-2.43,8.32-2.43,2.77,0,5.23,.57,7.37,1.7,.48,.27,.91,.4,1.31,.4,.9,0,1.33-.58,1.31-1.74l.48-.04v12.62h-.44v-.49c0-1.03-1.11-2.09-3.33-3.2-2.19-1.11-4.29-1.66-6.3-1.66-2.56,0-3.84,1-3.84,2.99,0,1.08,.86,2,2.58,2.75,1.32,.43,2.66,.86,4,1.29,2.88,.97,4.84,2.17,5.87,3.6,1.27,1.78,1.9,3.99,1.9,6.64Z"/><path class="br" d="M120.73,91.57h-.44c0-1.32-1.04-1.98-3.13-1.98h-3.84v21.2c0,2.05,.7,2.05,2,2.05l-.06,2.88h-11.81v-2.77c1.29,0,2.08,0,1.94-.87v-22.49h-3.84c-2.09,0-3.13,.66-3.13,1.98h-.44v-10.07h22.75v10.07Z"/><path class="cw" d="M172.31,116.13h-11.77v-3.24c.71,0,.95-.06,1.37-.06,0,0-.5,.67-.89-.22l-3.13-7.36c-.64,.03-1.35,.04-2.14,.04h-.71v7.32c0,.22,.65,.28,1.94,.28v3.24h-11.81v-3.24c1.29,0,1.94,.36,1.94-.4v-32.53h.44c0,1.32,1,1.98,3.01,1.98h5.19c3.12,0,5.52,.27,7.21,.81,2.22,.73,4,2.12,5.35,4.17,1.43,2.16,2.14,4.38,2.14,6.67s-.71,4.56-2.14,6.72c-.9,1.38-1.98,2.44-3.25,3.2l3.85,8.98c.5,.76,2.06,.4,3.41,.4v3.24Zm-10.98-21.2c.29-.89,.29-1.77,0-2.63-.34-1.13-1.08-1.83-2.22-2.1-.53-.11-1.89-.16-4.08-.16v7.16c2.19,0,3.55-.05,4.08-.16,1.14-.27,1.88-.97,2.22-2.1Z"/></g><path class="cr" d="M40.61,113.22h-11.81v-.44c1.29,0,1.94-1.07,1.94-3.2v-11.93l-6.74,15.58h-.71l-6.7-15.58v12.02c0,2.08,.63,3.11,1.9,3.11v.44H6.72v-.44c1.27,0,1.9-1.07,1.9-3.2v-26.94c0-2.08-.62-3.13-1.86-3.16v-.49h11.73v.44c-.71,0-1.07,.35-1.07,1.05,0,.46,.18,1.15,.55,2.06l5.67,13.11,5.67-13.11c.37-.86,.55-1.55,.55-2.06,0-.65-.34-.98-1.03-1.01v-.49h11.77v.44c-1.29,0-1.94,1.04-1.94,3.12v27.11c0,2.08,.65,3.11,1.94,3.11v.44Z"/><path class="bl" d="M40.61,113.22h-11.81v-.44c1.29,0,1.94-1.07,1.94-3.2v-11.93l-6.74,15.58h-.71l-6.7-15.58v12.02c0,2.08,.63,3.11,1.9,3.11v.44H6.72v-.44c1.27,0,1.9-1.07,1.9-3.2v-26.94c0-2.08-.62-3.13-1.86-3.16v-.49h11.73v.44c-.71,0-1.07,.35-1.07,1.05,0,.46,.18,1.15,.55,2.06l5.67,13.11,5.67-13.11c.37-.86,.55-1.55,.55-2.06,0-.65-.34-.98-1.03-1.01v-.49h11.77v.44c-1.29,0-1.94,1.04-1.94,3.12v27.11c0,2.08,.65,3.11,1.94,3.11v.44Z"/><path class="da" d="M75.04,113.22h-11.81v-.44c.71,0,1.07-.35,1.07-1.05,0-.46-.18-1.15-.55-2.06l-.44-1.01h-10.42l-.48,1.01c-.37,.92-.55,1.6-.55,2.06,0,.7,.36,1.05,1.07,1.05v.44h-11.77v-.44c1.35,0,2.47-1.07,3.37-3.2l13.2-30.58h.71l13.2,30.58c.9,2.13,2.03,3.2,3.41,3.2v.44Zm-15.22-12.66l-1.74-4-1.7,4h3.45Z"/><path class="bk" d="M75.04,113.22h-11.81v-.44c.71,0,1.07-.35,1.07-1.05,0-.46-.18-1.15-.55-2.06l-.44-1.01h-10.42l-.48,1.01c-.37,.92-.55,1.6-.55,2.06,0,.7,.36,1.05,1.07,1.05v.44h-11.77v-.44c1.35,0,2.47-1.07,3.37-3.2l13.2-30.58h.71l13.2,30.58c.9,2.13,2.03,3.2,3.41,3.2v.44Zm-15.22-12.66l-1.74-4-1.7,4h3.45Z"/><path class="cg" d="M96.55,103.43c0,3.37-1.27,5.97-3.8,7.81-2.22,1.62-4.99,2.43-8.32,2.43-2.77,0-5.23-.57-7.37-1.7-.48-.27-.91-.4-1.31-.4-.92,0-1.37,.58-1.35,1.74l-.44,.04v-12.62h.44v.49c0,1.03,1.1,2.09,3.29,3.2,2.22,1.11,4.33,1.66,6.34,1.66,2.56,0,3.84-1,3.84-2.99,0-1.08-.86-2-2.58-2.75-1.32-.43-2.66-.86-4-1.29-2.85-.97-4.81-2.19-5.87-3.64-1.27-1.75-1.9-3.95-1.9-6.59,0-3.37,1.27-5.97,3.8-7.81,2.22-1.62,4.99-2.43,8.32-2.43,2.77,0,5.23,.57,7.37,1.7,.48,.27,.91,.4,1.31,.4,.9,0,1.33-.58,1.31-1.74l.48-.04v12.62h-.44v-.49c0-1.02-1.11-2.09-3.33-3.2-2.19-1.11-4.29-1.66-6.3-1.66-2.56,0-3.84,1-3.84,2.99,0,1.08,.86,2,2.58,2.75,1.32,.43,2.66,.86,4,1.29,2.88,.97,4.84,2.17,5.87,3.6,1.27,1.78,1.9,3.99,1.9,6.64Z"/><path class="bi" d="M96.55,103.43c0,3.37-1.27,5.97-3.8,7.81-2.22,1.62-4.99,2.43-8.32,2.43-2.77,0-5.23-.57-7.37-1.7-.48-.27-.91-.4-1.31-.4-.92,0-1.37,.58-1.35,1.74l-.44,.04v-12.62h.44v.49c0,1.03,1.1,2.09,3.29,3.2,2.22,1.11,4.33,1.66,6.34,1.66,2.56,0,3.84-1,3.84-2.99,0-1.08-.86-2-2.58-2.75-1.32-.43-2.66-.86-4-1.29-2.85-.97-4.81-2.19-5.87-3.64-1.27-1.75-1.9-3.95-1.9-6.59,0-3.37,1.27-5.97,3.8-7.81,2.22-1.62,4.99-2.43,8.32-2.43,2.77,0,5.23,.57,7.37,1.7,.48,.27,.91,.4,1.31,.4,.9,0,1.33-.58,1.31-1.74l.48-.04v12.62h-.44v-.49c0-1.02-1.11-2.09-3.33-3.2-2.19-1.11-4.29-1.66-6.3-1.66-2.56,0-3.84,1-3.84,2.99,0,1.08,.86,2,2.58,2.75,1.32,.43,2.66,.86,4,1.29,2.88,.97,4.84,2.17,5.87,3.6,1.27,1.78,1.9,3.99,1.9,6.64Z"/><path class="c`" d="M120.73,89.07h-.44c0-1.32-1.04-1.98-3.13-1.98h-3.84v22.61c0,2.05,.65,3.07,1.94,3.07v.44h-11.81v-.44c1.29,0,1.94-1.07,1.94-3.2v-22.49h-3.84c-2.09,0-3.13,.66-3.13,1.98h-.44v-10.07h22.75v10.07Z"/><path class="bn" d="M120.73,89.07h-.44c0-1.32-1.04-1.98-3.13-1.98h-3.84v22.61c0,2.05,.65,3.07,1.94,3.07v.44h-11.81v-.44c1.29,0,1.94-1.07,1.94-3.2v-22.49h-3.84c-2.09,0-3.13,.66-3.13,1.98h-.44v-10.07h22.75v10.07Z"/><path class="cd" d="M172.31,113.22h-11.77v-.44c.71,0,1.07-.34,1.07-1.01,0-.49-.2-1.17-.59-2.06l-3.13-7.36c-.64,.03-1.35,.04-2.14,.04h-.71v7.32c0,2.05,.65,3.07,1.94,3.07v.44h-11.81v-.44c1.29,0,1.94-1.07,1.94-3.2v-32.53h.44c0,1.32,1,1.98,3.01,1.98h5.19c3.12,0,5.52,.27,7.21,.81,2.22,.73,4,2.12,5.35,4.17,1.43,2.16,2.14,4.38,2.14,6.68s-.71,4.56-2.14,6.72c-.9,1.38-1.98,2.44-3.25,3.2l3.85,8.98c.93,2.13,2.06,3.2,3.41,3.2v.44Zm-10.98-21.2c.29-.89,.29-1.77,0-2.63-.34-1.13-1.08-1.83-2.22-2.1-.53-.11-1.89-.16-4.08-.16v7.16c2.19,0,3.55-.05,4.08-.16,1.14-.27,1.88-.97,2.22-2.1Z"/><path class="bf" d="M172.31,113.22h-11.77v-.44c.71,0,1.07-.34,1.07-1.01,0-.49-.2-1.17-.59-2.06l-3.13-7.36c-.64,.03-1.35,.04-2.14,.04h-.71v7.32c0,2.05,.65,3.07,1.94,3.07v.44h-11.81v-.44c1.29,0,1.94-1.07,1.94-3.2v-32.53h.44c0,1.32,1,1.98,3.01,1.98h5.19c3.12,0,5.52,.27,7.21,.81,2.22,.73,4,2.12,5.35,4.17,1.43,2.16,2.14,4.38,2.14,6.68s-.71,4.56-2.14,6.72c-.9,1.38-1.98,2.44-3.25,3.2l3.85,8.98c.93,2.13,2.06,3.2,3.41,3.2v.44Zm-10.98-21.2c.29-.89,.29-1.77,0-2.63-.34-1.13-1.08-1.83-2.22-2.1-.53-.11-1.89-.16-4.08-.16v7.16c2.19,0,3.55-.05,4.08-.16,1.14-.27,1.88-.97,2.22-2.1Z"/><path class="ck" d="M131.93,46.97l8.77-.71h-9.99v24.13l1.22,.32v-23.74Z"/><path class="ck" d="M130.71,78.72h9.99l-8.77,.84v25.14h-1.22v-25.98Z"/><path class="dg" d="M126.62,84.51c2.93,0,5.31-2.38,5.31-5.31s-2.38-5.31-5.31-5.31-5.31,2.38-5.31,5.31,2.38,5.31,5.31,5.31Zm0-1.41c2.15,0,3.89-1.74,3.89-3.89s-1.74-3.89-3.89-3.89-3.89,1.74-3.89,3.89,1.74,3.89,3.89,3.89Z"/><g class="dn"><path class="ci" d="M131.43,79.2c0,2.65-2.15,4.81-4.81,4.81v1c3.21,0,5.81-2.6,5.81-5.81h-1Zm-4.81-4.81c2.65,0,4.81,2.15,4.81,4.81h1c0-3.21-2.6-5.81-5.81-5.81v1Zm-4.81,4.81c0-2.65,2.15-4.81,4.81-4.81v-1c-3.21,0-5.81,2.6-5.81,5.81h1Zm4.81,4.81c-2.65,0-4.81-2.15-4.81-4.81h-1c0,3.21,2.6,5.81,5.81,5.81v-1Zm3.39-4.81c0,1.87-1.52,3.39-3.39,3.39v1c2.43,0,4.39-1.97,4.39-4.39h-1Zm-3.39-3.39c1.87,0,3.39,1.52,3.39,3.39h1c0-2.42-1.97-4.39-4.39-4.39v1Zm-3.39,3.39c0-1.87,1.52-3.39,3.39-3.39v-1c-2.42,0-4.39,1.97-4.39,4.39h1Zm3.39,3.39c-1.87,0-3.39-1.52-3.39-3.39h-1c0,2.42,1.97,4.39,4.39,4.39v-1Z"/></g><circle class="cf" cx="126.62" cy="74.25" r="2.48"/><circle class="dc" cx="126.62" cy="74.25" r="2.73"/><g><path class="ch" d="M51.56,31.79l-4.3-18.78v-2.61l5.08,2.61,2.33,11.43,2.81-11.43h4.4l2.78,11.43,2.33-11.43,5.08-2.61v2.61l-4.3,18.78h-4.9l-3.18-11.48-3.21,11.48h-4.9Z"/><path class="ch" d="M80.89,31.94c-1.33,0-2.5-.13-3.51-.38-.99-.27-1.83-.74-2.5-1.42-.67-.67-1.18-1.63-1.52-2.88-.34-1.26-.51-2.89-.51-4.88s.17-3.61,.51-4.85c.34-1.26,.84-2.23,1.52-2.91,.67-.67,1.51-1.14,2.5-1.39,1.01-.27,2.18-.4,3.51-.4s2.49,.13,3.49,.4c1.01,.25,1.85,.72,2.53,1.39,.67,.67,1.18,1.64,1.52,2.91,.34,1.25,.51,2.86,.51,4.85s-.17,3.61-.51,4.88c-.34,1.25-.84,2.21-1.52,2.88-.67,.67-1.52,1.15-2.53,1.42-.99,.25-2.16,.38-3.49,.38Zm0-4.4c.84,0,1.49-.13,1.95-.4,.46-.29,.77-.8,.94-1.54,.17-.74,.25-1.81,.25-3.21s-.08-2.54-.25-3.29c-.17-.74-.48-1.24-.94-1.49s-1.1-.38-1.95-.38-1.49,.13-1.95,.38-.77,.75-.94,1.49c-.17,.74-.25,1.84-.25,3.29s.08,2.47,.25,3.21c.17,.74,.48,1.26,.94,1.54,.46,.27,1.1,.4,1.95,.4Z"/><path class="ch" d="M90.23,31.79v-2.59l2.22-16.19h4.6l3.87,13.19,3.87-13.19h4.55l2.25,18.78h-4.73l-1.21-10.14-2.48,10.14h-4.6l-2.45-9.91-1.16,9.91h-4.73Z"/><path class="ch" d="M113.87,31.79V13.01h7.78c2.02,0,3.47,.45,4.35,1.34,.89,.89,1.34,2.11,1.34,3.67,0,1.08-.22,1.96-.66,2.65-.42,.69-1.06,1.15-1.92,1.36,.89,.22,1.64,.71,2.25,1.47,.61,.76,.91,1.8,.91,3.13,0,1.85-.5,3.18-1.49,3.97-.98,.79-2.44,1.19-4.4,1.19h-8.16Zm4.9-11.4h2.83c.37,0,.64-.14,.81-.43,.18-.29,.28-.64,.28-1.06,0-.57-.12-.96-.35-1.16-.22-.22-.46-.33-.73-.33h-2.83v2.98Zm0,7h3.11c.44,0,.78-.14,1.01-.43,.25-.3,.38-.71,.38-1.21s-.13-.9-.38-1.19c-.24-.3-.57-.45-1.01-.45h-3.11v3.29Z"/><path class="ch" d="M128.84,31.79v-2.59l5.56-16.19h6.12l5.56,16.19v2.59h-5.08l-.76-2.98h-5.64l-.73,2.98h-5.03Zm6.9-7.38h3.36l-1.69-7.23-1.67,7.23Z"/><path class="ch" d="M150.09,31.79v-14.38h-4.73v-4.4h14.36v4.4h-4.73v14.38h-4.9Z"/></g><path class="dk" d="M51.56,29.19l-4.3-18.78h5.08l2.33,11.43,2.81-11.43h4.4l2.78,11.43,2.33-11.43h5.08l-4.3,18.78h-4.9l-3.18-11.48-3.21,11.48h-4.9Z"/><path class="dk" d="M80.89,29.35c-1.33,0-2.5-.13-3.51-.38-.99-.27-1.83-.74-2.5-1.42-.67-.67-1.18-1.63-1.52-2.88-.34-1.26-.51-2.89-.51-4.88s.17-3.61,.51-4.85c.34-1.26,.84-2.23,1.52-2.91,.67-.67,1.51-1.14,2.5-1.39,1.01-.27,2.18-.4,3.51-.4s2.49,.13,3.49,.4c1.01,.25,1.85,.72,2.53,1.39,.67,.67,1.18,1.64,1.52,2.91,.34,1.25,.51,2.86,.51,4.85s-.17,3.61-.51,4.88c-.34,1.25-.84,2.21-1.52,2.88-.67,.67-1.52,1.15-2.53,1.42-.99,.25-2.16,.38-3.49,.38Zm0-4.4c.84,0,1.49-.13,1.95-.4,.46-.29,.77-.8,.94-1.54,.17-.74,.25-1.81,.25-3.21s-.08-2.54-.25-3.29c-.17-.74-.48-1.24-.94-1.49-.46-.25-1.1-.38-1.95-.38s-1.49,.13-1.95,.38c-.46,.25-.77,.75-.94,1.49-.17,.74-.25,1.84-.25,3.29s.08,2.47,.25,3.21c.17,.74,.48,1.26,.94,1.54,.46,.27,1.1,.4,1.95,.4Z"/><path class="dk" d="M90.23,29.19l2.22-18.78h4.6l3.87,13.19,3.87-13.19h4.55l2.25,18.78h-4.73l-1.21-10.14-2.48,10.14h-4.6l-2.45-9.91-1.16,9.91h-4.73Z"/><path class="dk" d="M113.87,29.19V10.41h7.78c2.02,0,3.47,.45,4.35,1.34,.89,.89,1.34,2.11,1.34,3.67,0,1.08-.22,1.96-.66,2.65-.42,.69-1.06,1.15-1.92,1.36,.89,.22,1.64,.71,2.25,1.47,.61,.76,.91,1.8,.91,3.13,0,1.85-.5,3.18-1.49,3.97-.98,.79-2.44,1.19-4.4,1.19h-8.16Zm4.9-11.4h2.83c.37,0,.64-.14,.81-.43,.18-.29,.28-.64,.28-1.06,0-.57-.12-.96-.35-1.16-.22-.22-.46-.33-.73-.33h-2.83v2.98Zm0,7h3.11c.44,0,.78-.14,1.01-.43,.25-.3,.38-.71,.38-1.21s-.13-.9-.38-1.19c-.24-.3-.57-.45-1.01-.45h-3.11v3.29Z"/><path class="dk" d="M128.84,29.19l5.56-18.78h6.12l5.56,18.78h-5.08l-.76-2.98h-5.64l-.73,2.98h-5.03Zm6.9-7.38h3.36l-1.69-7.23-1.67,7.23Z"/><path class="dk" d="M150.09,29.19V14.81h-4.73v-4.4h14.36v4.4h-4.73v14.38h-4.9Z"/><g class="dd"><g class="cm"><circle class="cv" cx="108.06" cy="3.92" r="23.33"/></g></g><path class="df" d="M96.82,10.4h-4.31l3.8,.43,2.03,4.1-1.52-4.54Z"/><path class="bp" d="M104.86,10.4l-3.93,12.96,4.49-12.14,3.93-.83h-4.49Z"/><path class="cl" d="M113.89,10.4V29.19h.84V11.23l7.58-.83h-8.43Z"/><path class="cv" d="M134.31,10.4l-5.51,18.8h.97l5.19-17.82,5.51-.97h-6.16Z"/><path class="cv" d="M145.33,10.4v4.21l.97-3.24,13.29-.97h-14.26Z"/><path class="bu" d="M139.84,104.51c2.99,0,3.9-1.39,3.76-2.08V22.12H6.23l124.46,82.39h9.15Z"/><path class="bv" d="M74.98,26.86l56.94,51.28v26.53l-56.94-15.92V26.86Z"/><path class="bw" d="M140.64,71.23c3.02,0,3.1-1.39,2.96-2.08V10.48h-44.52l32.32,60.74h9.23Z"/><path class="dk" d="M117.81,48.35l.42,.42v-12.48l-.83,1.66v9.99l.42,.42Z"/></svg>