<svg id="Layer_1" data-name="Layer 1" xmlns="http://www.w3.org/2000/svg" viewBox="0 0 688.2 174.04"><path d="M151.31,104.48c-.39-12.47-.71-24.94-1.19-37.4-.21-5.54-5.59-9.15-10.51-6.73a14.09,14.09,0,0,1-9.09,1.12c-14.94-2.39-26.18,4.83-30.39,19.38a43.71,43.71,0,0,0-1.78,11.33c.24,2.48.34,5,.77,7.43a43.85,43.85,0,0,0,1.86,7.23c5.48,15,17.25,20,31.77,13.54,2.42-1.08,4-1.32,5.92,1.16,2.67,3.51,6.35,4.17,9.71,2.5,3.55-1.77,5.21-5.34,4.11-9.69A46.39,46.39,0,0,1,151.31,104.48Zm-19.74-8.19a12.66,12.66,0,0,1-2,5.6c-2,2.92-4.76,5-8.3,4.63s-4.63-3.57-5.43-6.46a25.35,25.35,0,0,1,.63-16.16,10.41,10.41,0,0,1,13.65-5.64,3.21,3.21,0,0,1,2,3.13c.07,2,0,4,0,6A87.11,87.11,0,0,1,131.57,96.29Z"/><path d="M466.31,100c-4.17-4.06-4.24-4-.19-8.51,2.57-2.85,5.14-5.71,6.77-9.22,2-4.26,1-8.46-2.35-10.68s-7-1.73-10.34,1.62c-1.64,1.64-3,3.55-4.54,5.31-.52.6-1.09,1.41-2,1s-.8-1.37-.74-2.17c.2-3,.58-6-.25-8.92-1.12-4-4.18-6.44-7.91-6.44-3.53,0-6.72,2.78-7.56,6.74a33,33,0,0,0-.6,4.95c-.5,8-1,15.94-1.43,23.91-.18,0-.67,16-.52,23.95.11,6.1,2.7,9.32,7.28,9.65,4.42.32,8-3.23,8.81-9,.33-2.3.31-4.65.57-7,.18-1.56-.73-3.79,1.21-4.44,1.73-.57,2.82,1.43,4,2.51,3.67,3.38,6.86,7.29,10.91,10.24,4.43,3.23,8.49,3,11.67-.45,3.05-3.29,2.93-6.92-.84-11.06S470.36,103.94,466.31,100Z"/><path d="M513.76,101.19c3.66-.26,7.35-.13,11-.62,7.49-1,13-6.95,13.06-13.54,0-9.85-6.84-18.89-16-21.1C512.3,63.65,503.08,68.4,498.52,78a55.07,55.07,0,0,0-5.35,23.68c0,13.24,5.37,21.32,16.93,25.32,8.67,3,19.06.08,23.85-6.73,2.42-3.43,2.34-7.18-.21-10.11-2.82-3.24-5.64-3.67-9.81-1.49a38.73,38.73,0,0,1-4.42,2.31,7.67,7.67,0,0,1-9.25-3.89C508.59,103.36,509.66,101.48,513.76,101.19Zm3.54-18.74c.93,0,1.9.17,1.93,1.14s-1,1.13-1.79,1.15-1.86.14-1.86-1C515.58,82.82,516.59,82.65,517.3,82.45Z"/><path d="M270.71,93.94a57.77,57.77,0,0,1-6.63-3.44c-1.85-1.19-2-3-.57-4.73,1.27-1.54,2.79-2.44,4.76-1.1a33.54,33.54,0,0,0,4.08,2.84c5.5,2.67,11-.88,11.08-7,0-4-2-6.93-5-9.33-8.54-6.87-21.07-4.85-28.22,4.53-6.8,8.93-5.43,21.18,3.21,27.53,2.13,1.57,4.58,2.71,6.83,4.11.93.58,2.75.65,2.44,2s-2,.72-3,.89c-4.36.67-7.24,3.47-7.51,7.35s2.29,7.24,6.52,8.28a38,38,0,0,0,5.41.69c5.75,0,10.35-.65,14.61-2.8,9.94-5,11.43-15.88,3.25-23.42C278.67,97.38,274.63,95.78,270.71,93.94Z"/><path d="M640.69,99.63c-3.08-3.2-7-5-11-6.76-2.29-1-4.6-1.94-6.82-3.07s-3.63-2.7-2-5.18c1.52-2.29,3.5-3,5.82-.86a13.45,13.45,0,0,0,2.4,1.78c3,1.7,6,2,8.85-.25s3.53-5.15,2.82-8.5-2.87-5.93-5.66-7.93c-8.58-6.11-20.36-3.74-27.32,5.49-6.7,8.89-5.44,20.66,2.93,27.17a52.35,52.35,0,0,0,8.57,5.07c.56.28,1.41.82,1.4,1.22,0,1.11-1.14.91-1.91,1-.49.08-1,.06-1.49.14-4.13.63-6.87,3.31-7.21,7-.33,3.5,1.71,6.56,5.35,8.15,2.37,1,4.88.83,6.82.92,6,.14,11.16-.88,15.82-3.78C646.36,116.13,647.44,106.63,640.69,99.63Z"/><path d="M338.5,97.74c-3.31-1.94-6.33-1.39-9.22,1-1.09.89-1.83,3-3.49,2.28-1.9-.81-1.51-3.13-1.88-4.87-.45-2.15.66-3,2.71-3.18A32.6,32.6,0,0,0,333,91.86a7.05,7.05,0,0,0,5.29-7.06,7.39,7.39,0,0,0-4.69-7.52,12.67,12.67,0,0,0-5.85-1c-2.82.12-3.84-1.27-3.79-3.94a62.47,62.47,0,0,0-.24-8c-.52-4.6-3.51-7.22-8-7.3s-7.4,2.45-8,7.17a33.45,33.45,0,0,0-.26,6.48c.29,4.24-.44,7.16-5.57,8-3.89.67-5.63,4-5.59,7.84s2.14,7.54,5.71,7.78c5.15.36,5.63,3.58,6.29,7.28a43.75,43.75,0,0,0,1.59,6.28C312.31,115,318,119,325.42,119s15-5.45,16.49-12.14C342.8,103,341.51,99.52,338.5,97.74Z"/><path d="M202.75,100.22c-3.17-1.7-6.09-1.2-8.81,1-.78.62-1.46,1.37-2.22,2s-1.63.71-2.12-.18a8.09,8.09,0,0,1-1.06-5.75c.44-1.92,2.34-1.55,3.71-1.85s2.66-.24,4-.49c4.29-.85,6.83-3.89,6.78-8-.06-3.91-2.44-6.73-6.58-7.65a13.52,13.52,0,0,0-3.47-.31c-3.33.16-4.46-1.55-4.21-4.62.08-1,0-2,0-3h.08c-.08-1.66,0-3.34-.26-5-.62-4.33-3.88-7-8.32-7-4.11,0-7,2.67-7.56,7.1a39.64,39.64,0,0,0-.3,7c.22,3.94-.63,6.47-5.26,7.27-4.14.72-6.15,4-6.16,8,0,3.7,1.64,7.18,5.17,7.62,5.32.67,6.21,3.86,6.72,8.05a29.93,29.93,0,0,0,1.45,5.79,16,16,0,0,0,15.34,11.39c8.06.24,16.26-6.22,16.87-13.36C206.81,104.88,206,102,202.75,100.22Z"/><path d="M415.53,110.55c-2.92.65-5.8,1.54-8.84,1.47S401,111,399.8,108c-2.48-5.9-1-11.5,2.07-16.66,2.53-4.26,6.68-3.43,10.75-2.71,2.41.43,5,.85,7.28-.64,2.55-1.65,4.15-3.9,4-7a8.3,8.3,0,0,0-5.54-7.66c-7.93-3.27-19.51-3.73-27.17,4.88C383.38,87,381,97.51,383,108.88c2.2,12.15,11.1,19.31,24.65,19.71,4-.06,9.11-.53,13.69-3.33,4.42-2.71,6-6.69,4.37-10.47C424.22,111.38,420,109.55,415.53,110.55Z"/><path d="M76.88,111.18c-2.6.53-5.1,1.48-7.79,1.66-5.84.4-9.14-2.33-9.52-8.22a23.28,23.28,0,0,1,2-10.69c1.55-3.59,4.27-5.38,8.3-5,2.31.22,4.63.43,7,.45,3.4,0,5.62-1.87,6.87-4.85s.49-5.56-1.47-7.9a10.47,10.47,0,0,0-5.89-3.55c-11.57-2.51-20.6-.62-27.45,9.87-6,9.25-7.19,19.55-4.08,30.15,2.41,8.21,11.08,17.33,22,16.35,5.94-.12,11.38-.68,16.18-3.8,4.13-2.69,5.61-6.5,4.07-10.16C85.64,112.13,81.31,110.26,76.88,111.18Z"/><path d="M585.18,68.31a35.64,35.64,0,0,0-17.76-.76,12.31,12.31,0,0,1-7.78-.33c-5.52-2.24-9.82.15-11.4,6-.84,3.08-.78,6.25-.69,10.73a134.65,134.65,0,0,0,2.07,19,46.12,46.12,0,0,0,3.49,11.94c1.39,2.82,3.34,4.92,6.74,5.23,5.11.48,8.4-2.48,8.6-8,.21-5.88-1.72-11.49-2.45-17.25-1.18-9.28,2.37-12.72,11.69-11.25,2.46.39,4.85,1.22,7.32,1.5,3.44.39,6.24-.86,7.78-4.15a8.47,8.47,0,0,0-1.94-9.62A13.47,13.47,0,0,0,585.18,68.31Z"/><path d="M364.83,68.73c-4.42,0-7.81,3.4-7.92,8.39-.14,7.15-.92,35.07-.89,41.88,0,5.75,3.44,9.81,8.26,9.9,4.59.09,7.82-3.11,8.08-8.87.67-14.45.68-28.91.13-43.36C372.28,71.34,369.45,68.73,364.83,68.73Z"/><path d="M363.4,59.55c4.42,0,8.46-4.23,8.42-8.79,0-4.25-4-8-8.54-8a8.42,8.42,0,0,0-8.38,8.1A8.72,8.72,0,0,0,363.4,59.55Z"/></svg>