<svg id="Layer_1" data-name="Layer 1" xmlns="http://www.w3.org/2000/svg" viewBox="0 0 223.5 200"><defs><style>.cls-1{fill:#231f20;}</style></defs><polygon class="cls-1" points="200.75 65.77 200.75 52.08 187.06 52.08 173.36 52.08 173.36 65.77 187.06 65.77 187.06 79.46 173.36 79.46 173.36 93.15 159.97 93.15 159.67 93.15 145.98 93.15 145.98 106.85 159.67 106.85 159.97 106.85 173.18 106.85 173.36 106.85 173.36 120.54 173.36 134.23 186.87 134.23 187.06 134.23 187.06 120.54 187.06 106.85 187.06 93.15 200.75 93.15 200.75 79.46 214.44 79.46 214.44 65.77 200.75 65.77"/><polygon class="cls-1" points="173.18 147.92 173.18 134.23 159.67 134.23 159.49 134.23 145.98 134.23 145.98 147.92 159.67 147.92 173.18 147.92"/><polygon class="cls-1" points="159.67 52.08 173.36 52.08 173.36 38.38 159.67 38.38 145.98 38.38 145.98 52.08 159.67 52.08"/><polygon class="cls-1" points="145.98 161.62 145.98 147.92 132.29 147.92 118.6 147.92 118.6 161.62 132.29 161.62 145.98 161.62"/><polygon class="cls-1" points="132.29 106.85 118.6 106.85 118.6 120.54 132.29 120.54 145.98 120.54 145.98 106.85 145.79 106.85 132.29 106.85"/><polygon class="cls-1" points="132.29 38.38 145.98 38.38 145.98 24.69 132.29 24.69 118.6 24.69 118.6 38.38 132.29 38.38"/><polygon class="cls-1" points="118.41 175.31 118.6 175.31 118.6 161.62 104.9 161.62 104.9 175.31 118.41 175.31"/><rect class="cls-1" x="104.9" y="120.54" width="13.69" height="13.69"/><rect class="cls-1" x="104.9" y="11" width="13.69" height="13.69"/><polygon class="cls-1" points="91.21 106.85 91.21 93.15 104.9 93.15 104.9 79.46 118.6 79.46 118.6 65.77 104.9 65.77 91.21 65.77 91.21 79.46 77.52 79.46 77.52 93.15 63.82 93.15 50.13 93.15 50.13 79.46 36.44 79.46 36.44 65.77 50.13 65.77 50.13 52.08 36.44 52.08 22.75 52.08 22.75 65.77 9.05 65.77 9.05 79.46 22.75 79.46 22.75 93.15 36.44 93.15 36.44 106.85 36.44 120.54 36.44 134.23 50.13 134.23 50.13 120.54 50.13 106.85 63.82 106.85 63.82 120.54 63.82 134.23 50.13 134.23 50.13 147.92 63.82 147.92 63.82 161.62 63.82 175.31 63.82 189 77.33 189 77.33 175.31 77.52 175.31 77.52 161.62 91.21 161.62 104.9 161.62 104.9 147.92 91.21 147.92 77.52 147.92 77.52 134.23 77.52 120.54 91.21 120.54 104.9 120.54 104.9 106.85 91.21 106.85"/><polygon class="cls-1" points="104.9 38.38 104.9 24.69 91.21 24.69 77.52 24.69 77.52 38.38 91.21 38.38 104.9 38.38"/><polygon class="cls-1" points="77.52 52.08 77.52 38.38 63.82 38.38 50.13 38.38 50.13 52.08 63.82 52.08 77.52 52.08"/></svg>