<svg id="Layer_1" data-name="Layer 1" xmlns="http://www.w3.org/2000/svg" viewBox="0 0 128 73.23"><defs><style>.cls-1{fill:#fddf40;}.cls-2{fill:#fdde40;}.cls-3{fill:#fcde40;}.cls-4{fill:#857005;}.cls-5{fill:#867105;}.cls-6{fill:#857006;}.cls-7{fill:#857007;}.cls-8{fill:#857109;}.cls-9{fill:#867109;}.cls-10{fill:#0b0701;}.cls-11{fill:#080702;}.cls-12{fill:#d44912;}.cls-13{fill:#e29602;}</style></defs><path class="cls-1" d="M13.27,35.42a4.06,4.06,0,0,1-.93-2.66c-.17-3.88-.35-7.75-.46-11.63a8.63,8.63,0,0,1,1.38-5.22,6.47,6.47,0,0,1,4.93-2.69A10.66,10.66,0,0,1,28,17.32c.47.56.84,1.21,1.26,1.82l.11.17h0l.12.22h0l.13.33h0c.13.42.25.83.39,1.24a11.42,11.42,0,0,1,.53,5.31,9.94,9.94,0,0,1-3.42,6.43,14.16,14.16,0,0,1-3.29,2.26,11.38,11.38,0,0,1-7.08.71.54.54,0,0,0-.31,0,3.15,3.15,0,0,1-3.06-.26h0ZM24.05,21.27h0a1.33,1.33,0,0,0-.18-.42,5.6,5.6,0,0,0-4.94-2.09A1.33,1.33,0,0,0,17.64,20a16.69,16.69,0,0,0-.12,2.55c.08,2.42.22,4.85.31,7.28,0,.45.25.5.59.47a5,5,0,0,0,3.91-.61,6,6,0,0,0,2.52-6.75,8.14,8.14,0,0,0-.68-1.51Z"/><path class="cls-1" d="M18.63,59.4a4.11,4.11,0,0,1-.88-2.25c-.38-3.77-.81-7.53-1.12-11.31a12.88,12.88,0,0,1,.2-3.56c.59-3,2.56-4.57,5.45-5.11a10.71,10.71,0,0,1,10.14,3.41,9.77,9.77,0,0,1,1.87,2.72l.11.18h0l.12.22h0c.07.23.12.48.21.71A11,11,0,0,1,31,57.54a7.41,7.41,0,0,1-1.4,1,12.56,12.56,0,0,1-6.1,1.36,4.34,4.34,0,0,0-2.47.21c-.06,0-.14,0-.21,0a3.57,3.57,0,0,1-2-.44h0l-.12-.17h0ZM29,45.1h0a3.39,3.39,0,0,0-.47-.75,5.62,5.62,0,0,0-4.43-1.79c-1.31.08-1.91.59-1.81,1.89.22,3.08.54,6.16.8,9.24,0,.41.21.53.58.51a6,6,0,0,0,3.22-.45,5.88,5.88,0,0,0,3.05-6.13,4.34,4.34,0,0,0-.82-2.36Z"/><path class="cls-2" d="M46.45,20.39a4.12,4.12,0,0,0,3.68,2,4.27,4.27,0,0,0,1.53-.49,7.82,7.82,0,0,0,3-2,5.32,5.32,0,0,0,.52-1V17.47a23.26,23.26,0,0,1-2.08,1.11,6.92,6.92,0,0,1-2.08.63,7.24,7.24,0,0,1-1.9-.43c-.18-.29-.38-.57-.55-.87A2.26,2.26,0,0,1,48.84,15a10,10,0,0,1,6.57-3.21A4.59,4.59,0,0,1,60,14.94a2.56,2.56,0,0,0,.11.24l.16.21h0a3.73,3.73,0,0,0,.09.46,7.17,7.17,0,0,1-1,6.94,13.46,13.46,0,0,1-4.52,3.66,11.15,11.15,0,0,1-4.34,1.45,8.84,8.84,0,0,1-7.18-2.84c-.19-.18-.42-.33-.62-.49a15.42,15.42,0,0,1-2.89-5.95A11.31,11.31,0,0,1,45.47,6.17a6.59,6.59,0,0,1,3.39-.62,3.94,3.94,0,0,1,3.39,2.51c0,.49.12,1,.12,1.46A2.27,2.27,0,0,1,51,11.64a2.43,2.43,0,0,1-2.48-.11c-.22-.14-.57-.32-.74-.23a4.23,4.23,0,0,0-2.17,2.12,7.31,7.31,0,0,0,0,5.25,9.39,9.39,0,0,0,.66,1.4h0l.11.23v0Z"/><path class="cls-2" d="M97.83,59.58a2.79,2.79,0,0,1-.7-2.36,2.47,2.47,0,0,1,2.28-2.37c1.64-.36,3.28-.74,4.9-1.19a8.12,8.12,0,0,0,1.57-.82l.9-.63,0-.14a3.45,3.45,0,0,0-.87-.21c-1.93,0-3.87,0-5.8,0a18.11,18.11,0,0,1-2.33,0,6.4,6.4,0,0,1-3.27-1.46h0l-.15-.13A6.41,6.41,0,0,1,94.06,43a11.21,11.21,0,0,1,9.88-6,4.72,4.72,0,0,1,4.59,2.54l.18.39a12,12,0,0,1,.11,2,2.56,2.56,0,0,1-3.17,2.34,10,10,0,0,1-1.38-.43h0l-.22-.23h0a6.83,6.83,0,0,0-.44-.8.43.43,0,0,0-.38-.16A6,6,0,0,0,100.09,44a4.29,4.29,0,0,0-1.43,2.47l1-.13c1.87,0,3.74-.07,5.6,0A13.22,13.22,0,0,1,109,47a5.45,5.45,0,0,1,3.43,2.81l.1.18h0a2.41,2.41,0,0,0,0,.54,5.24,5.24,0,0,1-2,5.61,17.16,17.16,0,0,1-7.13,3.54c-1.8.44-3.61,1-5.45.12h0L98,59.69h0Z"/><path class="cls-2" d="M80.55,50.11a28.33,28.33,0,0,0,2.39-2.64c1.12-1.57,2.08-3.26,3.16-4.86a2.69,2.69,0,0,1,2-1.06,2.56,2.56,0,0,1,2.69,1.5l.1.2h0a3.56,3.56,0,0,1,0,2,9.83,9.83,0,0,1-.73,1.45c-1.43,1.93-2.89,3.84-4.36,5.75-.4.52-.86,1-1.34,1.55l1.12.46c1,.39,1.88.82,2.84,1.16a38.53,38.53,0,0,0,3.87,1.22A3.56,3.56,0,0,1,94.7,59c0,.22,0,.44,0,.65a2.54,2.54,0,0,1-3.23,2.67,9.44,9.44,0,0,1-1.59-.38c-2.45-.87-4.9-1.78-7.35-2.67l-.59-.2c.11,1.3.17,2.53.32,3.75a2.38,2.38,0,0,1-1.92,2.63A2.83,2.83,0,0,1,77.7,65h0a.09.09,0,0,0-.09,0c-1.12-1.37-1-3.07-1.17-4.66a87.9,87.9,0,0,0-2.4-12.13A7.21,7.21,0,0,1,73.83,47a2.68,2.68,0,0,1,1.68-2.77,2.51,2.51,0,0,1,3,.76,9.3,9.3,0,0,1,.64,1l1.09,4.47Z"/><path class="cls-2" d="M46.33,64.93l-.71-1.05a2.24,2.24,0,0,1-.1-.37c-.09-.58-.36-.73-1-.58a9,9,0,0,1-7.13-1.28h0l-.11-.12h0l-.14-.14A8.3,8.3,0,0,1,35.87,54a38,38,0,0,1,3.69-9.72,11.74,11.74,0,0,1,1.6-1.87,1,1,0,0,1,.49-.22,3.75,3.75,0,0,1,3.55,1.77l.08.14h0a5,5,0,0,1-.7,2.53A33.47,33.47,0,0,0,41.83,53a34.12,34.12,0,0,0-.78,3.64.62.62,0,0,0,.63.82,3.61,3.61,0,0,0,4-1.18,13.82,13.82,0,0,0,3-5q.9-2.28,1.82-4.58A2.79,2.79,0,0,1,54,45.45a3.91,3.91,0,0,1,1.8,1.88,4.51,4.51,0,0,1-.52,2.52c-.32.65-.6,1.32-.87,2C53.6,54,52.69,56,52,58.17a49.64,49.64,0,0,0-1.16,5.14,2.82,2.82,0,0,1-3.13,2.23A7.72,7.72,0,0,1,46.46,65h0Z"/><path class="cls-1" d="M79.56,32.64h0l-.08-.09a2.4,2.4,0,0,1-.16-3,25,25,0,0,1,1.48-2.21Q85,21.69,89.21,16.09a20.71,20.71,0,0,1,1.74-2,3,3,0,0,1,3.42-.54,3.26,3.26,0,0,1,1.54,2c.27,1.36.5,2.73.82,4.08,1,4.2,2,8.38,3,12.57a2.56,2.56,0,0,1-1.49,3,3.19,3.19,0,0,1-3-.19h0l-.11-.12h0L95,34.74a7.45,7.45,0,0,1-1.31-3.09c0-.34-.08-.67-.13-1a7,7,0,0,0-.7,0,16.56,16.56,0,0,1-6.72-.39.73.73,0,0,0-.9.33A27.81,27.81,0,0,1,83,33.07a1.86,1.86,0,0,1-2,.39,13.86,13.86,0,0,1-1.34-.66h0Zm11-7.36,2,.1c-.24-.79-.43-1.42-.63-2.06l-.35-1.2h-.17L89.32,25Z"/><path class="cls-3" d="M62.45,27.08a8.94,8.94,0,0,1,9,9,9,9,0,1,1-18,0A8.93,8.93,0,0,1,62.45,27.08Zm-.14,12.79c.33,0,.66,0,1,0a6.55,6.55,0,0,0,3.59-1.23,1.6,1.6,0,0,0-.08-2.8,7,7,0,0,0-2.3-.9,8.28,8.28,0,0,0-6,.82c-1.6.92-1.57,2.42,0,3.33A7,7,0,0,0,62.31,39.87ZM57.07,35A1.06,1.06,0,0,0,56,33.87,1.09,1.09,0,0,0,54.9,35,1.13,1.13,0,0,0,56,36.05,1.09,1.09,0,0,0,57.07,35Zm11.91.9a1.11,1.11,0,0,0,1.09-1.06A1.15,1.15,0,0,0,69,33.69a1.1,1.1,0,0,0-1.07,1.08A1.06,1.06,0,0,0,69,35.86Z"/><path class="cls-2" d="M62.05,62.16a4.17,4.17,0,0,0,3.23,2A1.22,1.22,0,0,0,66,64a22.26,22.26,0,0,0,2.84-1.67c1.94-1.51,3.2-.91,4.5.84a5.57,5.57,0,0,1,.43.8,3.24,3.24,0,0,1-1.53,3.17,13.26,13.26,0,0,1-6.58,2.46,8.15,8.15,0,0,1-6.41-2.41,4.07,4.07,0,0,0-.59-.4h0l-.11-.12h0l-.12-.22h0l-.11-.12h0l-.11-.12h0l-.1-.12h0L58,65.88a13.68,13.68,0,0,1-2.75-8.09c0-4.17,2.68-8.71,6.76-10.24a5.69,5.69,0,0,1,4.79.09,4.44,4.44,0,0,1,1.82,2.1c0,.19,0,.39.07.59a2.65,2.65,0,0,1-1.34,3,2.42,2.42,0,0,1-2.75-.26c-.18-.14-.51-.3-.68-.23a4.42,4.42,0,0,0-2.72,2.84,8,8,0,0,0,0,4.44,12.5,12.5,0,0,0,.78,1.81h0Z"/><path class="cls-2" d="M71.69,28.8a3.56,3.56,0,0,1-.5-3.72q1.32-4,2.6-8c.25-.79.4-1.61.6-2.42.06-.28.11-.57.17-.87-1.62-.35-3.24-.3-4.69-1h0l-.14-.14A3,3,0,0,1,69,10.44,2.4,2.4,0,0,1,71.18,8a9,9,0,0,1,3.39.24,51.37,51.37,0,0,1,8.85,2.53,5.1,5.1,0,0,1,2.71,2.06c.1.17.17.36.25.53a8.48,8.48,0,0,1,.06.87,2.92,2.92,0,0,1-3.37,2.7,7.46,7.46,0,0,1-1.36-.67L80,15.35c-.08.31-.13.52-.19.72L76.39,27.53a2.53,2.53,0,0,1-2,1.8A3.21,3.21,0,0,1,71.69,28.8Z"/><path class="cls-2" d="M107.64,28.78c1.28-.42,2.57-.82,3.85-1.25,2-.68,2.91-.32,3.88,1.53a2.49,2.49,0,0,1-.9,2.85,9.16,9.16,0,0,1-1.19.75,22.48,22.48,0,0,1-5.49,1.79,4.5,4.5,0,0,1-2.67-.11,16.29,16.29,0,0,1-1.84-1h0l-.11-.12h0L103,33a6.66,6.66,0,0,1-1.44-4.24c-.06-4,0-7.94,0-11.9a3.09,3.09,0,0,1,.57-2.11,2.73,2.73,0,0,1,4.79,1,16.61,16.61,0,0,1,.14,1.72c0,2.66-.15,5.31-.17,8,0,1,.13,2.06.22,3.08C107.15,28.79,107.26,29.05,107.64,28.78Z"/><path class="cls-2" d="M36.31,31.16a16.66,16.66,0,0,1-.83-1.7c-1-2.76-1.91-5.54-2.86-8.32A25.76,25.76,0,0,0,29.78,16a3,3,0,0,1,.41-3.41,2.64,2.64,0,0,1,3.44-.19A6.19,6.19,0,0,1,35,13.86c.7,1.13,1.3,2.33,1.94,3.5l.15.21h0l.11.23h0l.12.23h0a2.08,2.08,0,0,0,.06.36c.56,1.45,1.2,2.88,1.68,4.35.66,2,1.27,4,1.78,6.09a2.5,2.5,0,0,1-2.08,2.82,3.88,3.88,0,0,1-2.31-.33h0Z"/><path class="cls-2" d="M62.49,23.36a2.94,2.94,0,0,1-.67-1.9c-.17-3.35-.26-6.71-.58-10a27.57,27.57,0,0,0-1.12-4.69A3,3,0,0,1,61.4,3.44a2.73,2.73,0,0,1,3.45.82c.25.35.45.74.68,1.11l.11.23h0c.14.56.29,1.11.43,1.67a46.83,46.83,0,0,1,1.05,7.91c.12,2.09.12,4.2.13,6.3A2.62,2.62,0,0,1,63.72,24c-.36-.12-.7-.28-1-.43h0l-.13-.12,0,0Z"/><path class="cls-4" d="M13.37,35.53a3.15,3.15,0,0,0,3.06.26.54.54,0,0,1,.31,0,11.38,11.38,0,0,0,7.08-.71,14.16,14.16,0,0,0,3.29-2.26,9.94,9.94,0,0,0,3.42-6.43A11.42,11.42,0,0,0,30,21.08c-.14-.41-.26-.82-.39-1.24a25.06,25.06,0,0,1,1.09,2.51A10.54,10.54,0,0,1,29,32.47,11.07,11.07,0,0,1,18.88,37c-.51-.05-1-.13-1.51-.17a1.28,1.28,0,0,0-.51.09A2.68,2.68,0,0,1,13.37,35.53Z"/><path class="cls-5" d="M18.83,59.68a3.57,3.57,0,0,0,2,.44c.07,0,.15,0,.21,0a4.34,4.34,0,0,1,2.47-.21,12.56,12.56,0,0,0,6.1-1.36,7.41,7.41,0,0,0,1.4-1A11,11,0,0,0,34.71,44.4c-.09-.23-.14-.48-.21-.71a11.45,11.45,0,0,1,1.62,4.83,10.28,10.28,0,0,1-1.8,7.27,11.46,11.46,0,0,1-11.24,5,1.4,1.4,0,0,0-.66.11A2.69,2.69,0,0,1,18.83,59.68Z"/><path class="cls-6" d="M71.69,28.8a3.21,3.21,0,0,0,2.72.53,2.53,2.53,0,0,0,2-1.8l3.39-11.46c.06-.2.11-.41.19-.72l1.74.87a7.46,7.46,0,0,0,1.36.67,2.92,2.92,0,0,0,3.37-2.7,8.48,8.48,0,0,0-.06-.87,2.42,2.42,0,0,1,.48,2.79,5.14,5.14,0,0,1-1.12,1.37,2.16,2.16,0,0,1-2.59.21l-1.82-1a7.47,7.47,0,0,0-.73-.28c-.2.74-.37,1.44-.58,2.13-1,3.31-2,6.63-3,9.93-.41,1.37-1.23,1.94-3,2A2.51,2.51,0,0,1,71.69,28.8Z"/><path class="cls-6" d="M42.68,24.57c.2.16.43.31.62.49a8.84,8.84,0,0,0,7.18,2.84,11.15,11.15,0,0,0,4.34-1.45,13.46,13.46,0,0,0,4.52-3.66,7.17,7.17,0,0,0,1-6.94,3.73,3.73,0,0,1-.09-.46,7.63,7.63,0,0,1,1.15,4.86,7.8,7.8,0,0,1-2.9,5.13,15.12,15.12,0,0,1-6.11,3.31,7.91,7.91,0,0,1-7.17-1.52A27.64,27.64,0,0,1,42.68,24.57Z"/><path class="cls-6" d="M77.7,65a2.83,2.83,0,0,0,2.62.43,2.38,2.38,0,0,0,1.92-2.63c-.15-1.22-.21-2.45-.32-3.75l.59.2c2.45.89,4.9,1.8,7.35,2.67a9.44,9.44,0,0,0,1.59.38,2.54,2.54,0,0,0,3.23-2.67c0-.21,0-.43,0-.65A2.8,2.8,0,0,1,95,62.19a2.39,2.39,0,0,1-2.6,1.18,15.67,15.67,0,0,1-2.83-.72c-2.13-.75-4.24-1.57-6.36-2.36l-.63-.23c.08.8.16,1.53.23,2.25s0,1.16.11,1.74a2.18,2.18,0,0,1-1.79,2.38C79.5,67,78.55,66.51,77.7,65Z"/><path class="cls-4" d="M98.05,59.8c1.84.92,3.65.32,5.45-.12a17.16,17.16,0,0,0,7.13-3.54,5.24,5.24,0,0,0,2-5.61,2.41,2.41,0,0,1,0-.54,5.24,5.24,0,0,1,.1,5.63,9.82,9.82,0,0,1-3.2,2.88,20.82,20.82,0,0,1-7.93,2.77,3.27,3.27,0,0,1-3.23-1A2.3,2.3,0,0,1,98.05,59.8Z"/><path class="cls-4" d="M46.46,65a7.72,7.72,0,0,0,1.24.51,2.82,2.82,0,0,0,3.13-2.23A49.64,49.64,0,0,1,52,58.17c.7-2.15,1.61-4.22,2.45-6.33.27-.67.55-1.34.87-2a4.51,4.51,0,0,0,.52-2.52,2.6,2.6,0,0,1,.39,2.9c-.83,1.94-1.65,3.89-2.5,5.83a35.07,35.07,0,0,0-2.23,8.09,3.14,3.14,0,0,1-2.26,2.45,2.71,2.71,0,0,1-2.71-1.34A.77.77,0,0,1,46.46,65Z"/><path class="cls-4" d="M58.66,66.76a4.07,4.07,0,0,1,.59.4,8.15,8.15,0,0,0,6.41,2.41,13.26,13.26,0,0,0,6.58-2.46,3.24,3.24,0,0,0,1.53-3.17,2.12,2.12,0,0,1,.5,2.39,4,4,0,0,1-1.53,1.93,14.06,14.06,0,0,1-6.53,2.33,8,8,0,0,1-6.14-2.27C59.56,67.85,59.13,67.28,58.66,66.76Z"/><path class="cls-6" d="M103.28,33.35a16.29,16.29,0,0,0,1.84,1,4.5,4.5,0,0,0,2.67.11,22.48,22.48,0,0,0,5.49-1.79,9.16,9.16,0,0,0,1.19-.75,2.49,2.49,0,0,0,.9-2.85,3.18,3.18,0,0,1,.75,1.87,2.17,2.17,0,0,1-1.23,2.14,15,15,0,0,1-3.11,1.47,21.32,21.32,0,0,1-4.63,1A4,4,0,0,1,103.28,33.35Z"/><path class="cls-4" d="M79.67,32.8a13.86,13.86,0,0,0,1.34.66,1.86,1.86,0,0,0,2-.39,27.81,27.81,0,0,0,2.25-2.48.73.73,0,0,1,.9-.33,16.56,16.56,0,0,0,6.72.39,7,7,0,0,1,.7,0c0,.37.09.7.13,1A16.23,16.23,0,0,1,87,31.32a.94.94,0,0,0-1.23.44,11.42,11.42,0,0,1-1.72,2A2.66,2.66,0,0,1,79.67,32.8Z"/><path class="cls-7" d="M62.67,23.56c.35.15.69.31,1,.43a2.62,2.62,0,0,0,3.53-2.52c0-2.1,0-4.21-.13-6.3a46.83,46.83,0,0,0-1.05-7.91c-.14-.56-.29-1.11-.43-1.67a14.75,14.75,0,0,1,.87,2,38.46,38.46,0,0,1,1.19,8c.12,2.18.16,4.37.21,6.56a10.32,10.32,0,0,1-.15,1.23,2.75,2.75,0,0,1-5.09.19Z"/><path class="cls-6" d="M61.93,61.92a12.5,12.5,0,0,1-.78-1.81,8,8,0,0,1,0-4.44,4.42,4.42,0,0,1,2.72-2.84c.17-.07.5.09.68.23a2.42,2.42,0,0,0,2.75.26,2.65,2.65,0,0,0,1.34-3c0-.2-.05-.4-.07-.59A3.38,3.38,0,0,1,69.16,53a2.46,2.46,0,0,1-3.85,1.17A.92.92,0,0,0,64.12,54a4.63,4.63,0,0,0-2.59,4.43A29.43,29.43,0,0,0,61.93,61.92Z"/><path class="cls-6" d="M46.27,20.07a9.39,9.39,0,0,1-.66-1.4,7.31,7.31,0,0,1,0-5.25,4.23,4.23,0,0,1,2.17-2.12c.17-.09.52.09.74.23a2.43,2.43,0,0,0,2.48.11,2.27,2.27,0,0,0,1.36-2.12c0-.49-.08-1-.12-1.46A3.34,3.34,0,0,1,53,10.91a2.46,2.46,0,0,1-3.79,1.62.89.89,0,0,0-1.15,0,4.74,4.74,0,0,0-2.24,4.74C45.87,18.19,46.11,19.13,46.27,20.07Z"/><path class="cls-8" d="M95.22,35a3.19,3.19,0,0,0,3,.19,2.56,2.56,0,0,0,1.49-3c-1-4.19-2-8.37-3-12.57-.32-1.35-.55-2.72-.82-4.08a3.07,3.07,0,0,1,.51.76c.27.9.51,1.81.71,2.73.81,3.72,1.6,7.45,2.42,11.18.22,1,.52,1.92.78,2.88a2.79,2.79,0,0,1-.87,2.78,3,3,0,0,1-3.36.19A6.28,6.28,0,0,1,95.22,35Z"/><path class="cls-4" d="M85.53,54.48,84.41,54c.48-.55.94-1,1.34-1.55,1.47-1.91,2.93-3.82,4.36-5.75a9.83,9.83,0,0,0,.73-1.45,3.56,3.56,0,0,0,0-2,3.1,3.1,0,0,1,.44,3.44A24.51,24.51,0,0,1,88,51.54C87.23,52.54,86.37,53.5,85.53,54.48Z"/><path class="cls-4" d="M41.68,57.48a.62.62,0,0,1-.63-.82A34.12,34.12,0,0,1,41.83,53a33.47,33.47,0,0,1,2.75-6.43,5,5,0,0,0,.7-2.53,2.49,2.49,0,0,1,.15,3.12,40.4,40.4,0,0,0-3.22,7.65C42,55.69,41.85,56.6,41.68,57.48Z"/><path class="cls-7" d="M94.46,50.44a6.4,6.4,0,0,0,3.27,1.46,18.11,18.11,0,0,0,2.33,0c1.93,0,3.87,0,5.8,0a3.45,3.45,0,0,1,.87.21l0,.14-.9.63c-1.5,0-3,0-4.5.06a10.4,10.4,0,0,1-4.19-.26,5.18,5.18,0,0,1-2.63-1.92A1.16,1.16,0,0,1,94.46,50.44Z"/><path class="cls-9" d="M36.46,31.29a3.88,3.88,0,0,0,2.31.33,2.5,2.5,0,0,0,2.08-2.82c-.51-2.05-1.12-4.08-1.78-6.09-.48-1.47-1.12-2.9-1.68-4.35a2.08,2.08,0,0,1-.06-.36,21.41,21.41,0,0,1,.92,1.94c1,2.76,2,5.52,2.93,8.29.18.54.2,1.14.34,1.7.28,1.08-.85,2.38-1.79,2.65a2.63,2.63,0,0,1-3.28-1.19A.17.17,0,0,1,36.46,31.29Z"/><path class="cls-6" d="M107.64,28.78c-.38.27-.49,0-.52-.29-.09-1-.23-2-.22-3.08,0-2.66.12-5.31.17-8a16.61,16.61,0,0,0-.14-1.72,2.92,2.92,0,0,1,.8,2.15c-.06,2.66-.14,5.32-.19,8C107.53,26.83,107.6,27.8,107.64,28.78Z"/><path class="cls-6" d="M37.43,61.65a9,9,0,0,0,7.13,1.28c.6-.15.87,0,1,.58a2.24,2.24,0,0,0,.1.37,9.42,9.42,0,0,1-6.3-.49A3.4,3.4,0,0,1,37.43,61.65Z"/><path class="cls-6" d="M104.27,43.79a10,10,0,0,0,1.38.43,2.56,2.56,0,0,0,3.17-2.34,12,12,0,0,0-.11-2c1.35,1.48,1,4.51-.91,5.28A2.89,2.89,0,0,1,104.27,43.79Z"/><path class="cls-5" d="M99.7,46.29l-1,.13A4.29,4.29,0,0,1,100.09,44a6,6,0,0,1,3.15-1.33.43.43,0,0,1,.38.16,6.83,6.83,0,0,1,.44.8,23.41,23.41,0,0,0-2.45.81A3.92,3.92,0,0,0,99.7,46.29Z"/><path class="cls-4" d="M49.15,18.78a7.24,7.24,0,0,0,1.9.43,6.92,6.92,0,0,0,2.08-.63,23.26,23.26,0,0,0,2.08-1.11v1.38a11.81,11.81,0,0,1-1.72.91,6.92,6.92,0,0,1-2.24.49A2.33,2.33,0,0,1,49.15,18.78Z"/><path class="cls-4" d="M69.87,12.78c1.45.74,3.07.69,4.69,1-.06.3-.11.59-.17.87-1-.15-1.9-.27-2.84-.48A2.11,2.11,0,0,1,69.87,12.78Z"/><path class="cls-9" d="M80.55,50.11l-.32.3-1.09-4.47a7,7,0,0,1,.64,1.21C80.08,48.13,80.3,49.13,80.55,50.11Z"/><path class="cls-4" d="M29.62,19.85l-.13-.33Z"/><path class="cls-6" d="M104.05,43.57l.22.23Z"/><path class="cls-9" d="M37.23,17.79l-.11-.23Z"/><path class="cls-9" d="M37.34,18l-.12-.23Z"/><path class="cls-4" d="M29.5,19.53l-.12-.22Z"/><path class="cls-4" d="M112.54,50l-.1-.18Z"/><path class="cls-6" d="M46.38,20.29l-.11-.23Z"/><path class="cls-6" d="M103,33l.15.22Z"/><path class="cls-5" d="M34.51,43.69l-.12-.22Z"/><path class="cls-4" d="M90.89,43.25l-.1-.2Z"/><path class="cls-6" d="M62.05,62.16l-.12-.25Z"/><path class="cls-7" d="M65.64,5.6l-.11-.23Z"/><path class="cls-6" d="M60.3,15.39l-.16-.21Z"/><path class="cls-9" d="M37.12,17.57,37,17.36Z"/><path class="cls-4" d="M58,65.88l.17.23Z"/><path class="cls-4" d="M58.44,66.44l.12.22Z"/><path class="cls-6" d="M103.18,33.23l.11.12Z"/><path class="cls-4" d="M79.56,32.64l.12.17Z"/><path class="cls-4" d="M79.48,32.54l.08.09Z"/><path class="cls-9" d="M36.31,31.16l.15.13Z"/><path class="cls-7" d="M62.56,23.45l.13.12Z"/><path class="cls-7" d="M62.49,23.36l.09.11Z"/><path class="cls-4" d="M13.27,35.42l.12.12Z"/><path class="cls-7" d="M94.32,50.32l.15.13Z"/><path class="cls-5" d="M34.4,43.48l-.11-.18Z"/><path class="cls-5" d="M18.63,59.4l.1.13Z"/><path class="cls-5" d="M18.72,59.52l.12.17Z"/><path class="cls-4" d="M97.83,59.58l.12.12Z"/><path class="cls-4" d="M98,59.69l.11.12Z"/><path class="cls-6" d="M37.2,61.4l.14.14Z"/><path class="cls-8" d="M95.12,34.87l.11.12Z"/><path class="cls-6" d="M37.33,61.54l.11.12Z"/><path class="cls-6" d="M46.45,20.39l-.08-.12Z"/><path class="cls-4" d="M29.39,19.31l-.11-.17Z"/><path class="cls-4" d="M69.73,12.65l.14.14Z"/><path class="cls-4" d="M45.28,44.07l-.08-.14Z"/><path class="cls-4" d="M46.33,64.93l.14.1Z"/><path class="cls-6" d="M77.63,65a.09.09,0,0,1,.09,0Z"/><path class="cls-8" d="M95,34.74l.13.14Z"/><path class="cls-4" d="M58.13,66.1l.1.12Z"/><path class="cls-4" d="M58.23,66.21l.11.12Z"/><path class="cls-4" d="M58.33,66.33l.11.12Z"/><path class="cls-4" d="M58.56,66.65l.11.12Z"/><path class="cls-6" d="M24.06,21.27l-1.27-.82a5,5,0,0,0-2.8-.7c-1.2,0-1.79.56-1.78,1.77,0,2.2.08,4.41.13,6.61,0,.73.06,1.45.08,2.17-.34,0-.57,0-.59-.47-.09-2.43-.23-4.86-.31-7.28A16.69,16.69,0,0,1,17.64,20a1.33,1.33,0,0,1,1.3-1.24,5.6,5.6,0,0,1,4.94,2.09A1.33,1.33,0,0,1,24.06,21.27Z"/><path class="cls-6" d="M24.17,21.43l-.12-.16Z"/><path class="cls-5" d="M29,45.11c-.58-.36-1.15-.73-1.75-1.06a4.55,4.55,0,0,0-2.9-.42,1.43,1.43,0,0,0-1.42,1.65c0,1.43.13,2.86.25,4.28s.32,3.1.49,4.65c-.37,0-.55-.1-.58-.51-.26-3.08-.58-6.16-.8-9.24-.1-1.3.5-1.81,1.81-1.89a5.62,5.62,0,0,1,4.43,1.79A3.39,3.39,0,0,1,29,45.11Z"/><path class="cls-5" d="M29.07,45.27,29,45.1Z"/><path class="cls-5" d="M90.54,25.28,89.32,25l2.12-2.92h.17c.12.4.23.8.35,1.2C91.49,24,91,24.63,90.54,25.28Z"/><path class="cls-10" d="M62.31,39.87a7,7,0,0,1-3.77-.78c-1.6-.91-1.63-2.41,0-3.33a8.28,8.28,0,0,1,6-.82,7,7,0,0,1,2.3.9,1.6,1.6,0,0,1,.08,2.8,6.55,6.55,0,0,1-3.59,1.23C63,39.9,62.64,39.87,62.31,39.87Zm4.42-2.17c-1.74-.46-7.4-.26-8.39.29C59.69,39.77,65.6,39.56,66.73,37.7Zm-8.54-.64c1.41-.11,2.85-.3,4.3-.33s2.86.07,4.31.11C65.33,34.76,59,35.17,58.19,37.06Z"/><path class="cls-11" d="M57.07,35A1.09,1.09,0,0,1,56,36.05,1.13,1.13,0,0,1,54.9,35,1.09,1.09,0,0,1,56,33.87,1.06,1.06,0,0,1,57.07,35Z"/><path class="cls-11" d="M69,35.86a1.06,1.06,0,0,1-1.1-1.09A1.1,1.1,0,0,1,69,33.69a1.15,1.15,0,0,1,1.12,1.11A1.11,1.11,0,0,1,69,35.86Z"/><path class="cls-12" d="M66.73,37.7c-1.13,1.86-7,2.07-8.39.29C59.33,37.44,65,37.24,66.73,37.7Z"/><path class="cls-13" d="M58.19,37.06c.76-1.89,7.14-2.3,8.61-.22-1.45,0-2.88-.15-4.31-.11S59.6,37,58.19,37.06Z"/></svg>