<svg id="Layer_1" data-name="Layer 1" xmlns="http://www.w3.org/2000/svg" viewBox="0 0 128 128"><path d="M58.74,102.32V105H26.91v-2.65H24.32V94.43H21.59V83.91H19V70.65H16.41V41.41H19V38.82h2.59V36.1H32.21V33.5H53.38v2.56H56v2.71h2.74v2.61h2.58V44.1H64v2.61h2.61V49.3h45V94.4h-2.54v5.34h-2.61v2.58Zm-8-53V44.17H37.53v2.57H27V65.33h2.69V83.9h2.59V94.37H53.42V91.8H98.53V89.07h2.53V57.35H58.71V54.63H56V52H53.38V49.33Z"/><path d="M64,41.35V38.81H61.38V33.5h5.25V30.89H72V28.17h5.22V25.56h8V23H98.48v2.54h2.58V36.05H95.8v2.74H74.6v2.56Z"/><path d="M69.29,46.68V44.13h7.89V41.42h21.3V38.83H109v7.85Z"/><path d="M74.56,73.24H72V75.8H69.28v2.74H66.69v2.58h-2.6V73.26h2.56V70.65h2.56v-5.3H61.35v2.53H58.74V73.2H53.45V65.32H56V62.6h5.34V60h7.91v2.57h5.32Z"/><path d="M69.21,89.07H64.1V83.92h5.11Z"/></svg>