<?xml version="1.0" encoding="utf-8"?>
<!-- Generator: Adobe Illustrator 25.2.1, SVG Export Plug-In . SVG Version: 6.00 Build 0)  -->
<svg version="1.1" id="Layer_1" xmlns="http://www.w3.org/2000/svg" xmlns:xlink="http://www.w3.org/1999/xlink" x="0px" y="0px"
	 viewBox="0 0 190 190" style="enable-background:new 0 0 190 190;" xml:space="preserve">
<style type="text/css">
	.st0{fill:#333333;stroke:#FFFFFF;stroke-width:3.0493;stroke-miterlimit:10;}
	.st1{fill:#00FFFF;}
	.st2{fill:#FFFFFF;}
</style>
<g>
	<polygon class="st0" points="10.54,43.97 95.49,5.06 179.46,43.97 179.46,146.87 94.41,184.94 10.54,148.66 	"/>
	<polygon class="st1" points="38.72,46.63 95.09,21.5 150.78,46.29 94.41,71.76 	"/>
	<path class="st2" d="M23.8,56.78l20.17,8.99l23.96,53.44l0.6,0.27V76.72L88.7,85.7v82.25l-20.17-8.99l-23.87-52l-0.69-0.31v41.36
		l-20.17-8.99V56.78z"/>
	<path class="st2" d="M167.81,82.66c0-16.45-7.86-22.51-20.68-16.88l-45.15,19.84v21.5l0.02-0.01v8.93l-0.02,0.01v21.27l0.02-0.01
		v9.05l-0.02,0.01v21.5l45.15-19.84c12.82-5.63,20.68-18.72,20.68-35.17c0-5.76-1.44-10.53-3.79-13.73
		C166.37,93.99,167.81,88.19,167.81,82.66z M144.06,127.88l-17.13,7.53v-9.05l17.13-7.53c1.99-0.87,3.43,0.14,3.43,2.96
		C147.5,124.61,146.05,127.01,144.06,127.88z M144.06,97.56l-17.13,7.53v-8.93l17.13-7.53c1.99-0.87,3.43,0.02,3.43,2.84
		S146.05,96.69,144.06,97.56z"/>
</g>
</svg>
