<svg id="Layer_1" data-name="Layer 1" xmlns="http://www.w3.org/2000/svg" viewBox="0 0 230.12 219.84"><defs><style>.cls-1{fill:#231f20;}</style></defs><polygon class="cls-1" points="204.06 14.07 190.37 14.07 176.68 14.07 162.99 14.07 149.29 14.07 135.6 14.07 121.91 14.07 108.21 14.07 94.52 14.07 80.83 14.07 67.14 14.07 53.45 14.07 39.75 14.07 26.06 14.07 12.37 14.07 12.37 27.76 12.37 41.46 12.37 55.15 12.37 68.84 12.37 82.54 26.06 82.54 26.06 68.84 26.06 55.15 26.06 41.46 26.06 27.76 39.75 27.76 53.45 27.76 67.14 27.76 80.83 27.76 94.52 27.76 108.21 27.76 121.91 27.76 135.6 27.76 149.29 27.76 162.99 27.76 176.68 27.76 190.37 27.76 204.06 27.76 204.06 41.46 204.06 55.15 204.06 68.84 204.06 82.54 217.75 82.54 217.75 68.84 217.75 55.15 217.75 41.46 217.75 27.76 217.75 14.07 204.06 14.07"/><polygon class="cls-1" points="190.37 96.23 190.37 109.92 190.37 123.61 204.06 123.61 204.06 109.92 204.06 96.23 204.06 82.54 190.37 82.54 190.37 96.23"/><polygon class="cls-1" points="176.68 137.31 176.68 151 190.18 151 190.18 137.31 190.37 137.31 190.37 123.61 176.68 123.61 176.68 137.31"/><polygon class="cls-1" points="190.37 55.15 190.37 41.46 176.68 41.46 162.99 41.46 149.29 41.46 135.6 41.46 121.91 41.46 108.21 41.46 94.52 41.46 80.83 41.46 67.14 41.46 53.45 41.46 39.75 41.46 39.75 55.15 39.75 68.84 53.45 68.84 53.45 55.15 67.14 55.15 80.83 55.15 94.52 55.15 108.21 55.15 121.91 55.15 135.41 55.15 135.6 55.15 149.1 55.15 149.29 55.15 162.99 55.15 176.68 55.15 176.68 68.84 190.37 68.84 190.37 55.15"/><polygon class="cls-1" points="176.68 96.23 176.68 82.54 176.68 68.84 162.99 68.84 162.99 82.54 162.99 96.23 162.99 109.92 176.49 109.92 176.68 109.92 176.68 96.23"/><rect class="cls-1" x="162.99" y="151" width="13.5" height="13.69"/><polygon class="cls-1" points="149.29 178.38 162.8 178.38 162.99 178.38 162.99 164.69 149.29 164.69 149.29 178.38"/><polygon class="cls-1" points="162.8 123.61 162.8 109.92 149.29 109.92 149.29 123.61 149.29 137.31 162.8 137.31 162.8 123.61"/><rect class="cls-1" x="135.6" y="137.3" width="13.69" height="13.69"/><rect class="cls-1" x="135.6" y="178.38" width="13.5" height="13.69"/><polygon class="cls-1" points="121.91 192.07 121.72 192.07 108.21 192.07 108.03 192.07 94.52 192.07 94.52 205.77 108.21 205.77 121.91 205.77 135.6 205.77 135.6 192.07 135.41 192.07 121.91 192.07"/><rect class="cls-1" x="121.91" y="151" width="13.69" height="13.69"/><polygon class="cls-1" points="121.72 178.38 121.91 178.38 121.91 164.69 108.21 164.69 108.21 178.38 121.72 178.38"/><polygon class="cls-1" points="121.91 123.61 121.91 109.92 135.6 109.92 135.6 96.23 121.91 96.23 121.91 82.54 108.21 82.54 108.21 96.23 94.52 96.23 94.52 109.92 108.21 109.92 108.21 123.61 121.91 123.61"/><rect class="cls-1" x="94.52" y="151" width="13.69" height="13.69"/><rect class="cls-1" x="80.83" y="137.3" width="13.69" height="13.69"/><rect class="cls-1" x="80.83" y="178.38" width="13.51" height="13.69"/><polygon class="cls-1" points="80.64 178.38 80.83 178.38 80.83 164.69 67.14 164.69 67.14 178.38 80.64 178.38"/><polygon class="cls-1" points="67.14 137.31 80.83 137.31 80.83 123.61 80.83 109.92 67.14 109.92 67.14 123.61 67.14 137.31"/><rect class="cls-1" x="53.45" y="151" width="13.69" height="13.69"/><polygon class="cls-1" points="53.45 96.23 53.45 109.92 67.14 109.92 67.14 96.23 67.14 82.54 67.14 68.84 53.45 68.84 53.45 82.54 53.45 96.23"/><polygon class="cls-1" points="39.75 151 53.45 151 53.45 137.31 53.45 123.61 39.75 123.61 39.75 137.31 39.75 151"/><polygon class="cls-1" points="26.06 109.92 26.06 123.61 39.75 123.61 39.75 109.92 39.75 96.23 39.75 82.54 26.06 82.54 26.06 96.23 26.06 109.92"/></svg>