<svg id="Layer_1" data-name="Layer 1" xmlns="http://www.w3.org/2000/svg" viewBox="0 0 200 200"><defs><style>.cls-1{fill:#231f20;}</style></defs><rect class="cls-1" x="179.77" y="113.29" width="13.29" height="13.29"/><rect class="cls-1" x="179.77" y="100" width="13.29" height="13.3"/><rect class="cls-1" x="179.77" y="86.71" width="13.29" height="13.29"/><rect class="cls-1" x="179.77" y="73.41" width="13.29" height="13.29"/><rect class="cls-1" x="166.47" y="60.12" width="13.3" height="13.3"/><rect class="cls-1" x="166.47" y="46.82" width="13.3" height="13.29"/><rect class="cls-1" x="166.47" y="139.88" width="13.11" height="13.3"/><rect class="cls-1" x="166.47" y="126.59" width="13.11" height="13.29"/><polygon class="cls-1" points="166.47 153.18 166.47 166.47 166.29 166.47 153.18 166.47 153.18 153.18 166.29 153.18 166.47 153.18"/><rect class="cls-1" x="153.18" y="33.53" width="13.29" height="13.3"/><polygon class="cls-1" points="153.18 126.59 153.18 139.88 139.88 139.88 139.88 126.59 152.99 126.59 153.18 126.59"/><polygon class="cls-1" points="153.18 60.12 153.18 73.41 152.99 73.41 139.88 73.41 139.88 60.12 153.18 60.12"/><rect class="cls-1" x="139.88" y="20.23" width="13.3" height="13.29"/><rect class="cls-1" x="139.88" y="166.47" width="13.11" height="13.29"/><rect class="cls-1" x="139.88" y="86.71" width="13.11" height="13.29"/><rect class="cls-1" x="126.59" y="126.59" width="13.29" height="13.29"/><rect class="cls-1" x="126.59" y="20.23" width="13.29" height="13.29"/><rect class="cls-1" x="126.59" y="166.47" width="13.11" height="13.29"/><rect class="cls-1" x="126.59" y="73.41" width="13.11" height="13.29"/><polygon class="cls-1" points="126.59 179.76 126.59 193.06 113.3 193.06 113.3 179.76 126.41 179.76 126.59 179.76"/><rect class="cls-1" x="113.29" y="126.59" width="13.29" height="13.29"/><rect class="cls-1" x="113.29" y="86.71" width="13.29" height="13.29"/><rect class="cls-1" x="113.29" y="6.94" width="13.29" height="13.29"/><rect class="cls-1" x="113.29" y="60.12" width="13.11" height="13.3"/><polygon class="cls-1" points="113.3 179.76 113.3 193.06 100 193.06 100 179.76 113.11 179.76 113.3 179.76"/><rect class="cls-1" x="100" y="126.59" width="13.3" height="13.29"/><rect class="cls-1" x="100" y="6.94" width="13.3" height="13.29"/><polygon class="cls-1" points="100 179.76 100 193.06 86.7 193.06 86.7 179.76 99.82 179.76 100 179.76"/><rect class="cls-1" x="86.71" y="126.59" width="13.29" height="13.29"/><rect class="cls-1" x="86.71" y="6.94" width="13.29" height="13.29"/><polygon class="cls-1" points="86.7 179.76 86.7 193.06 73.41 193.06 73.41 179.76 86.52 179.76 86.7 179.76"/><rect class="cls-1" x="73.41" y="126.59" width="13.3" height="13.29"/><rect class="cls-1" x="73.41" y="86.71" width="13.3" height="13.29"/><rect class="cls-1" x="73.41" y="60.12" width="13.3" height="13.3"/><rect class="cls-1" x="73.41" y="6.94" width="13.3" height="13.29"/><rect class="cls-1" x="60.12" y="126.59" width="13.29" height="13.29"/><rect class="cls-1" x="60.12" y="73.41" width="13.29" height="13.29"/><rect class="cls-1" x="60.12" y="20.23" width="13.29" height="13.29"/><rect class="cls-1" x="60.12" y="166.47" width="13.11" height="13.29"/><rect class="cls-1" x="46.82" y="126.59" width="13.29" height="13.29"/><rect class="cls-1" x="46.82" y="86.71" width="13.29" height="13.29"/><rect class="cls-1" x="46.82" y="60.12" width="13.29" height="13.3"/><rect class="cls-1" x="46.82" y="20.23" width="13.29" height="13.29"/><rect class="cls-1" x="46.82" y="166.47" width="13.11" height="13.29"/><polygon class="cls-1" points="46.82 153.18 46.82 166.47 46.64 166.47 33.53 166.47 33.53 153.18 46.82 153.18"/><rect class="cls-1" x="33.53" y="33.53" width="13.3" height="13.3"/><rect class="cls-1" x="20.23" y="139.88" width="13.29" height="13.3"/><rect class="cls-1" x="20.23" y="126.59" width="13.29" height="13.29"/><rect class="cls-1" x="20.23" y="60.12" width="13.29" height="13.3"/><rect class="cls-1" x="20.23" y="46.82" width="13.29" height="13.29"/><rect class="cls-1" x="6.94" y="113.29" width="13.29" height="13.29"/><rect class="cls-1" x="6.94" y="100" width="13.29" height="13.3"/><rect class="cls-1" x="6.94" y="86.71" width="13.29" height="13.29"/><rect class="cls-1" x="6.94" y="73.41" width="13.29" height="13.29"/></svg>