<svg id="Layer_1" data-name="Layer 1" xmlns="http://www.w3.org/2000/svg" viewBox="0 0 128 128"><path d="M35.68,86.51V80.3h5.85v3h6.24v3.13h2.72v5.87H44.73v-3H41.57V86.51Z"/><path d="M44.67,80.21V77.44h-3.1V71.52H38.82V65.26H35.66V59.34H32.94V32.49h2.67V23.43h3.12V20.35l2.78-.14V17.52h3.12V14.4h9.06V11.66H86.43v2.65h6.26v3.14h2.78v2.83h3.16v3.11h2.78v3.13h3.12V35.2h2.71v30H104.6v6.26h-3.14v2.78H98.68v3.12H95.56v2.81h-6v3.08h-39v-3Zm39-11.88h6V65.18h3.1V59.26h2.7V41.58l-2.75-.13v-9H89.55V29.3H86.43V26.53H80.51v-3H59.61v3.07H50.55v2.76H47.79v9.1h-3v15h3v5.82l2.78.14V65.2h5.91v3.19h3.16v3h24Z"/><path d="M29.65,86.53h3.13l.12,2.71h5.84v3.07l2.77.13v2.67h6.21v9.11h-3v5.87H41.57v3.16H38.8v3.09h-15v-3h-3V101.47h3v-6.3h2.78V89.29h3.1Z"/><path d="M77.76,50.35c0,2,0,4,0,6.11h2.7v2.75H74.67V56.47H71.55l0,0V50.2h-2.9V47.39H65.54v-3H62.72l0,0V41.56h-3V35.32h3v3h2.76V41.5h3.15v2.77h2.83v3.16h3.1V50.2h3.17Z"/><path d="M71.55,56.47v8.65H68.7V59.28H62.8V56.52H59.67v-9H53.81V41.6h2.66v2.79h6.28l0,0v5.9h2.87v3.16h3.15V56.5h2.83Z"/><path d="M71.6,38.39h6.15V32.54H80.5v5.81h5.88v3.17H80.61v5.92h5.78V50.2H77.76V44.34H74.67V41.59H71.45l.18-3.23Z"/><path d="M71.63,38.36H68.8v-9h2.79v9Z"/><path d="M35.68,86.51V80.3h5.85v3h6.24v3.13h2.72v5.87H44.73v-3H41.57V86.51Z"/></svg>