<svg id="Layer_1" data-name="Layer 1" xmlns="http://www.w3.org/2000/svg" viewBox="0 0 200 200"><defs><style>.cls-1{fill:none;}.cls-2{fill:#231f20;}</style></defs><polygon class="cls-1" points="175.37 148.1 175.25 148.1 161.72 148.1 161.53 148.1 148 148.1 147.81 148.1 134.29 148.1 134.1 148.1 134.1 161.81 134.29 161.81 147.81 161.81 148 161.81 161.53 161.81 161.72 161.81 175.25 161.81 175.37 161.81 175.43 161.81 175.47 161.81 175.47 148.1 175.43 148.1 175.37 148.1"/><polygon class="cls-1" points="51.98 175.34 51.98 161.62 52.08 161.62 52.08 147.91 51.98 147.91 51.98 134.19 51.98 120.48 51.98 106.76 51.98 93.05 38.28 93.05 24.57 93.05 24.57 106.76 24.57 120.48 24.57 134.19 24.57 147.91 24.57 161.62 24.57 175.34 38.28 175.34 51.98 175.34"/><polygon class="cls-1" points="148 120.67 134.29 120.67 120.57 120.67 120.57 134.38 134.29 134.38 148 134.38 161.72 134.38 175.37 134.38 175.43 134.38 175.47 134.38 175.47 120.67 161.72 120.67 148 120.67"/><path class="cls-2" d="M189.08,148.1V134.38H189V93.24H175.46V107H134.29V93.24h41V79.52H120.57V24.66H106.86V93.24h13.71V107H106.86V148.1h13.71v27.43H79.43v13.71h96V175.53h13.65V161.81H189V148.1Zm-13.62,13.71H134.1V148.1h41.36Zm0-27.43H120.57V120.67h54.89Z"/><polygon class="cls-2" points="93.14 51.9 93.14 38.19 93.14 24.57 106.86 24.57 106.86 10.85 93.14 10.85 79.43 10.85 79.43 24.47 79.43 24.57 79.43 38.19 79.43 51.9 79.43 65.62 93.14 65.62 93.14 51.9"/><polygon class="cls-2" points="79.43 161.62 79.24 161.62 65.7 161.62 65.61 161.62 65.61 147.91 65.7 147.91 65.7 134.19 65.7 120.48 65.7 106.76 65.7 93.05 52 93.05 52 79.33 38.28 79.33 24.57 79.33 24.57 93.05 38.28 93.05 51.98 93.05 51.98 106.76 51.98 120.48 51.98 134.19 51.98 147.91 52.08 147.91 52.08 161.62 51.98 161.62 51.98 175.34 38.28 175.34 24.57 175.34 24.57 189.05 38.28 189.05 51.98 189.05 52 189.05 65.7 189.05 65.7 175.34 79.43 175.34 79.43 161.62"/><polygon class="cls-2" points="79.43 79.33 79.43 65.62 65.71 65.62 65.71 79.33 65.71 93.05 79.43 93.05 79.43 79.33"/><polygon class="cls-2" points="24.57 147.91 24.57 134.19 24.57 120.48 24.57 106.76 24.57 93.05 10.85 93.05 10.85 106.76 10.85 120.48 10.85 134.19 10.85 147.91 10.85 161.62 10.85 175.34 24.57 175.34 24.57 161.62 24.57 147.91"/></svg>