<svg xmlns="http://www.w3.org/2000/svg" xmlns:xlink="http://www.w3.org/1999/xlink" viewBox="0 0 76.56 76.56"><defs><style>.cls-1{fill:#fff;}.cls-2{fill:#ff004d;}.cls-3{fill:#fff1e8;}.cls-4{fill:#422136;}.cls-5{mask:url(#mask);}.cls-6{fill:#7e2553;}.cls-7{fill:#be1250;}</style><mask id="mask" x="16.03" y="21.91" width="112.3" height="27.07" maskUnits="userSpaceOnUse"><path class="cls-1" d="M20.27,24V21.91h6.36V24h2.11V36.74h2.12V30.38H33V26.14H35.1V24h4.24v2.12h2.12v8.48H39.34v4.24H37.22V43.1H35.1v2.11H33v2.12H24.51V45.21H22.39V41H20.27V32.5H18.15V24Z"/></mask></defs><g id="Layer_3" data-name="Layer 3"><rect class="cls-2" width="76.56" height="76.56"/></g><g id="Layer_1" data-name="Layer 1"><polygon class="cls-2" points="22.91 48.93 22.91 46.81 20.79 46.81 20.79 42.58 18.67 42.58 18.67 34.1 16.55 34.1 16.55 22.43 18.67 22.43 18.67 20.31 28.23 20.31 28.23 22.43 30.35 22.43 30.35 28.78 31.39 28.78 31.39 24.54 33.51 24.54 33.51 22.43 40.94 22.43 40.94 24.54 43.06 24.54 43.06 36.22 40.94 36.22 40.94 40.46 38.82 40.46 38.82 44.7 36.7 44.7 36.7 46.81 34.59 46.81 34.59 48.93 22.91 48.93"/><path class="cls-3" d="M26.63,21.91V24h2.12V36.74h2.12V30.38H33V26.14H35.1V24h4.24v2.12h2.12v8.48H39.34v4.24H37.22V43.1H35.1v2.11H33v2.12H24.51V45.21H22.39V41H20.27V32.5H18.15V24h2.12V21.91h6.36m3.2-3.2H17.07v2.11H15V35.7h2.12v8.48h2.12v4.23h2.12v2.12H36.19V48.41H38.3V46.3h2.12V42.06h2.12V37.82h2.12V22.94H42.54V20.82H29.83V18.71Z"/><path class="cls-4" d="M35.67,57.1V55H33.55V41.29h2.12V34.93h2.12V30.7h2.12V28.58H51.49V30.7h4.23v2.11h2.12v10.6H60V55H55.72V57.1Zm10.6-9.45V46.51H45.13v1.14Z"/><path class="cls-3" d="M49.94,30.13v2.12h4.23v2.11h2.12v6.36H54.17v2.12h2.12V45h2.12v8.48H54.17v2.11h-17V53.44H35.1V42.84h2.12V36.48h2.12V32.25h2.12V30.13h8.48M43.58,40.72h4.24V36.48H45.7V38.6H43.58v2.12m0,8.48h4.24V45H43.58V49.2M53,27H38.36v2.12H36.24v4.23H34.12v6.36H32v16.8h2.12v2.11H57.27V56.54h4.24V41.86H59.39V31.26H57.27V29.15H53V27Z"/></g><g id="Layer_5" data-name="Layer 5"><g class="cls-5"><rect class="cls-6" x="18.15" y="38.86" width="110.18" height="10.12"/><rect class="cls-7" x="18.15" y="26.14" width="110.18" height="12.71"/><rect class="cls-2" x="56.29" y="32.5" width="2.12" height="2.12"/><rect class="cls-2" x="47.82" y="32.5" width="2.12" height="2.12"/><rect class="cls-2" x="39.34" y="32.5" width="2.12" height="2.12"/><rect class="cls-2" x="30.87" y="32.5" width="2.12" height="2.12"/><rect class="cls-2" x="22.39" y="32.5" width="2.12" height="2.12"/><rect class="cls-2" x="64.77" y="32.5" width="2.12" height="2.12"/><rect class="cls-2" x="73.24" y="32.5" width="2.12" height="2.12"/><rect class="cls-2" x="60.53" y="30.38" width="2.12" height="2.12"/><rect class="cls-2" x="52.05" y="30.38" width="2.12" height="2.12"/><rect class="cls-2" x="43.58" y="30.38" width="2.12" height="2.12"/><rect class="cls-2" x="35.1" y="30.38" width="2.12" height="2.12"/><rect class="cls-2" x="26.63" y="30.38" width="2.12" height="2.12"/><rect class="cls-2" x="18.15" y="30.38" width="2.12" height="2.12"/><rect class="cls-2" x="69.01" y="30.38" width="2.12" height="2.12"/><rect class="cls-2" x="62.65" y="28.26" width="2.12" height="2.12"/><rect class="cls-2" x="58.41" y="28.26" width="2.12" height="2.12"/><rect class="cls-2" x="54.17" y="28.26" width="2.12" height="2.12"/><rect class="cls-2" x="49.94" y="28.26" width="2.12" height="2.12"/><rect class="cls-2" x="45.7" y="28.26" width="2.12" height="2.12"/><rect class="cls-2" x="41.46" y="28.26" width="2.12" height="2.12"/><rect class="cls-2" x="37.22" y="28.26" width="2.12" height="2.12"/><rect class="cls-2" x="32.99" y="28.26" width="2.12" height="2.12"/><rect class="cls-2" x="28.75" y="28.26" width="2.12" height="2.12"/><rect class="cls-2" x="24.51" y="28.26" width="2.12" height="2.12"/><rect class="cls-2" x="20.27" y="28.26" width="2.12" height="2.12"/><rect class="cls-2" x="16.03" y="28.26" width="2.12" height="2.12"/><rect class="cls-2" x="66.89" y="28.26" width="2.12" height="2.12"/><rect class="cls-2" x="71.12" y="28.26" width="2.12" height="2.12"/><rect class="cls-2" x="75.36" y="28.26" width="2.12" height="2.12"/><rect class="cls-2" x="60.53" y="26.14" width="2.12" height="2.12"/><rect class="cls-2" x="56.29" y="26.14" width="2.12" height="2.12"/><rect class="cls-2" x="52.05" y="26.14" width="2.12" height="2.12"/><rect class="cls-2" x="47.82" y="26.14" width="2.12" height="2.12"/><rect class="cls-2" x="43.58" y="26.14" width="2.12" height="2.12"/><rect class="cls-2" x="39.34" y="26.14" width="2.12" height="2.12"/><rect class="cls-2" x="35.1" y="26.14" width="2.12" height="2.12"/><rect class="cls-2" x="30.87" y="26.14" width="2.12" height="2.12"/><rect class="cls-2" x="26.63" y="26.14" width="2.12" height="2.12"/><rect class="cls-2" x="22.39" y="26.14" width="2.12" height="2.12"/><rect class="cls-2" x="18.15" y="26.14" width="2.12" height="2.12"/><rect class="cls-2" x="64.77" y="26.14" width="2.12" height="2.12"/><rect class="cls-2" x="69.01" y="26.14" width="2.12" height="2.12"/><rect class="cls-2" x="73.24" y="26.14" width="2.12" height="2.12"/><rect class="cls-7" x="56.29" y="45.22" width="2.12" height="2.12"/><rect class="cls-7" x="47.82" y="45.22" width="2.12" height="2.12"/><rect class="cls-7" x="39.34" y="45.22" width="2.12" height="2.12"/><rect class="cls-7" x="30.87" y="45.22" width="2.12" height="2.12"/><rect class="cls-7" x="22.39" y="45.22" width="2.12" height="2.12"/><rect class="cls-7" x="64.77" y="45.22" width="2.12" height="2.12"/><rect class="cls-7" x="73.24" y="45.22" width="2.12" height="2.12"/><rect class="cls-7" x="60.53" y="43.1" width="2.12" height="2.12"/><rect class="cls-7" x="52.05" y="43.1" width="2.12" height="2.12"/><rect class="cls-7" x="43.58" y="43.1" width="2.12" height="2.12"/><rect class="cls-7" x="35.1" y="43.1" width="2.12" height="2.12"/><rect class="cls-7" x="26.63" y="43.1" width="2.12" height="2.12"/><rect class="cls-7" x="18.15" y="43.1" width="2.12" height="2.12"/><rect class="cls-7" x="69.01" y="43.1" width="2.12" height="2.12"/><rect class="cls-7" x="62.65" y="40.98" width="2.12" height="2.12"/><rect class="cls-7" x="58.41" y="40.98" width="2.12" height="2.12"/><rect class="cls-7" x="54.17" y="40.98" width="2.12" height="2.12"/><rect class="cls-7" x="49.94" y="40.98" width="2.12" height="2.12"/><rect class="cls-7" x="45.7" y="40.98" width="2.12" height="2.12"/><rect class="cls-7" x="41.46" y="40.98" width="2.12" height="2.12"/><rect class="cls-7" x="37.22" y="40.98" width="2.12" height="2.12"/><rect class="cls-7" x="32.99" y="40.98" width="2.12" height="2.12"/><rect class="cls-7" x="28.75" y="40.98" width="2.12" height="2.12"/><rect class="cls-7" x="24.51" y="40.98" width="2.12" height="2.12"/><rect class="cls-7" x="20.27" y="40.98" width="2.12" height="2.12"/><rect class="cls-7" x="16.03" y="40.98" width="2.12" height="2.12"/><rect class="cls-7" x="66.89" y="40.98" width="2.12" height="2.12"/><rect class="cls-7" x="71.12" y="40.98" width="2.12" height="2.12"/><rect class="cls-7" x="75.36" y="40.98" width="2.12" height="2.12"/><rect class="cls-7" x="60.53" y="38.86" width="2.12" height="2.12"/><rect class="cls-7" x="56.29" y="38.86" width="2.12" height="2.12"/><rect class="cls-7" x="52.05" y="38.86" width="2.12" height="2.12"/><rect class="cls-7" x="47.82" y="38.86" width="2.12" height="2.12"/><rect class="cls-7" x="43.58" y="38.86" width="2.12" height="2.12"/><rect class="cls-7" x="39.34" y="38.86" width="2.12" height="2.12"/><rect class="cls-7" x="35.1" y="38.86" width="2.12" height="2.12"/><rect class="cls-7" x="30.87" y="38.86" width="2.12" height="2.12"/><rect class="cls-7" x="26.63" y="38.86" width="2.12" height="2.12"/><rect class="cls-7" x="22.39" y="38.86" width="2.12" height="2.12"/><rect class="cls-7" x="18.15" y="38.86" width="2.12" height="2.12"/><rect class="cls-7" x="64.77" y="38.86" width="2.12" height="2.12"/><rect class="cls-7" x="69.01" y="38.86" width="2.12" height="2.12"/><rect class="cls-7" x="73.24" y="38.86" width="2.12" height="2.12"/></g></g></svg>