<svg id="Layer_1" data-name="Layer 1" xmlns="http://www.w3.org/2000/svg" viewBox="0 0 200 200"><defs><style>.cls-1{fill:#231f20;}</style></defs><rect class="cls-1" x="174.19" y="167.44" width="13.49" height="13.49"/><rect class="cls-1" x="174.19" y="153.96" width="13.49" height="13.49"/><rect class="cls-1" x="160.7" y="167.44" width="13.49" height="13.49"/><rect class="cls-1" x="160.7" y="140.46" width="13.49" height="13.49"/><rect class="cls-1" x="160.7" y="126.98" width="13.49" height="13.49"/><rect class="cls-1" x="147.21" y="167.44" width="13.49" height="13.49"/><rect class="cls-1" x="147.21" y="113.49" width="13.49" height="13.49"/><rect class="cls-1" x="147.21" y="100" width="13.49" height="13.49"/><rect class="cls-1" x="133.72" y="167.44" width="13.49" height="13.49"/><rect class="cls-1" x="133.72" y="86.51" width="13.49" height="13.49"/><rect class="cls-1" x="133.72" y="73.03" width="13.49" height="13.49"/><rect class="cls-1" x="120.23" y="167.44" width="13.49" height="13.49"/><rect class="cls-1" x="120.23" y="59.54" width="13.49" height="13.49"/><rect class="cls-1" x="120.23" y="46.05" width="13.49" height="13.49"/><rect class="cls-1" x="106.75" y="167.44" width="13.49" height="13.49"/><rect class="cls-1" x="106.75" y="32.56" width="13.49" height="13.49"/><rect class="cls-1" x="93.25" y="167.44" width="13.49" height="13.49"/><rect class="cls-1" x="93.25" y="140.46" width="13.49" height="13.49"/><rect class="cls-1" x="93.25" y="113.49" width="13.49" height="13.49"/><rect class="cls-1" x="93.25" y="100" width="13.49" height="13.49"/><rect class="cls-1" x="93.25" y="86.51" width="13.49" height="13.49"/><rect class="cls-1" x="93.25" y="73.03" width="13.49" height="13.49"/><rect class="cls-1" x="93.25" y="19.07" width="13.49" height="13.49"/><rect class="cls-1" x="79.77" y="167.44" width="13.49" height="13.49"/><rect class="cls-1" x="79.77" y="32.56" width="13.49" height="13.49"/><rect class="cls-1" x="66.28" y="167.44" width="13.49" height="13.49"/><rect class="cls-1" x="66.28" y="59.54" width="13.49" height="13.49"/><rect class="cls-1" x="66.28" y="46.05" width="13.49" height="13.49"/><rect class="cls-1" x="52.79" y="167.44" width="13.49" height="13.49"/><rect class="cls-1" x="52.79" y="86.51" width="13.49" height="13.49"/><rect class="cls-1" x="52.79" y="73.03" width="13.49" height="13.49"/><rect class="cls-1" x="39.3" y="167.44" width="13.49" height="13.49"/><rect class="cls-1" x="39.3" y="113.49" width="13.49" height="13.49"/><rect class="cls-1" x="39.3" y="100" width="13.49" height="13.49"/><rect class="cls-1" x="25.81" y="167.44" width="13.49" height="13.49"/><rect class="cls-1" x="25.81" y="140.46" width="13.49" height="13.49"/><rect class="cls-1" x="25.81" y="126.98" width="13.49" height="13.49"/><rect class="cls-1" x="12.33" y="167.44" width="13.49" height="13.49"/><rect class="cls-1" x="12.33" y="153.96" width="13.49" height="13.49"/></svg>